<svg width="169" height="231" viewBox="0 0 169 231" fill="none" xmlns="http://www.w3.org/2000/svg">
<path d="M53.2326 47.5572C51.633 46.3942 53.3602 43.4944 51.508 41.6018C50.8561 40.946 50.1901 40.8409 49.2283 40.8247C48.4927 43.9193 47.2229 45.9416 45.3302 46.8915C44.6205 47.2477 43.9105 47.4253 43.23 47.5732C42.1798 47.8248 41.2628 48.0617 40.4945 48.9238C40.2877 49.1616 40.2435 49.2955 39.5951 51.2889L38.9026 53.446C37.9742 56.2873 37.7386 57.0608 37.9166 57.3885C38.1094 57.731 38.4055 57.8803 38.8646 58.1339C39.4124 58.4175 40.2564 58.8204 40.4649 59.8625C40.7034 61.113 39.8168 61.9452 39.0926 62.6139C38.5902 63.0895 38.0877 63.5353 38.0587 64.0115C38.0445 64.3836 38.3112 64.6518 39.0815 65.3077C39.837 65.9487 40.7999 66.7686 41.4084 68.1237C41.8388 69.0619 43.8264 72.696 43.8264 72.696C44.212 73.3216 44.6716 74.0217 45.575 74.5736C46.1673 74.9316 46.5966 75.0066 47.0554 75.0817C47.6473 75.1718 48.3726 75.3068 49.0838 76.0519C50.5805 77.6464 50.451 80.3995 49.5508 82.1693C49.0638 83.1062 48.5316 83.4627 47.9551 83.8637C47.5707 84.1311 47.1125 84.443 46.4918 85.0374C45.4278 86.048 44.985 86.8511 44.6013 87.5947C44.1438 88.4424 43.6715 89.3347 42.4003 90.2854C41.4395 91.0133 40.7147 91.2356 40.1527 91.4134C39.6203 91.5912 39.2801 91.6949 38.7924 92.1854C38.1423 92.8393 38.0099 93.3899 37.8038 94.1933C37.6567 94.8181 37.4654 95.6066 36.9784 96.5138C35.6207 99.1611 33.2255 100.557 31.6287 101.477C31.54 101.537 31.4217 101.596 31.333 101.655C31.7623 101.82 32.2362 102.088 32.6068 102.58C33.2294 103.414 33.3791 104.724 33.0258 106.063C32.6578 107.476 31.8011 108.606 30.7512 109.066C29.1689 109.764 27.5549 108.883 26.3555 108.242C26.1481 108.122 25.8668 107.988 25.6299 107.869C25.7044 108.241 25.8086 108.732 25.9425 109.223L26.0616 109.73C26.6866 112.32 26.8212 113.377 26.9257 114.076C27.0153 114.672 27.0601 114.984 27.3276 115.848C28.0408 118.022 28.7822 119.184 29.3753 120.107C30.0574 121.18 30.6802 122.103 30.5345 123.77C30.4471 124.841 30.1222 125.317 29.7088 125.942C29.3396 126.492 28.8523 127.25 28.174 128.976C27.6432 130.314 26.9059 132.159 26.6724 134.599C26.5119 136.251 26.6467 137.457 26.8118 139.139C27.0515 141.342 27.1714 142.532 27.5864 143.039C27.8977 143.412 28.1494 143.516 29.3188 143.89C30.0146 144.114 30.9176 144.398 32.176 144.891C35.3145 146.115 36.7505 146.668 36.7229 148.067C36.695 149.347 35.3343 149.762 34.0179 150.162C33.1453 150.443 31.681 150.903 31.5338 151.438C31.475 151.706 31.7863 152.138 32.1124 152.585C32.661 153.375 33.4467 154.462 33.1231 155.89C32.8877 156.902 32.2669 157.407 31.7939 157.764C31.4096 158.061 31.1288 158.284 30.9371 158.775C30.7011 159.37 30.7905 159.816 31.0434 160.754C31.1921 161.32 31.3557 161.96 31.4308 162.749C31.7904 166.053 30.3144 168.73 29.8566 169.459C28.454 171.704 26.4577 172.609 24.8606 173.351C23.4411 174.004 22.7905 174.361 22.7026 174.956C22.6439 175.313 23.2964 176.445 24.0084 177.755C24.8242 179.2 25.4467 179.945 25.9061 180.496C26.4545 181.167 26.9436 181.748 27.019 182.805C27.0945 183.921 26.6514 184.516 25.9277 185.512C25.4256 186.196 24.6576 187.237 23.5799 189.036C23.3142 189.482 23.0927 189.854 22.9304 190.166C22.3399 191.207 22.0446 191.713 21.2759 192.247C19.9307 193.153 18.6729 193.077 17.5482 192.986C17.0007 192.941 16.4828 192.925 15.9502 192.984C14.1305 193.205 13.0668 194.483 11.4418 196.386C10.6736 197.308 9.7872 198.319 8.69378 199.448C6.44767 201.648 3.77203 203.534 0.725977 205.048C3.14311 208.936 4.14907 208.759 4.17866 208.759C4.40055 208.714 4.68097 208.194 4.93193 207.762C5.41907 206.915 6.08338 205.77 7.47383 205.444C8.71635 205.148 9.60498 205.775 10.5528 206.401C10.9379 206.669 11.3822 206.968 11.9597 207.281C13.2924 208.027 15.9416 208.432 20.7811 209.198C24.9843 209.859 25.8572 209.786 26.1382 209.682C27.1734 209.296 27.8531 208.642 28.4885 208.003C29.316 207.171 30.2617 206.249 31.8155 206.326C33.2065 206.387 34.125 207.222 35.6361 208.623C37.5177 210.367 39.4585 212.141 39.5655 214.686C39.6422 216.636 38.5345 218.137 36.4962 220.843C35.5952 222.047 34.886 222.79 34.3985 223.34C33.6893 224.113 33.3642 224.44 33.0842 225.288C32.5242 226.954 32.6601 228.964 33.3413 229.381C33.7707 229.635 34.6877 229.339 35.1757 229.086C35.8706 228.715 36.225 228.15 36.5349 227.6C36.9336 226.96 37.406 226.157 38.4565 226.084C39.4478 226.011 40.0257 226.682 40.5 227.278C40.752 227.591 41.0632 227.963 41.5225 228.366C43.2114 229.886 45.1799 230.32 46.3492 230.575C47.4444 230.815 48.8801 231.129 50.6108 230.73C53.0219 230.182 54.544 228.681 55.312 227.7C55.7991 226.793 56.1678 225.856 56.3588 224.889C56.6527 223.401 56.4888 222.523 56.2504 221.302C56.0716 220.438 55.8927 219.456 55.8465 218.101C55.7233 214.559 56.6804 211.123 58.6588 207.911C59.2641 206.914 59.8399 205.978 60.5344 205.279C61.1254 204.685 61.7907 204.254 62.6487 204.076C64.1575 203.751 65.3569 204.393 66.3194 204.915C67.2079 205.392 67.8149 205.676 68.4658 205.528C69.59 205.291 70.4314 203.849 70.9773 202.644C71.0639 201.097 71.4023 199.653 72.0368 198.33C73.0991 196.129 74.5182 195.059 75.6563 194.182C76.6763 193.425 77.1936 192.994 77.3849 192.205C77.7086 190.866 76.6561 189.481 75.6333 188.125C74.4919 186.62 73.2171 184.922 73.984 183.107C74.3971 182.156 75.0626 181.903 76.2605 181.444C76.9704 181.177 77.9908 180.806 79.5139 180.109C81.0223 179.426 82.0425 178.877 82.8557 178.447C84.3343 177.645 85.2215 177.17 86.7899 177.142C88.2399 177.114 89.0542 177.488 89.6761 177.786C90.1795 178.025 90.52 178.189 91.2006 178.16C94.2338 178.06 97.7064 174.627 98.3675 171.101C98.5878 169.925 98.4679 168.824 98.3778 167.842C98.2131 166.398 98.0779 164.924 99.3046 163.869C100.103 163.215 100.931 163.217 101.716 163.233C101.982 163.233 102.278 163.233 102.618 163.219C104.246 163.102 105.103 162.448 106.655 161.245C107.542 160.562 108.636 159.73 110.144 158.779C112.509 157.294 113.929 156.82 115.068 156.42C116.207 156.019 116.976 155.753 118.291 154.579C119.192 153.761 119.739 153.063 120.212 152.468C120.935 151.531 121.571 150.743 122.99 150.329C124.706 149.825 125.92 150.392 127.09 150.945C128.008 151.363 128.956 151.81 130.361 151.887C133.262 152.039 137.136 150.527 138.065 148.102C138.301 147.507 138.227 147.135 138.107 146.242C137.958 145.23 137.734 143.845 137.849 141.375C137.863 141.092 137.98 139.931 138.229 137.625L138.623 133.86C138.842 131.851 138.886 131.301 138.988 130.363C139.221 127.804 139.25 126.851 139.264 126.271C139.278 125.72 139.292 125.467 139.424 124.679C139.821 122.283 140.425 120.781 140.971 119.457C141.516 118.103 141.959 117.032 141.986 115.336C142.014 113.818 141.701 112.255 141.063 110.721L140.513 109.396L141.919 109.264C142.54 109.205 143.398 109.147 144.434 109.118C146.002 109.091 149.125 109.14 152.277 109.873C155.208 110.562 157.015 111.576 158.332 112.307C159.858 113.158 160.509 113.486 161.663 113.19C162.772 112.909 164.073 112.077 164.353 111.051C164.5 110.545 164.337 110.202 163.877 109.294C163.477 108.534 162.987 107.566 162.63 106.107C162.347 104.961 161.781 101.954 162.783 98.7703C163.313 97.0446 164.081 96.0634 164.628 95.3349C165.189 94.6213 165.455 94.2645 165.454 93.4906C165.438 92.672 165.112 92.1953 164.622 91.5547C164.059 90.78 163.348 89.8265 163.301 88.1745C163.224 86.0164 164.317 84.3808 165.469 82.656C166.059 81.7639 166.753 80.9165 167.507 80.1585C167.965 79.6978 168.468 79.252 168.985 78.8509C167.933 77.8523 166.866 76.8686 165.785 75.9295C164.778 75.0649 163.874 74.3046 163.074 73.6487C160.008 71.0995 158.319 69.6982 158.76 67.7939C158.966 66.8417 159.602 66.4705 160.223 66.0844C160.622 65.8319 161.125 65.5349 161.731 64.9554C163.844 63.0384 164.95 60.2866 164.609 59.7653C164.416 59.4822 162.641 59.8072 161.872 59.9252C159.638 60.324 156.842 60.8112 155.005 58.9633C153.36 57.309 153.208 54.3918 153.768 52.3685C154.151 51.0296 154.771 50.2864 155.332 49.6323C155.82 49.0525 156.204 48.6066 156.425 47.7586C156.557 47.2676 156.483 46.8954 156.17 45.4812C156.021 44.8261 155.843 43.9627 155.619 42.8462C154.814 38.5291 154.278 35.7006 153.138 35.1484C152.427 34.82 151.628 35.1463 150.416 35.74C149.144 36.3335 147.725 37.0162 146.259 36.2849C144.97 35.6432 144.229 34.1837 143.974 31.8467C142.273 32.0974 140.704 32.1845 138.884 31.6909C136.338 30.973 132.384 28.8989 132.188 26.1156C132.052 23.9574 134.271 23.5437 136.203 19.0072C136.955 17.2372 138.032 14.664 136.95 13.2486C136.624 12.8314 136.061 12.414 132.184 12.2896C128.47 12.1505 124.875 12.3986 123.972 12.4717C119.815 12.7488 119.401 12.9268 118.616 12.4644C116.439 11.1368 117.13 8.29525 114.791 7.07165C113.888 6.60905 112.926 6.62257 110.973 6.67942C108.31 6.76506 107.571 7.44867 106.194 6.86635C105.069 6.38856 104.461 5.42034 103.912 4.57127C102.8 2.82847 102.605 1.08693 102.559 0.149255C101.659 1.41305 100.344 3.27155 98.764 5.51666C96.6964 8.43083 95.6627 9.91769 95.3231 10.4976C93.5961 13.576 93.5535 14.9005 91.5155 17.7849C89.7138 20.3721 88.9002 20.5346 88.471 20.4894C87.0059 20.3237 86.8545 17.7339 85.5966 17.5982C84.0871 17.4176 81.9464 20.9716 81.2116 24.6912C80.4328 28.6638 81.884 29.5588 81.2241 33.9185C80.9162 35.9868 80.2857 40.1977 77.417 41.5928C75.6426 42.4535 73.7331 41.9002 71.3203 41.1974C67.0128 39.9562 66.1371 38.0351 62.9115 38.12C62.5564 38.1195 59.6712 38.19 59.0813 39.6477C58.5209 41.0459 60.6828 42.2394 60.4338 44.0697C60.0674 46.6439 55.0692 48.8992 53.1881 47.5125L53.2326 47.5572Z" fill="#E85022"/>
</svg>
