<svg width="168" height="168" viewBox="0 0 168 168" fill="none" xmlns="http://www.w3.org/2000/svg">
<path d="M2.96627 143.474C2.90724 143.593 2.81868 143.772 2.75966 143.891C2.952 143.876 3.20352 143.861 3.41064 143.832C4.46106 143.729 5.86656 143.597 7.56893 144.15C9.18247 144.673 10.6043 145.687 11.864 147.162C12.9608 148.474 13.4805 149.799 14.1338 151.467C14.609 152.688 14.8024 153.447 14.9214 153.923C15.0553 154.474 15.085 154.563 15.3073 154.817C16.5225 156.247 19.0082 156.072 19.7331 155.999C21.686 155.763 22.5286 155.214 22.6908 154.782C22.7792 154.515 22.6307 154.157 22.3785 153.636C22.0965 153.025 21.6366 152.117 22.2421 151.269C22.8623 150.377 23.8983 150.498 24.801 150.603C25.5706 150.694 26.4289 150.784 27.3607 150.502C28.1002 150.265 28.5732 149.879 29.6371 148.839C31.8241 146.699 32.9616 145.286 33.8035 144.231C34.8819 142.908 35.5319 142.105 36.9222 141.69C38.3421 141.246 39.8071 141.441 41.0061 141.785C41.3155 140.759 42.4845 140.775 43.6979 140.807C44.7188 140.823 45.9766 140.869 47.2783 140.544C48.9202 140.144 49.7034 139.386 50.8855 138.257C52.0973 137.097 53.6046 135.641 56.5766 134.112C58.0109 133.355 59.3271 132.836 60.6139 132.495C62.8474 131.888 64.5786 131.906 66.4134 131.878C73.0275 131.873 73.8425 132.782 73.947 133.451C76.4033 133.455 78.194 133.74 78.6842 135.095C79.0704 136.197 78.2429 137.029 77.5779 137.698C76.9426 138.337 76.2776 139.006 76.264 139.884C76.2504 140.762 76.9322 141.537 78.6659 143.37C80.7553 145.62 81.7036 146.633 83.0652 146.903C84.4121 147.158 85.5803 146.639 86.6155 146.164C87.7097 145.659 88.9371 145.11 90.0036 145.975C91.0257 146.795 90.85 148.134 90.7034 149.205C90.5569 150.277 90.4839 151.006 90.8989 151.453C91.1211 151.677 91.3135 151.722 92.0238 151.752C92.8081 151.798 93.8587 151.844 95.0879 152.635C96.2283 153.365 96.6437 154.199 97.0294 154.914C97.3409 155.495 97.5932 155.987 98.2598 156.568C99.3116 157.447 100.451 157.672 102.908 158.063C104.965 158.408 106.03 158.32 106.962 158.247C107.895 158.174 108.782 158.115 110.262 158.474C113.711 159.328 116.022 161.474 117.415 162.756C118.956 164.187 120.26 165.855 121.328 167.702C123.045 167.853 124.539 167.573 125.707 166.875C126.446 166.429 126.874 165.939 127.347 165.374C127.864 164.764 128.47 164.066 129.52 163.427C131.116 162.447 132.478 162.36 134.963 162.184L135.732 162.126C141.133 161.761 144.388 161.528 145.393 160.934C148.35 159.211 149.322 155.492 149.644 153.439C150.334 148.841 149.251 147.277 148.54 146.77C147.726 146.188 146.616 146.321 145.536 146.453C144.264 146.6 142.829 146.762 141.984 145.555C141.272 144.542 141.655 143.442 141.994 142.475C142.333 141.508 142.687 140.526 142.375 139.231C142.211 138.531 141.974 138.203 141.692 137.801C141.336 137.324 140.906 136.714 140.816 135.612C140.711 134.258 141.213 133.484 142.04 132.206C142.453 131.581 142.97 130.793 143.605 129.648C144.239 128.503 144.638 127.685 144.933 127.03C145.361 126.123 145.685 125.469 146.247 124.904C146.454 124.696 146.69 124.488 146.986 124.31C148.464 123.329 149.929 123.257 151.512 123.185C153.569 123.083 154.753 123.442 155.789 123.741C156.648 123.981 157.373 124.205 158.571 124.162C159.563 124.119 162.092 123.81 164.221 121.937C165.846 120.511 166.584 118.756 166.922 117.521C168.033 107.521 166.432 105.168 165.381 104.675C164.863 104.421 164.271 104.51 163.295 104.687C162.022 104.923 160.454 105.219 158.456 104.398C156.294 103.502 153.909 101.37 153.432 98.6013C153.074 96.6065 153.856 95.1044 154.476 93.9147C155.051 92.7992 155.273 92.2787 155.02 91.7277C154.486 90.5363 152.251 89.7147 150.742 90.1888C150.165 90.3815 149.811 90.7085 149.441 91.08C148.983 91.5408 148.348 92.1798 147.327 92.0445C145.921 91.8491 145.386 90.4792 144.911 89.2879C144.599 88.4689 144.228 87.5308 143.74 87.3962C143.577 87.3513 143.444 87.4255 142.882 87.8117C142.261 88.2276 141.404 88.8217 140.057 89.1324C137.498 89.7093 135.322 88.7985 133.412 88.007C130.747 86.9021 128.453 85.9316 127.665 83.7427C127.012 81.9261 127.853 80.5729 128.739 79.1752C129.478 77.9856 130.334 76.6473 130.671 74.5791C131.024 72.4067 130.681 70.4864 130.383 68.9381C130.055 67.1815 129.786 65.6334 131.058 64.9208C131.93 64.4011 132.789 64.819 133.352 65.0876C133.87 65.3414 134.195 65.4906 134.595 65.387C135.187 65.239 135.555 64.5102 136.145 63.1121C136.499 62.3089 136.883 61.3867 137.473 60.4052C138.832 58.0854 140.162 57.105 141.344 56.2434C142.32 55.5304 143.074 54.9808 143.768 53.7167C144.875 51.6495 144.989 48.9113 144.112 45.5912C142.482 44.2198 140.779 42.9227 139.031 41.7594C136.217 39.8803 134.529 38.7469 132.027 37.9249C130.443 37.4018 129.57 37.356 128.816 37.3103C127.987 37.2496 127.203 37.2039 125.974 36.5623C123.308 35.1299 122.003 32.6873 119.822 28.6511C119.244 27.5936 118.799 26.6703 118.428 25.881C117.715 24.4215 117.122 23.1706 116.648 23.1401C116.589 23.1401 116.574 23.1252 116.234 23.4372C115.85 23.7939 115.333 24.2545 114.416 24.6402C112.612 25.3819 111.235 24.9782 109.992 24.6193C109.03 24.3352 108.186 24.081 107.136 24.3921C106.041 24.6883 105.45 25.372 104.815 26.0707C104.076 26.9031 103.264 27.8396 101.784 27.7185C100.319 27.6123 99.622 26.5844 99.0586 25.7502C98.6434 25.1246 98.2876 24.5883 97.6214 24.3344C96.5555 23.946 95.4468 24.6737 93.7024 25.8917C91.8398 27.1988 89.5338 28.8327 86.3969 28.8582C84.3402 28.8703 80.4329 28.1505 78.757 25.3056C77.3184 22.8777 78.3508 20.3789 79.3241 17.9692C80.2531 15.6637 81.1528 13.4772 80.2471 11.1989C79.6681 9.75447 77.639 8.3676 73.4775 5.63834C70.5747 3.72937 67.539 1.98389 64.4592 0.40209C63.4998 2.20158 62.3176 3.30128 60.9567 3.59707C59.5219 3.90763 58.3965 3.31079 57.4044 2.78853C56.4716 2.29612 55.8645 2.0125 55.1396 2.14545C54.1633 2.35246 53.558 3.28925 52.4802 5.02904C50.7085 7.88408 49.8692 10.9339 49.977 14.0445C50.023 15.2203 50.1721 16.0837 50.336 16.9024C50.5744 18.1827 50.8276 19.3885 50.4455 21.293C50.2104 22.4833 49.768 23.6138 49.2073 24.7143C49.2073 24.7143 49.1483 24.8928 49.0892 24.982C50.0987 27.3944 50.9011 29.8661 51.4372 32.3671C52.4496 36.9821 53.0452 39.7809 51.5247 42.3535C51.0818 43.097 50.5942 43.6172 50.1953 44.0185C49.6042 44.613 49.4713 44.8063 49.4718 45.1635C49.4725 45.6993 49.8874 46.1464 50.4801 46.7425C51.1321 47.3982 51.9322 48.2029 51.6378 49.3634C51.3877 50.3899 50.5151 50.731 49.5834 51.1018C48.844 51.3984 47.9123 51.7692 46.7296 52.5713C45.887 53.1505 45.2218 53.611 45.1778 53.8639C45.1338 54.1764 45.7856 54.7131 46.3189 55.1603C47.1781 55.8759 48.2446 56.7703 48.1577 58.1096C47.9688 60.6841 43.4576 61.9727 41.5346 62.4165C39.5081 62.8751 37.8509 62.8728 36.6375 62.8711C36.1049 62.8704 35.4538 62.8695 35.1579 62.9286C35.2767 63.2264 35.6177 63.7478 35.9143 64.2245C36.2109 64.7011 36.5668 65.2373 36.9672 65.9374C38.5986 68.7078 39.889 70.9271 40.1733 73.2641C40.697 77.5361 37.7719 81.0444 35.8515 83.3635C34.0493 85.5339 32.3652 87.5556 29.5251 88.147C27.5872 88.5462 26.2993 88.0235 25.1297 87.5605C24.2266 87.1872 23.4568 86.8885 22.362 87.0061C19.8025 87.2556 17.246 89.7077 15.1801 93.9018C14.3538 95.5675 14.281 96.4157 13.9449 99.5257C13.7405 101.549 13.4483 104.347 12.8033 108.751C11.9824 114.436 11.5554 115.998 10.7292 117.782C10.2128 118.898 9.8583 119.344 9.14939 120.325C8.49951 121.187 7.50995 122.511 5.70843 125.217C2.88799 129.425 2.0468 131.076 1.35393 132.965C0.941114 134.065 0.602303 135.181 0.33754 136.342C2.44025 137.505 3.61107 138.861 3.80555 140.424C3.98484 141.704 3.45354 142.716 3.06988 143.489L2.96627 143.474Z" fill="#FFC3B1"/>
</svg>
