<svg width="176" height="172" viewBox="0 0 176 172" fill="none" xmlns="http://www.w3.org/2000/svg">
<path d="M109.683 10.3966C109.801 9.77165 109.933 9.10212 109.828 8.10483C109.528 5.09812 107.273 0.779023 104.314 0.596364C101.99 0.459227 100.041 2.86756 99.4942 3.62583L98.7705 4.62197L97.9111 3.75757C97.7925 3.63834 97.674 3.51911 97.5406 3.38499C96.2399 4.39522 95.117 5.55457 94.231 6.8928C93.1383 8.52839 92.3556 9.70302 92.4168 11.1616C92.4625 12.1588 92.848 12.6951 93.3372 13.3655C93.8709 14.1104 94.538 15.0192 94.5696 16.5075C94.6012 18.0255 93.9513 18.8581 93.3161 19.6757C92.7844 20.3596 92.2379 21.0881 91.8106 22.4419C90.9414 25.194 91.4925 27.8885 91.6859 28.6478C91.9834 29.8388 92.4136 30.6579 92.7697 31.3728C93.289 32.3706 93.7786 33.3387 93.4105 34.6627C92.8656 36.5521 90.929 37.8442 89.2279 38.2735C87.2015 38.7916 85.8836 38.0308 84.3583 37.1804C83.0849 36.4642 81.5004 35.584 78.8658 34.9553C75.9499 34.2816 73.0201 34.218 71.5257 34.2606C71.1706 34.2601 70.8302 34.2745 70.5195 34.289C70.9357 35.6587 71.1447 37.0283 71.117 38.3974C71.0755 40.4958 70.5298 41.8494 69.9547 43.2922C69.4533 44.5119 68.9077 45.8953 68.5407 48.0528C68.438 48.6926 68.4382 48.9009 68.4241 49.3623C68.4101 49.9724 68.3818 50.9547 68.1339 53.5886C68.0464 54.5409 67.9879 55.0766 67.7688 57.1152L67.3595 60.8651C67.1258 63.0972 66.9942 64.2132 66.9945 64.4811C66.894 66.7282 67.0881 67.9936 67.2225 68.9314C67.3719 69.9436 67.5061 70.7623 67.0637 71.863C65.7663 75.2842 60.9748 77.1827 57.305 76.999C55.4996 76.9073 54.2707 76.3251 53.2787 75.8624C52.2423 75.3847 51.6056 75.0713 50.6294 75.3676C49.8603 75.6047 49.5649 75.9615 48.9149 76.794C48.4127 77.4184 47.7923 78.2212 46.7283 79.1722C45.0878 80.6433 44.023 80.9991 42.7807 81.4439C41.6862 81.8293 40.4438 82.2443 38.2706 83.5956C36.8513 84.4867 35.8462 85.2592 34.9446 85.9574C33.2595 87.2648 32.0327 88.2007 29.769 88.3613C29.3695 88.4054 29.0144 88.3751 28.7037 88.3896C28.023 88.3887 27.8307 88.4033 27.6533 88.5519C27.3281 88.7896 27.3289 89.3849 27.4787 90.6947C27.5837 91.7516 27.7334 93.0614 27.4543 94.5642C26.617 99.0725 22.3464 103.189 18.3219 103.332C17.1234 103.375 16.4276 103.062 15.8057 102.763C15.2579 102.51 14.8137 102.301 13.8519 102.314C12.7718 102.328 12.2395 102.625 10.8496 103.367C10.0216 103.812 8.95704 104.376 7.38957 105.088C5.80731 105.816 4.7277 106.216 3.98823 106.483C3.52975 106.646 2.99745 106.913 2.93826 106.913C2.59897 107.671 3.41426 108.759 4.28882 109.906C5.4747 111.485 6.95703 113.452 6.41268 115.758C6.04489 117.32 4.96581 118.137 3.88672 118.925C2.82245 119.727 1.72863 120.559 0.887589 122.299C0.444982 123.251 0.150461 124.292 0.0335833 125.393C3.29108 127.035 6.47493 128.9 9.54058 130.913C13.8799 133.761 16.2643 135.327 17.1106 137.457C18.3429 140.539 17.1925 143.336 16.1897 145.805C15.3344 147.917 14.5822 149.746 15.4869 151.281C16.5251 153.038 19.2339 153.801 21.3054 153.804C23.7912 153.777 25.639 152.485 27.4277 151.223C29.2312 149.945 31.1086 148.623 33.27 149.43C34.558 149.923 35.1955 150.861 35.7144 151.651C36.2185 152.395 36.4261 152.664 36.8404 152.694C37.2548 152.724 37.5356 152.472 38.1708 151.743C38.8652 150.955 39.7959 149.9 41.4969 149.411C43.1239 148.967 44.3969 149.326 45.4923 149.655C46.5729 149.969 47.4018 150.208 48.5258 149.763C49.1173 149.526 49.4425 149.229 49.7528 148.946C50.1962 148.53 50.743 148.04 51.7196 148.101C53.377 148.222 54.1189 149.741 55.2318 152.02C55.6175 152.794 56.033 153.688 56.5967 154.701C58.6586 158.528 59.8008 160.628 61.9183 161.777C62.7327 162.21 63.1471 162.24 63.9017 162.286C64.686 162.332 65.7811 162.393 67.6315 163.005C70.3997 163.917 72.2954 165.17 75.1389 167.079C76.9754 168.302 78.7528 169.643 80.4416 171.104C84.6006 171.958 87.8405 171.561 90.0726 169.912C91.6986 168.724 92.5397 167.043 93.2924 165.571C94.1926 163.801 95.1075 161.986 97.2082 161.662C98.6284 161.456 99.6354 162.082 100.672 162.738C101.724 163.409 103.042 164.23 105.41 164.739C107.171 165.113 108.133 165.338 109.213 165.057C112.319 164.228 114.296 159.766 115.134 155.882C115.56 153.903 115.485 152.698 115.409 151.611C115.333 150.316 115.258 149.111 116.173 147.356C117.206 145.333 118.536 144.502 119.734 143.774C120.813 143.106 121.745 142.527 122.453 141.039C123.191 139.522 123.085 138.376 122.965 137.186C122.831 135.861 122.695 134.357 123.847 132.662C126.55 128.692 133.045 128.657 133.785 128.658C135.398 128.675 136.493 128.974 137.307 129.198C138.314 129.468 138.699 129.557 139.335 129.246C140.799 128.548 141.713 126.615 141.978 125.097C142.154 124.056 141.946 123.49 141.827 123.371C141.798 123.341 141.694 123.326 141.576 123.296C141.309 123.236 140.614 123.071 140.391 122.342C139.751 120.123 145.844 117.75 148.477 116.831C149.941 116.312 152.677 115.379 156.435 114.967C158.595 114.732 160.06 114.779 161.125 114.81C162.472 114.856 162.857 114.857 163.315 114.456C164.172 113.713 164.215 112.537 164.287 111.153C164.344 109.635 164.416 107.924 165.805 106.765C167.416 105.413 170.05 105.505 173.825 107.044C173.987 106.642 174.179 106.3 174.356 105.973C174.799 105.199 175.153 104.545 175.167 103.369C175.165 101.97 174.497 100.764 172.999 98.1277C172.02 96.4 171.235 95.3124 170.656 94.5228C169.811 93.3757 169.204 92.5266 169.439 91.2768C169.791 89.3425 171.699 88.5266 173.222 87.8887C174.183 87.4882 175.263 87.0283 175.351 86.5225C175.439 85.957 174.254 85.0624 173.202 84.2722C171.351 82.8856 169.04 81.1262 168.844 78.2834C168.769 77.2564 169.004 76.5423 169.225 75.9622C169.447 75.3225 169.594 74.8763 169.445 73.9831C169.31 73.1644 169.014 72.777 168.332 71.8832C167.917 71.317 167.383 70.6019 166.716 69.5741C164.937 66.7737 163.869 65.0756 163.866 62.8432C163.864 61.3549 164.455 60.4925 165.001 59.6748C165.37 59.1246 165.739 58.5745 166.019 57.7265C166.624 55.8373 166.354 53.5747 165.3 51.0283C164.915 50.7599 164.53 50.551 164.13 50.3868C163.538 50.1478 163.153 50.1175 162.65 50.0871C162.088 50.0565 161.392 49.9811 160.371 49.6374C158.224 48.9052 156.921 47.6533 155.958 46.7739C155.721 46.5355 155.424 46.2672 155.202 46.1031C155.173 46.2519 155.129 46.4156 155.099 46.5644C154.952 47.3976 154.702 48.6623 153.668 49.8812C152.206 51.6205 150.194 52.0642 149.602 52.1527C146.451 52.6693 143.8 50.8053 142.496 49.0474C142.096 48.5259 140.82 46.5894 140.935 43.9404C141.022 42.2141 141.671 41.2626 142.232 40.4299C142.69 39.7608 143.089 39.181 143.221 38.0947C143.367 36.9043 143.07 36.1597 142.758 35.3408C142.372 34.358 141.956 33.2561 142.502 31.7239C142.944 30.5041 143.683 29.8503 144.274 29.3153C144.836 28.8399 145.072 28.6021 145.116 28.1408C145.145 27.7539 145.041 27.5602 144.537 26.8452C144.181 26.3684 143.751 25.7577 143.321 24.879C142.268 22.7791 142.206 21.0824 142.16 19.8471C142.114 18.6713 142.069 18.2694 141.654 17.9116C140.677 17.1066 138.458 17.431 136.876 18.2176C135.619 18.8558 135.058 19.6885 134.482 20.5657C133.817 21.562 133.079 22.6921 131.393 23.2553C130.136 23.6852 129.292 23.4905 128.493 23.2811C127.767 23.1164 127.027 22.9367 125.651 23.0986C124.216 23.2603 123.314 23.6907 122.575 24.0171C121.688 24.4326 120.771 24.848 119.587 24.3701C118.18 23.7878 117.838 22.5223 117.541 21.4206C117.288 20.4826 117.005 19.3958 116.101 18.3081C115.138 17.131 114.101 16.6832 113.095 16.2353C111.881 15.6979 110.607 15.1305 109.836 13.4626C109.272 12.2117 109.433 11.3041 109.609 10.4411L109.683 10.3966Z" fill="#FF9778"/>
</svg>
