<svg width="230" height="249" viewBox="0 0 230 249" fill="none" xmlns="http://www.w3.org/2000/svg">
<path d="M73.1106 22.5625C71.0977 22.1728 71.5352 17.4407 68.805 11.9006C66.1046 6.44978 61.7498 3.05053 58.2697 0.947289C54.81 2.96658 53.3926 5.19704 52.7438 6.89277C51.3875 10.5223 53.2693 12.4447 51.4244 15.9098C51.3063 16.1478 49.299 19.8062 45.7192 20.5157C43.944 20.8704 43.6915 20.1408 42.2716 20.5258C39.4316 21.266 39.3324 24.4955 36.1704 27.7951C34.1314 29.9354 30.4504 32.4752 28.7326 31.4311C27.2073 30.5212 27.2763 26.8452 28.7058 22.6056C27.5374 23.0058 25.7476 23.4648 23.5727 23.5659C19.9329 23.7098 18.9697 22.6518 16.8843 23.3484C14.5179 24.1488 15.0823 25.7272 11.7268 28.1484C10.5147 29.0397 7.94251 30.8518 4.49486 30.8322C2.94119 30.8152 1.69778 30.4563 0.839126 30.1277C0.796091 31.1248 0.738008 31.9581 0.709344 32.6427C1.58285 33.016 2.79785 34.238 5.02107 36.9795C7.36287 39.87 8.54856 41.3003 9.98713 43.7282C10.8028 45.1134 12.0338 47.1838 13.0883 50.1171C14.4696 53.9736 15.2272 56.1029 14.7131 58.8853C14.5515 59.7334 14.3009 60.4325 14.1093 60.9829C13.7997 61.8308 13.7409 62.0986 13.8595 62.3071C13.9189 62.4262 14.0373 62.4859 14.7331 62.7101C15.2956 62.8895 16.0801 63.1436 17.1462 63.6511C19.0266 64.5317 20.1519 65.0691 20.5678 66.29C20.9987 67.5854 20.3047 68.7006 19.8176 69.5185C19.729 69.6672 19.5961 69.8605 19.5076 70.039C19.6555 70.0392 19.8331 70.0394 19.9663 70.0545C20.7505 70.0705 21.8011 70.0867 23.0594 70.5201C23.7404 70.7591 27.1158 72.0437 27.6224 74.634C27.9204 76.1524 27.0636 77.193 26.3693 78.0404C25.7488 78.7837 25.2171 79.4378 25.2037 80.4647C25.19 81.313 26.05 82.6536 27.6069 85.0518C28.719 86.7649 29.2528 87.599 29.8007 87.8826C30.5854 88.2855 31.34 88.2419 32.1242 88.1983C33.0119 88.14 34.1364 88.082 34.9662 88.9761C35.7071 89.7808 35.5603 90.6438 35.4577 91.3431C35.3843 91.8044 35.311 92.2656 35.3858 92.8759C35.5654 94.3942 36.4545 95.3182 37.4769 96.3763C38.6178 97.5238 39.8773 98.8501 39.9839 101.038C40.0145 101.782 39.9117 102.392 39.8235 102.839C39.8089 102.943 39.7795 103.062 39.7648 103.166C40.0163 103.151 40.4453 103.018 40.7115 102.959C41.6434 102.707 42.9302 102.337 43.9079 103.172C44.7226 103.872 44.6647 104.825 44.6214 105.584C44.5925 106.09 44.5489 106.67 44.6978 107.355C45.0998 109.245 46.7006 111.212 47.8844 111.273C48.4615 111.289 48.9047 110.784 49.599 109.936C50.3819 108.97 51.3716 107.766 53.0141 107.813C55.6924 107.891 57.7687 111.346 58.5556 113.386C58.9566 114.444 59.076 115.218 59.1656 115.843C59.2554 116.528 59.3002 116.84 59.6855 117.287C60.1746 117.868 60.6186 117.988 61.3143 118.153C62.0692 118.347 63.0313 118.572 63.9352 119.54C65.8616 121.597 65.7477 124.96 65.0553 127.206C64.8049 127.995 64.5686 128.381 64.2881 128.813C64.0666 129.155 63.8009 129.571 63.432 130.359C62.7238 131.847 62.5769 132.68 62.4153 133.498C62.2978 134.183 62.1509 134.897 61.723 135.834C60.2772 138.957 56.8037 141.676 53.2683 142.46C52.7062 142.578 52.2032 142.637 51.7446 142.681C50.8865 142.769 50.2799 142.843 49.4076 143.333C48.9345 143.6 47.737 144.387 46.9399 145.815C45.5967 148.239 46.3255 150.993 47.3368 154.804C47.8128 156.621 48.1549 157.916 49.2075 159.391C49.8746 160.359 51.2978 162.355 52.9699 162.402C53.8577 162.433 54.5673 161.898 55.1585 161.453C55.7202 161.037 56.5923 160.398 57.4366 161.039C57.6736 161.218 57.9552 161.561 58.0153 162.186C58.1503 163.511 57.1773 166.158 55.3158 168.329C54.3851 169.384 53.5277 170.008 52.9068 170.454C52.1086 171.018 51.9165 171.182 51.8283 171.598C51.7548 172 51.8735 172.208 52.2738 172.819C52.7038 173.46 53.2821 174.339 53.432 175.768C53.6118 177.405 53.0806 178.565 52.6528 179.502C52.2545 180.409 52.0481 180.915 52.2562 181.63C52.4791 182.359 53.0273 182.821 54.1677 183.671C55.3527 184.566 56.1965 184.82 57.4843 185.194C58.4613 185.493 59.6751 185.852 61.2889 186.583C63.4802 187.598 65.0644 188.33 65.9398 190.102C66.652 191.532 66.773 193.496 66.2422 194.865C65.8883 195.787 65.3414 196.158 64.9569 196.307C64.4245 196.514 63.9361 196.409 63.5363 196.245C63.7149 196.96 64.0566 198.047 64.6801 199.506C65.437 201.219 66.0154 202.157 67.3203 204.183C67.8244 204.987 68.4323 205.926 69.2034 207.147C71.6799 211.124 72.1252 212.137 72.452 213.119C73.0016 214.653 73.0619 215.487 73.1517 216.231C73.2117 216.856 73.2568 217.347 73.6132 218.3C75.0241 222.127 78.2083 224.289 79.245 225.005C80.5632 225.915 82.0142 226.601 83.5241 227.08C86.7928 226.087 89.4564 226.21 91.3964 227.448C92.9366 228.432 93.5895 229.802 94.1534 230.994C94.7173 232.155 95.1476 233.064 96.2728 233.571C97.176 233.974 97.9897 233.901 98.8478 233.813C99.9426 233.695 101.185 233.578 102.282 234.651C103.171 235.515 103.216 236.453 103.247 237.287C103.278 237.882 103.293 238.522 103.649 239.296C104.659 241.53 107.249 242.59 109.529 243.516C110.432 243.89 112.564 244.756 115.479 244.894C116.693 244.955 117.595 244.852 118.379 244.779C119.667 244.646 120.806 244.544 122.02 245.379C123.116 246.124 123.517 247.122 123.814 247.837C124.096 248.507 124.215 248.745 124.54 248.865C124.792 248.969 124.955 248.925 125.65 248.554C126.33 248.198 127.276 247.723 128.697 247.635C130.176 247.548 131.213 247.966 132.042 248.295C132.797 248.608 133.359 248.817 134.158 248.67C134.646 248.566 134.853 248.388 135.237 248.031C135.622 247.675 136.109 247.244 136.923 246.873C138.46 246.19 140.28 246.118 142.293 246.627C142.603 246.136 143.047 245.75 143.564 245.349C144.303 244.755 145.323 243.937 146.519 242.257C146.697 242.019 146.815 241.811 146.903 241.692C147.878 240.205 148.143 239.224 148.496 237.974C148.717 237.185 148.967 236.308 149.425 235.192C149.779 234.329 150.133 233.616 150.472 232.946C151.195 231.504 151.623 230.626 151.429 229.48C151.385 229.227 151.31 229.003 151.31 228.974C150.983 227.931 150.287 227.41 149.695 226.933C149.072 226.455 148.391 225.919 148.405 224.981C148.433 223.82 149.423 223.39 150.651 222.841C151.39 222.515 152.322 222.084 153.49 221.416C154.2 221.001 155.131 220.332 156.993 219.025C159.314 217.376 160.423 216.589 161.28 215.846C161.576 215.579 162.285 214.984 163.276 214.286C163.276 214.286 163.822 213.915 164.355 213.588C165.552 212.86 166.573 212.49 167.475 212.149C168.599 211.734 169.383 211.422 170.166 210.605C170.269 210.501 170.476 210.263 170.698 209.891C171.391 208.776 171.316 207.898 171.256 206.885C171.195 206.052 171.135 205.099 171.563 204.073C172.241 202.496 173.587 202.037 174.755 201.607C175.85 201.221 176.9 200.851 177.786 199.661C178.111 199.215 179.145 197.669 178.935 196.002C178.606 193.323 175.126 191.249 173.053 189.996C171.513 189.071 170.476 188.445 170.992 187.359C171.406 186.467 172.397 186.691 172.915 186.796C173.492 186.931 174.277 187.096 174.987 186.829C175.963 186.443 176.893 185.209 177.261 183.796C177.512 182.859 177.407 182.189 177.214 181.935C177.066 181.757 176.593 181.756 175.853 181.785C174.743 181.828 173.19 181.9 171.797 180.708C171.012 180.037 170.596 179.054 169.78 177.073C169.231 175.718 168.993 174.825 168.784 174.021C168.561 173.172 168.383 172.517 167.923 171.549C167.73 171.147 167.403 170.462 167.106 169.509C167.032 169.256 166.809 168.556 166.66 167.604C165.944 163.257 165.332 159.521 166.895 155.713C167.293 154.716 167.707 154.121 167.973 153.675C168.312 153.155 168.356 153.081 168.326 152.753C168.251 151.964 167.688 151.487 166.77 150.742C165.807 149.981 164.622 149.027 164.487 147.345C164.321 145.306 165.857 143.433 167.202 141.813C167.822 141.07 168.236 140.564 168.916 139.999C169.226 139.747 169.492 139.569 169.758 139.39C170.202 139.093 170.542 138.841 170.941 138.38C170.955 138.365 171.236 138.023 171.487 137.562C172.048 136.581 172.135 135.509 172.237 134.483C172.34 133.426 172.427 132.325 173.032 131.388C173.903 130.005 175.265 129.888 176.345 129.815C177.247 129.742 178.016 129.683 178.77 129.044C180.056 127.99 180.172 126.085 180.317 124.269C180.477 122.26 180.623 120.177 182.427 119.316C183.491 118.782 184.424 119.096 185.09 119.32C185.697 119.514 186.052 119.634 186.555 119.456C188.389 118.833 189.139 115.158 189.859 111.602C190.197 110.01 190.387 108.567 190.593 107.258C191.106 103.672 191.501 100.859 193.985 99.4042C194.148 99.3003 194.281 99.226 194.488 99.137C196.78 98.1728 198.869 99.7681 200.705 101.199C201.964 102.168 203.268 103.182 204.2 102.96C205.679 102.605 207.006 99.2733 206.839 96.3412C206.703 94.0937 205.68 92.2319 204.834 90.7276C204.004 89.2382 203.277 87.9424 204.208 86.9168C204.946 86.0546 205.953 86.3537 206.693 86.5333C207.463 86.7129 208.01 86.8178 208.469 86.5357C208.779 86.3426 208.897 86.0452 209.147 84.9888C209.309 84.3193 209.515 83.4564 209.913 82.4301C210.429 81.136 211.181 79.2172 212.629 77.7606C213.147 77.2405 213.738 76.7948 214.433 76.4534C214.655 76.3495 214.891 76.2606 215.128 76.1716C215.835 73.9402 216.735 72.2895 217.459 71.2338C218.345 69.9253 219.438 68.7064 224.892 63.758C228.424 60.5631 229.414 59.7757 229.191 58.8675C228.715 56.9023 223.433 57.6243 222.305 54.8248C221.666 53.2017 223.174 52.2513 222.595 50.5093C221.911 48.4843 219.351 48.1682 215.147 46.4658C211.712 45.0621 208.707 43.8525 206.262 41.5423C202.143 37.6969 203.9 34.7972 200.523 32.322C197.605 30.2196 195.669 31.8986 187.056 30.8748C181.077 30.1522 178.029 29.7313 175.599 27.4062C173.895 25.7519 173.019 23.3249 171.281 18.4558C169.454 13.3486 169.689 11.8904 167.836 9.81914C167.273 9.16353 164.724 6.27277 160.966 6.3569C155.817 6.43912 152.983 11.9716 152.954 12.0906C152.939 12.1055 152.91 12.0757 152.865 12.031C152.361 11.5243 149.708 8.17199 147.504 8.33267C145.344 8.50829 145.481 11.8869 142.362 14.1001C139.376 16.2093 134.435 16.53 132.345 14.3691C129.53 11.5375 132.881 5.42535 130.896 4.29153C129.401 3.44117 127.585 6.84683 122.867 8.31373C116.552 10.2547 109.83 7.14982 108.556 6.55276C104.574 4.71672 104.142 3.12367 101.953 3.38855C98.5057 3.81541 98.2008 8.02681 93.6609 9.99997C90.2744 11.4687 89.1474 9.68122 85.6566 10.5694C77.9206 12.5381 76.1152 23.2363 73.0663 22.6368L73.1106 22.5625Z" fill="#FFC3B1"/>
</svg>
