<svg width="177" height="157" viewBox="0 0 177 157" fill="none" xmlns="http://www.w3.org/2000/svg">
<path d="M40.0531 137.464C40.6165 138.298 41.2536 138.849 41.9197 139.044C42.5266 139.208 42.9407 139.06 43.6653 138.778C44.3456 138.511 45.1738 138.185 46.2984 138.246C48.1038 138.368 49.0522 139.411 49.8673 140.35C50.5193 141.095 51.1565 141.795 52.2667 142.139C52.9773 142.348 53.2879 142.274 54.8409 141.845C55.8172 141.578 57.1336 141.208 59.1897 140.779C65.299 139.493 66.8829 139.956 67.6976 140.627C69.0012 141.7 69.1216 143.248 69.2269 144.484C69.287 145.198 69.3324 145.928 69.6286 146.077C69.9247 146.226 70.5457 145.87 71.211 145.499C72.3495 144.86 73.9168 143.999 75.8558 144.463C77.0251 144.747 77.7658 145.374 78.3139 145.836C78.862 146.298 79.0249 146.402 79.2764 146.358C79.5575 146.314 79.7347 146.106 80.0891 145.541C80.4878 144.931 81.0341 144.083 82.1433 143.713C84.6428 142.868 87.9011 145.075 89.4878 147.622C90.6741 149.529 90.7506 151.33 90.8264 152.654C90.8717 153.384 90.8875 154.083 91.1096 154.217C91.2281 154.307 92.4718 154.904 97.6006 150.729C99.3298 149.228 101.207 147.936 103.203 146.882C105.436 145.709 106.782 145.012 108.646 144.895C110.806 144.779 112.05 145.555 113.146 146.241C114.034 146.778 114.79 147.27 116.092 147.361C117.942 147.498 119.228 146.681 120.485 145.923C121.889 145.047 123.338 144.156 125.248 144.829C126.669 145.337 127.603 146.901 129.664 150.312C130.465 151.652 131.014 152.68 131.429 153.484C132.201 154.944 132.498 155.509 133.327 156.017C134.778 156.912 136.717 157.078 137.544 156.395C137.87 156.127 137.914 155.844 138.001 154.803C138.059 154.148 138.103 153.329 138.338 152.348C139 149.684 140.906 147.678 144.733 143.68C147.807 140.469 149.343 138.864 151.059 138.36C151.725 138.168 152.316 137.99 159.464 138.61L160.307 138.686C163.43 138.973 164.184 139.018 164.731 138.558C164.997 138.35 165.042 138.246 165.351 137.13C165.542 136.46 165.807 135.568 166.279 134.259C166.633 133.247 166.943 132.459 167.178 131.864C167.296 131.566 167.414 131.269 167.503 131.031C167.311 131.075 167.133 131.135 166.941 131.179C165.817 131.505 164.101 131.979 162.295 131.262C160.503 130.53 159.081 128.832 158.649 126.911C158.232 125.006 158.911 123.459 159.147 122.953C160.577 119.636 163.949 118.301 165.576 117.649C168.179 116.611 170.028 116.509 171.537 116.422C173.002 116.349 173.89 116.291 174.85 115.414C176.712 113.661 176.664 110.937 176.649 110.624C176.527 107.797 174.542 106.067 173.949 105.59L172.127 104.174C169.225 102.563 166.47 100.743 163.923 98.7455C158.338 94.3474 157.892 92.4418 158.186 91.1326C158.583 89.3323 160.387 88.7097 162.118 88.0721C163.759 87.4939 165.431 86.886 166.05 85.3986C166.625 84.0153 166.179 82.1097 164.815 80.0541C162.739 76.9556 158.312 75.2082 155.858 76.5443C155.163 76.9154 154.853 77.4657 154.484 78.0754C154.041 78.8486 153.48 79.8003 152.149 80.0961C150.67 80.4215 149.707 79.6315 148.67 78.7966C147.825 78.1257 146.774 77.276 145.042 76.5741C143.961 76.141 143.102 75.9315 142.333 75.7518C141.075 75.4673 139.905 75.1829 139.326 73.9171C138.985 73.1576 139.059 72.7559 139.631 69.4676L139.719 68.932C140.042 67.077 140.213 66.1099 140.233 66.0305C140.926 64.1116 142.36 63.4141 143.75 62.7314C144.844 62.1971 145.894 61.7075 147.15 60.4739C147.283 60.3402 150.445 57.0703 149.908 53.7061C149.804 53.0065 149.596 52.6788 149.211 52.0829C148.84 51.502 148.38 50.7721 147.875 49.4915C147.653 48.9108 146.494 45.8136 146.653 42.5247C146.696 41.4979 146.797 39.6079 151.55 31.4885C152.037 30.6409 152.495 29.8825 152.908 29.2282C153.587 28.098 154.252 27.0125 154.576 26.3284C154.207 26.432 153.733 26.5505 153.23 26.6986C152.683 26.8616 152.018 27.0541 151.204 27.2762C147.358 28.3425 145.761 28.757 144.518 28.6362C141.573 28.3494 139.632 26.3674 137.572 24.2958C136.372 23.0887 133.898 20.5999 132.886 16.6992C132.544 15.3742 132.543 14.6003 132.557 13.8413C132.571 13.1418 132.57 12.4275 132.287 11.0728C131.751 8.63125 131.274 6.33868 129.645 5.17559C127.053 3.31169 122.601 4.92778 121.3 5.46177C119.939 6.02544 119.082 6.64932 118.343 7.18408C117.338 7.92684 116.377 8.62501 114.853 8.39968C112.233 8.02401 109.817 5.20786 109.562 2.24585C109.562 2.15655 109.562 2.09706 109.561 2.00777C106.452 0.693818 104.232 0.393085 103.257 1.22517C102.548 1.81951 102.549 2.86131 102.477 4.09647C102.42 5.64419 102.348 7.5937 100.782 8.90122C99.6879 9.85221 98.6225 9.821 97.1576 9.77434C96.1514 9.74319 94.7752 9.69664 92.7631 9.90224C89.2273 10.2992 86.6539 11.1886 85.2636 11.663C82.5423 12.6117 80.2356 13.7694 79.1269 14.5269C79.1862 14.5865 79.275 14.6462 79.3343 14.7058C80.0603 15.4361 80.3432 16.7015 80.0938 18.2936C79.7563 20.3916 78.4577 22.9793 76.2988 24.0181C74.9532 24.6562 73.9171 24.387 72.8366 24.1027C72.0372 23.8932 71.1491 23.6539 69.8026 23.6372C69.5659 23.6369 63.7359 23.5991 61.6094 26.7215C60.8858 27.7772 60.961 28.6554 61.081 29.8461C61.2011 31.156 61.3661 32.7784 60.3479 34.8457C59.3593 36.8535 58.0287 37.6851 56.8608 38.4128C55.7668 39.0959 54.8353 39.675 54.0532 41.1771C53.4186 42.4115 53.464 43.1408 53.5248 44.3315C53.6003 45.4776 53.6763 46.9213 53.191 49.1679C52.7353 51.355 50.8363 58.5705 45.7777 59.9328C44.2246 60.3622 42.937 60.0777 40.9832 59.6583C38.2598 59.0593 36.7049 58.0897 35.5793 57.3738C34.6167 56.7623 34.1429 56.4938 33.5215 56.5822C32.5452 56.7297 31.999 57.6963 31.1431 59.362C30.3314 60.9534 29.3279 62.9462 27.3028 64.4466C24.8342 66.2738 21.5058 66.8794 17.3915 66.2487C18.047 69.5535 17.7697 72.366 16.5447 74.6413C15.6592 76.307 14.5801 77.0943 13.5305 77.8519C12.4662 78.6243 11.3723 79.4265 10.2357 81.3745C9.71896 82.2519 9.3502 83.0997 9.0405 83.8583C8.36199 85.4349 7.713 86.9521 6.05629 87.3368C4.93211 87.6031 4.02892 87.1702 3.42188 86.8866C3.34783 86.8419 3.25904 86.812 3.15541 86.7672C3.17075 87.1691 3.30489 87.8985 3.39444 88.4642C3.67778 90.0868 4.10986 92.3049 3.6694 94.8343C3.27327 97.3192 2.25449 98.9103 1.44243 100.204C0.615592 101.512 0.276088 102.122 0.558337 102.941C1.01883 104.266 2.83985 105.028 5.13461 105.969C6.83718 106.67 8.599 107.402 10.522 106.988C11.4835 106.766 12.06 106.365 12.6217 105.979C13.3165 105.489 14.1001 104.969 15.225 105.268C16.7348 105.687 17.3139 107.191 17.7891 108.412C17.9673 108.888 18.3236 109.752 18.5309 109.842C18.5457 109.827 18.7525 109.619 18.9003 109.47C19.3584 109.009 19.979 108.385 21.0439 108.059C23.5731 107.274 26.8744 108.573 27.854 110.747C28.5367 112.296 27.8579 113.605 27.238 114.765C26.692 115.821 26.1754 116.787 26.3991 118.083C26.7569 120.048 28.5938 121.628 30.1632 122.285C31.5696 122.867 32.6643 122.66 33.8181 122.453C34.898 122.261 36.0075 122.04 37.192 122.607C40.0052 123.95 40.8698 128.654 39.9494 137.3L40.0531 137.464Z" fill="#FFC3B1"/>
</svg>
