<svg width="20" height="20" viewBox="0 0 20 20" fill="none" xmlns="http://www.w3.org/2000/svg">
<path d="M1.0123 6.56166C0.986065 6.19507 1.0018 5.82323 1.05951 5.46187C1.20641 4.52966 1.52643 3.70219 2.12975 3.04755C2.82226 2.29864 3.31541 2.19914 4.05514 2.05774C4.11285 2.04726 4.17581 2.03679 4.23351 2.02631C4.73716 1.91633 4.9575 2.01584 5.21982 2.47147C5.83363 3.52937 6.45269 4.5925 7.07175 5.6504C7.28685 6.017 7.25537 6.32599 6.90912 6.65593C6.41597 7.12204 5.90708 7.56719 5.3877 8.00711C5.02046 8.3161 4.95226 8.52559 5.15686 8.94456C5.8756 10.4319 6.79895 11.7778 8.04232 12.8776C9.01288 13.7365 10.1094 14.4069 11.295 14.9306C11.5416 15.0406 11.72 14.9149 11.8669 14.7578C12.1711 14.4383 12.4544 14.0926 12.7535 13.7679C13.0053 13.4956 13.2519 13.2181 13.5247 12.9667C13.7608 12.7467 14.0231 12.7519 14.3169 12.9195C15.3714 13.527 16.4206 14.145 17.4856 14.7368C17.8739 14.9515 18.0942 15.2029 18.0103 15.6795C17.9998 15.7528 17.984 15.8209 17.9735 15.889C17.8161 16.8317 17.2758 17.6696 16.4783 18.1986C16.4731 18.1986 16.4731 18.2038 16.4678 18.2038C15.7071 18.7066 14.8467 19.026 13.9339 18.9946C13.3306 18.9736 12.7115 18.8427 12.1397 18.6489C11.4052 18.4447 10.6235 18.1462 9.25945 17.502C8.42005 17.1249 7.68032 16.5698 6.99306 15.9623C6.31104 15.3653 5.62903 14.7682 5.00472 14.1188C4.95226 14.0612 4.89455 14.0036 4.84208 13.946C3.37837 12.3696 2.27665 10.4895 1.57889 8.45227C1.41626 7.97569 1.25887 7.49387 1.09624 7.01206C1.04377 6.86018 1.02279 6.69783 1.0123 6.56166Z" fill="white"/>
<path d="M19.0025 10.9453C18.9972 11.1967 18.8818 11.3328 18.6877 11.3695C18.4621 11.4114 18.3047 11.2909 18.226 11.0814C18.0581 10.6206 17.9008 10.1545 17.7171 9.70408C17.224 8.4786 16.5472 7.35785 15.7393 6.31566C14.5589 4.79166 13.1161 3.56617 11.3954 2.70205C10.6451 2.32497 9.82672 2.08407 9.03453 1.80126C8.75124 1.69652 8.61483 1.55512 8.66729 1.2985C8.71451 1.0733 8.9401 0.947609 9.2234 1.02093C10.7868 1.4399 12.2295 2.1312 13.5411 3.07912C14.3333 3.64997 15.0415 4.32032 15.7026 5.03257C16.4265 5.81814 17.0456 6.68226 17.5755 7.60923C18.1526 8.61476 18.6195 9.66742 18.9553 10.7777C18.9762 10.8458 18.992 10.9139 19.0025 10.9453Z" fill="white"/>
<path d="M16.0705 10.8035C15.8501 10.8245 15.7452 10.704 15.6822 10.505C15.3045 9.36853 14.7799 8.30539 14.0297 7.36271C13.0276 6.1058 11.8105 5.13693 10.2838 4.57132C10.0267 4.47705 9.75919 4.3985 9.49687 4.30947C9.27653 4.23615 9.15586 4.03714 9.21357 3.85384C9.28702 3.61817 9.50212 3.50295 9.7382 3.56579C11.1022 3.92192 12.2984 4.5818 13.3581 5.50877C14.8481 6.80234 15.8186 8.41014 16.422 10.2693C16.5216 10.5678 16.3643 10.7983 16.0705 10.8035Z" fill="white"/>
<path d="M13.808 9.71408C13.8027 9.94975 13.7083 10.0807 13.5142 10.1173C13.2729 10.1645 13.1207 10.0493 13.021 9.8293C12.8479 9.44699 12.7063 9.04373 12.4807 8.68761C11.956 7.84967 11.2058 7.28406 10.2615 6.98554C9.94672 6.88604 9.81032 6.6975 9.88901 6.4723C9.97295 6.2314 10.1985 6.1476 10.5133 6.24711C12.1921 6.77082 13.2047 7.95965 13.7765 9.56744C13.8027 9.61982 13.8027 9.68266 13.808 9.71408Z" fill="white"/>
</svg>
