<svg width="112" height="24" viewBox="0 0 112 24" fill="none" xmlns="http://www.w3.org/2000/svg">
<g clip-path="url(#clip0_228_8507)">
<path d="M2.38251 11.8858C2.28536 7.05142 9.86776 7.05142 9.77061 11.837C9.80769 12.7593 9.47874 13.6585 8.85608 14.3372C8.23341 15.0159 7.36798 15.4184 6.45003 15.4562C6.32606 15.4612 6.20192 15.4593 6.07815 15.4506C4.18216 15.4506 2.33553 14.2794 2.3841 11.8858H2.38251ZM1.79882 7.53942C1.22426 8.0962 0.76848 8.76462 0.459229 9.504C0.149978 10.2434 -0.00627747 11.0382 -2.77194e-05 11.8402V22.825C-0.0486022 24.3882 2.43029 24.3394 2.38251 22.825V16.7202C6.17371 19.8466 12.3474 16.8178 12.1531 11.8362C12.2989 8.22262 9.04119 5.68262 5.88226 5.68262C4.33342 5.74788 2.87005 6.41371 1.79962 7.54022" fill="#E85022"/>
<path d="M13.9536 1.22405V17.096C13.9523 17.3398 14.023 17.5785 14.1568 17.7819C14.2906 17.9852 14.4815 18.1441 14.7053 18.2384C14.9291 18.3326 15.1757 18.358 15.4139 18.3113C15.652 18.2646 15.871 18.1479 16.0431 17.976C16.1609 17.8637 16.2525 17.7265 16.3113 17.5743C16.3701 17.4222 16.3946 17.2589 16.3832 17.096V1.22405C16.3928 0.922624 16.283 0.62966 16.0779 0.409476C15.8728 0.189291 15.589 0.0598793 15.289 0.0496509C15.2495 0.0472518 15.2099 0.0472518 15.1704 0.0496509C14.8625 0.0359781 14.5618 0.14568 14.3344 0.354647C14.107 0.563613 13.9715 0.854743 13.9576 1.16405C13.9576 1.18325 13.9576 1.20245 13.9576 1.22165" fill="#E85022"/>
<path d="M27.4063 11.9998C27.4548 13.9046 26.2914 15.7598 23.9025 15.711C23.4091 15.7527 22.9125 15.685 22.4481 15.5125C21.9836 15.3401 21.5625 15.0672 21.2147 14.7131C20.8669 14.359 20.6008 13.9324 20.4353 13.4635C20.2698 12.9946 20.209 12.4949 20.2571 11.9998C20.2389 11.5307 20.313 11.0626 20.4749 10.6223C20.6369 10.1819 20.8836 9.77793 21.2009 9.43338C21.5183 9.08883 21.9001 8.81046 22.3246 8.61417C22.7491 8.41788 23.2079 8.30752 23.6748 8.28938C23.7544 8.28938 23.8269 8.28938 23.9025 8.28938C24.3578 8.28367 24.8098 8.36812 25.2326 8.53792C25.6555 8.70771 26.0409 8.95952 26.3668 9.27896C26.6928 9.5984 26.9529 9.97922 27.1323 10.3997C27.3118 10.8201 27.407 11.2719 27.4126 11.7294C27.4126 11.8198 27.4126 11.9102 27.4063 11.9998ZM19.5316 7.70458C14.1844 12.979 21.6211 21.3846 27.5034 16.8854C27.552 18.3998 29.9345 18.4974 29.886 16.8854V12.0966C30.0803 8.43418 26.9213 5.94298 23.7122 5.94298C22.9296 5.91077 22.1495 6.05171 21.4271 6.35584C20.7047 6.65997 20.0576 7.11986 19.5316 7.70298" fill="#E85022"/>
<path d="M31.1069 9.55743C31.0758 10.0066 31.133 10.4574 31.2754 10.8843C31.4178 11.3112 31.6425 11.7057 31.9366 12.0454C32.2308 12.385 32.5886 12.6632 32.9898 12.8638C33.3909 13.0645 33.8275 13.1839 34.2746 13.215C34.4012 13.2237 34.5283 13.2256 34.6552 13.2206C37.3777 13.611 34.9466 17.3718 33.4408 14.9806C31.642 12.2462 29.8431 15.6646 32.3714 17.3254C35.8226 20.2558 40.4403 14.9318 37.2328 11.8558C36.3091 10.6838 34.8503 11.123 33.7816 10.3902C32.3714 9.02223 35.0932 7.26463 35.7724 8.92463C37.9598 12.2462 40.0509 6.14143 34.6576 5.84863H34.5596C34.0945 5.86005 33.6361 5.96341 33.2107 6.1528C32.7854 6.34219 32.4013 6.61391 32.0804 6.95245C31.7596 7.29098 31.5082 7.68969 31.3408 8.12581C31.1733 8.56194 31.093 9.02693 31.1045 9.49423V9.55823" fill="#E85022"/>
<path d="M43.3904 0.0043175C41.3001 -0.0932825 42.4666 4.98592 42.2238 6.10912H41.6887C40.6678 6.05952 39.2575 6.01072 39.2575 7.32912C39.209 8.64672 40.667 8.59792 41.6879 8.54912H42.1744V17.1451C42.1513 17.4625 42.2546 17.7762 42.4617 18.017C42.6687 18.2579 42.9625 18.4063 43.2785 18.4295C43.5944 18.4528 43.9066 18.3489 44.1464 18.1409C44.3861 17.9329 44.5338 17.6377 44.5569 17.3203C44.5609 17.262 44.5609 17.2034 44.5569 17.1451V8.50032H46.2586C46.4074 8.5049 46.5556 8.47997 46.6948 8.42695C46.834 8.37393 46.9614 8.29386 47.0698 8.19132C47.1781 8.08878 47.2653 7.96579 47.3263 7.82937C47.3873 7.69296 47.4209 7.5458 47.4252 7.39632C47.4276 7.35876 47.4276 7.32108 47.4252 7.28352C47.4364 7.13434 47.4183 6.9844 47.3718 6.84227C47.3253 6.70014 47.2514 6.5686 47.1543 6.45517C47.0572 6.34173 46.9388 6.24862 46.8059 6.18114C46.673 6.11367 46.5282 6.07316 46.3797 6.06192C46.3396 6.05952 46.2995 6.05952 46.2594 6.06192H44.5569C44.3141 5.03392 45.4806 0.0043175 43.4875 0.0043175H43.3904Z" fill="#E85022"/>
<path d="M48.654 7.28008C48.7511 7.57288 48.314 18.2193 48.994 17.9753C49.164 18.1428 49.3797 18.2558 49.6138 18.2999C49.8478 18.344 50.0897 18.3172 50.3085 18.2229C50.5273 18.1286 50.7133 17.971 50.8428 17.7702C50.9723 17.5694 51.0395 17.3345 51.0357 17.0953V7.28008C51.045 6.9781 50.9345 6.68479 50.7286 6.46458C50.5227 6.24438 50.2382 6.11529 49.9376 6.10568C49.8986 6.10328 49.8596 6.10328 49.8206 6.10568C49.6697 6.10314 49.5198 6.13053 49.3794 6.18627C49.2391 6.24202 49.1111 6.32503 49.0027 6.43055C48.8944 6.53607 48.8078 6.66203 48.7479 6.80122C48.6881 6.94041 48.6562 7.09008 48.654 7.24168V7.28008ZM49.9177 1.22408C49.6172 1.21459 49.3253 1.3254 49.106 1.53212C48.8868 1.73885 48.7583 2.02458 48.7488 2.32648C48.7488 2.36541 48.7488 2.40461 48.7488 2.44408C48.7379 2.59334 48.7565 2.74328 48.8034 2.88533C48.8503 3.02738 48.9246 3.15875 49.022 3.27191C49.1195 3.38508 49.2383 3.47782 49.3715 3.54484C49.5047 3.61186 49.6497 3.65183 49.7983 3.66248C49.8373 3.66488 49.8764 3.66488 49.9153 3.66248C50.0609 3.67069 50.2066 3.65001 50.3441 3.60161C50.4817 3.55322 50.6084 3.47806 50.7171 3.38043C50.8257 3.28281 50.9141 3.16463 50.9773 3.03265C51.0404 2.90068 51.0771 2.75749 51.0851 2.61128C51.0895 2.55483 51.0895 2.49813 51.0851 2.44168C51.0904 2.12477 50.9708 1.8186 50.7522 1.59002C50.5336 1.36145 50.2339 1.22903 49.9185 1.22168" fill="#E85022"/>
<path d="M52.9055 1.22405V17.0961C52.904 17.34 52.9747 17.5789 53.1085 17.7824C53.2424 17.986 53.4334 18.1449 53.6574 18.2392C53.8813 18.3335 54.1281 18.3588 54.3664 18.312C54.6047 18.2651 54.8238 18.1482 54.9958 17.9761C55.1135 17.8636 55.205 17.7264 55.2638 17.5743C55.3226 17.4221 55.3472 17.2588 55.3359 17.0961V1.22405C55.3406 1.07454 55.316 0.925539 55.2635 0.78558C55.2109 0.645621 55.1314 0.517443 55.0295 0.408375C54.9276 0.299306 54.8053 0.211486 54.6695 0.149934C54.5338 0.0883813 54.3874 0.0543043 54.2386 0.0496509C54.199 0.0472518 54.1594 0.0472518 54.1199 0.0496509C53.812 0.0359781 53.5113 0.14568 53.2839 0.354647C53.0565 0.563613 52.921 0.854743 52.9071 1.16405C52.9071 1.18325 52.9071 1.20245 52.9071 1.22165" fill="#E85022"/>
<path d="M57.1077 7.27993V17.0959C57.1062 17.2549 57.136 17.4126 57.1952 17.56C57.2545 17.7075 57.3421 17.8417 57.453 17.9551C57.564 18.0685 57.6961 18.1588 57.8418 18.2208C57.9875 18.2829 58.1439 18.3155 58.3022 18.3167H58.3253C58.6337 18.3178 58.9299 18.1958 59.1488 17.9775C59.3677 17.7592 59.4914 17.4626 59.4926 17.1527C59.4926 17.1335 59.4926 17.1151 59.4926 17.0959V7.27993C59.5021 6.97802 59.3918 6.68471 59.186 6.46448C58.9802 6.24425 58.6958 6.11514 58.3953 6.10553C58.3564 6.10313 58.3173 6.10313 58.2783 6.10553C58.1312 6.09931 57.9843 6.12227 57.846 6.17311C57.7078 6.22395 57.5809 6.30167 57.4725 6.40183C57.3642 6.50198 57.2765 6.6226 57.2146 6.7568C57.1527 6.891 57.1177 7.03614 57.1117 7.18393C57.1101 7.21511 57.1101 7.24635 57.1117 7.27753L57.1077 7.27993ZM58.3268 1.22153C58.178 1.21673 58.0297 1.24144 57.8904 1.29425C57.7511 1.34707 57.6235 1.42695 57.515 1.52933C57.4064 1.63171 57.319 1.75459 57.2577 1.89093C57.1964 2.02727 57.1625 2.17441 57.1579 2.32393C57.1555 2.36309 57.1555 2.40237 57.1579 2.44153C57.147 2.59073 57.1656 2.74061 57.2124 2.88261C57.2593 3.02461 57.3335 3.15594 57.4309 3.2691C57.5283 3.38225 57.6469 3.47501 57.78 3.54207C57.9131 3.60913 58.0581 3.64918 58.2066 3.65993C58.2459 3.66233 58.2852 3.66233 58.3245 3.65993C58.6183 3.6763 58.9066 3.57476 59.126 3.37764C59.3453 3.18051 59.4778 2.90394 59.4942 2.60873C59.4973 2.55218 59.4959 2.49547 59.4902 2.43913C59.501 2.29 59.4824 2.1402 59.4355 1.99829C59.3886 1.85638 59.3143 1.72515 59.2169 1.61208C59.1195 1.49901 59.0009 1.40632 58.8679 1.33931C58.7348 1.2723 58.59 1.23228 58.4415 1.22153C58.4025 1.21913 58.3634 1.21913 58.3245 1.22153" fill="#E85022"/>
<path d="M61.1067 16.8871C61.0581 18.4503 63.5864 18.4503 63.4893 16.8871V11.9999C63.3921 7.16553 70.9745 7.21433 70.8782 11.9999V16.8847C70.9015 17.186 71.037 17.4674 71.2578 17.6726C71.4786 17.8778 71.7683 17.9918 72.069 17.9918C72.3698 17.9918 72.6595 17.8778 72.8803 17.6726C73.1011 17.4674 73.2366 17.186 73.2599 16.8847C73.5514 12.0991 73.4988 6.04313 67.1348 5.84473C60.9124 6.03993 60.8639 12.0471 61.1067 16.8847" fill="#E85022"/>
<path d="M94.2186 17.0964C94.3158 18.7084 91.8847 18.6108 91.8361 17.0964C85.9538 21.638 78.5156 13.19 83.8643 7.91562C87.4612 4.00842 94.4615 6.89002 94.2162 12.262V17.0964H94.2186ZM88.2392 15.9244C92.9541 16.0708 92.9055 8.45322 88.2392 8.55002C83.4757 8.40442 83.2806 16.07 88.2392 15.9244Z" fill="#E85022"/>
<path d="M98.3027 17.0958C98.2794 17.397 98.1439 17.6784 97.9231 17.8836C97.7023 18.0889 97.4126 18.2029 97.1118 18.2029C96.8111 18.2029 96.5213 18.0889 96.3006 17.8836C96.0798 17.6784 95.9443 17.397 95.921 17.0958V12.2158C95.143 8.84137 101.998 3.51977 103.26 7.27977C103.256 7.60179 103.126 7.90924 102.899 8.13697C102.673 8.3647 102.367 8.49482 102.046 8.49977C97.5247 8.40297 98.3513 14.1654 98.3035 17.0958" fill="#E85022"/>
<path d="M110.893 6.10734C111.192 6.13073 111.472 6.26693 111.677 6.48872C111.881 6.71051 111.995 7.00156 111.995 7.30374C111.995 7.60593 111.881 7.89698 111.677 8.11877C111.472 8.34056 111.192 8.47676 110.893 8.50014H109.191V17.0961C109.187 17.4184 109.058 17.7264 108.832 17.9549C108.605 18.1833 108.3 18.3143 107.979 18.3201C107.663 18.3128 107.363 18.1803 107.145 17.9515C106.926 17.7228 106.807 17.4164 106.812 17.0993V8.50014C105.84 8.50014 103.847 8.79294 103.895 7.28014C103.847 5.76574 105.886 6.10814 106.812 6.10814C107.103 4.98814 105.886 -0.0942567 107.979 0.00014327C110.068 -0.146257 108.903 4.98174 109.193 6.10494L110.893 6.10734Z" fill="#E85022"/>
</g>
<defs>
<clipPath id="clip0_228_8507">
<rect width="112" height="24" fill="white"/>
</clipPath>
</defs>
</svg>
