<svg width="20" height="20" viewBox="0 0 20 20" fill="none" xmlns="http://www.w3.org/2000/svg">
<g id="ico/white geo">
<g id="Group">
<path id="Vector" d="M10.0271 9.68724C11.1854 9.68724 12.1244 8.75558 12.1244 7.60632C12.1244 6.45705 11.1854 5.52539 10.0271 5.52539C8.86872 5.52539 7.92969 6.45705 7.92969 7.60632C7.92969 8.75558 8.86872 9.68724 10.0271 9.68724Z" fill="white"/>
<path id="Vector_2" d="M10.0262 1C6.14607 1 3 4.12139 3 7.9711C3 11.1965 8.08614 17.1272 9.60674 18.7919C9.81648 19.052 10.1835 19.052 10.4457 18.7919C11.9139 17.1272 17 11.1965 17 7.9711C17 4.12139 13.8539 1 10.0262 1ZM10.0262 11.0405C8.13858 11.0405 6.56554 9.47977 6.56554 7.60694C6.56554 5.7341 8.13858 4.17341 10.0262 4.17341C11.9139 4.17341 13.4869 5.7341 13.4869 7.60694C13.4869 9.53179 11.9139 11.0405 10.0262 11.0405Z" fill="white"/>
</g>
</g>
</svg>
