<svg width="197" height="47" viewBox="0 0 197 47" fill="none" xmlns="http://www.w3.org/2000/svg">
<path fill-rule="evenodd" clip-rule="evenodd" d="M7.91736 23.7918L30.6185 45.9427H30.6209V39.6862L14.6247 23.3561L17.7874 20.2465V14.0908L7.91736 23.7918Z" fill="white"/>
<path fill-rule="evenodd" clip-rule="evenodd" d="M7.14148 23.0311L29.7729 0H24.0258L6.6166 16.8611L4.55359 14.7386V20.5053L7.14148 23.0311Z" fill="#E85022"/>
<path d="M37.1781 45.7882V32.0552C38.3037 31.8759 39.5888 31.7862 41.0334 31.7862C43.4346 31.7862 45.1514 32.1448 46.1832 32.8618C47.2714 33.5648 47.8154 34.5852 47.8154 35.9227C47.8154 37.3291 47.2806 38.446 46.2114 39.2732C45.6484 39.7144 44.9448 40.0487 44.1007 40.2764C43.2565 40.5038 42.4216 40.6175 41.5961 40.6175C41.2771 40.6175 41.0334 40.6107 40.8643 40.5968V45.7882H37.1781ZM40.8643 34.0821V38.4047C40.9959 38.4183 41.2022 38.4253 41.4837 38.4253C42.3653 38.4253 43.0314 38.2183 43.4816 37.8048C43.9319 37.3911 44.157 36.8396 44.157 36.1504C44.157 35.5021 43.9601 34.9784 43.5659 34.5785C43.172 34.1786 42.5718 33.9786 41.7649 33.9786C41.4084 33.9786 41.1084 34.0131 40.8643 34.0821ZM57.3594 37.4117V39.6663H53.0538V43.4303H57.9221V45.7882H49.3672V31.8484H57.6127V34.206H53.0538V37.4117H57.3594ZM59.7838 31.8484H63.4137V43.4303H66.4813V31.8484H70.1115V43.4303H73.1788V31.8484H76.809V45.7882H59.7838V31.8484ZM87.3659 37.4117V39.6663H83.0606V43.4303H87.9289V45.7882H79.374V31.8484H87.6192V34.206H83.0606V37.4117H87.3659ZM89.7903 31.8484H93.4769V37.4326H97.3322V31.8484H101.019V45.7882H97.3322V39.9557H93.4769V45.7882H89.7903V31.8484ZM103.612 31.8484H106.876V34.93C106.876 36.6948 106.754 38.832 106.51 41.3415H106.566C107.017 40.3488 107.701 38.9836 108.621 37.2463L111.407 31.8484H114.756V45.7882H111.519V42.6444C111.519 40.5761 111.604 38.4872 111.773 36.3777H111.716C111.36 37.3565 110.722 38.7217 109.803 40.4729L107.017 45.7882H103.612V31.8484ZM119.797 45.7882H115.914C116.195 45.3054 116.429 44.8091 116.617 44.2992C116.711 44.037 116.838 43.5579 116.997 42.8616C117.157 42.1653 117.349 41.5688 117.574 41.0725C117.799 40.5762 118.118 40.1695 118.531 39.8525C118.906 39.5767 119.356 39.3697 119.882 39.2319V39.1907C118.868 38.9701 118.071 38.5735 117.489 38.0014C116.908 37.429 116.617 36.7154 116.617 35.8608C116.617 34.5369 117.208 33.5235 118.39 32.8205C119.553 32.131 121.157 31.7862 123.202 31.7862C124.628 31.7862 125.969 31.8759 127.226 32.0552V45.7882H123.54V40.2246H123.146C122.47 40.2246 121.954 40.3901 121.598 40.721C121.354 40.9554 121.157 41.2968 121.007 41.7448C120.857 42.1927 120.721 42.7307 120.599 43.3579C120.477 43.9852 120.388 44.3885 120.332 44.5678C120.2 45.0229 120.022 45.4296 119.797 45.7882ZM123.54 38.1151V33.958C123.352 33.9167 123.108 33.8957 122.808 33.8957C122.001 33.8957 121.392 34.0957 120.979 34.4956C120.566 34.8955 120.36 35.385 120.36 35.964C120.36 36.6257 120.599 37.1532 121.078 37.5464C121.556 37.9392 122.199 38.1357 123.005 38.1357C123.23 38.1357 123.408 38.1289 123.54 38.1151ZM38.7772 11.6879H49.007V25.628H45.1888V14.0457H42.3037V17.7272C42.3037 19.6438 42.1237 21.2087 41.7645 22.4222C41.405 23.6355 40.6618 24.5524 39.5349 25.1729C38.7382 25.628 37.8541 25.8553 36.8826 25.8553L36.0667 23.5597C36.5912 23.4633 37.0285 23.3046 37.3781 23.0841C37.9222 22.6841 38.2913 22.0981 38.4855 21.326C38.6799 20.554 38.7772 19.4371 38.7772 17.9755V11.6879ZM57.2303 11.5225C58.3571 11.5225 59.3335 11.7261 60.1594 12.1328C60.985 12.5394 61.6167 13.091 62.0537 13.7873C62.4909 14.4836 62.8068 15.2144 63.0009 15.9797C63.1954 16.745 63.2923 17.5549 63.2923 18.4099C63.2923 20.9329 62.7241 22.7944 61.5876 23.9941C60.4508 25.1936 58.9012 25.7934 56.9389 25.7934C55.5203 25.7934 54.3302 25.452 53.3684 24.7696C52.4069 24.0872 51.7265 23.2254 51.3283 22.1844C50.9301 21.1433 50.731 19.9541 50.731 18.6167C50.731 16.5897 51.2942 14.9007 52.4214 13.5494C53.5483 12.1981 55.1512 11.5225 57.2303 11.5225ZM57.0553 13.8803C56.2975 13.8803 55.7147 14.3008 55.3066 15.1419C54.8988 15.983 54.6947 17.1551 54.6947 18.6579C54.6947 21.843 55.4912 23.4356 57.0844 23.4356C58.5807 23.4356 59.3286 21.8017 59.3286 18.5337C59.3286 15.4315 58.5708 13.8803 57.0553 13.8803ZM65.0162 11.6879H74.0514V14.0457H68.8344V25.628H65.0162V11.6879ZM75.3963 11.6879H78.7772V14.7697C78.7772 16.5345 78.6509 18.6718 78.3982 21.1813H78.4568C78.9228 20.1886 79.6322 18.8234 80.5841 17.0861L83.4696 11.6879H86.9379V25.628H83.5861V22.4842C83.5861 20.4159 83.6737 18.327 83.8484 16.2175H83.7901C83.421 17.1963 82.7605 18.5615 81.8083 20.3124L78.9228 25.628H75.3963V11.6879ZM98.6876 23.146L99.0667 25.4209C98.4058 25.6418 97.4248 25.7521 96.123 25.7521C93.6942 25.7521 91.8483 25.1212 90.5852 23.8595C89.3223 22.5979 88.6909 20.9329 88.6909 18.8646C88.6909 17.6101 88.9192 16.4966 89.3759 15.5246C89.8324 14.5525 90.4492 13.7872 91.2265 13.229C92.0038 12.6704 92.8489 12.2532 93.7621 11.9775C94.6753 11.7018 95.6275 11.564 96.6184 11.564C97.8812 11.564 98.7654 11.6879 99.2704 11.9362L98.6294 14.2112C98.0853 14.0319 97.4926 13.9425 96.8516 13.9425C95.6662 13.9425 94.6852 14.3353 93.9079 15.1213C93.1307 15.9072 92.742 17.1067 92.742 18.7199C92.742 20.3056 93.1161 21.4742 93.8643 22.2257C94.6121 22.9771 95.608 23.3527 96.8516 23.3527C97.4539 23.3527 98.0658 23.284 98.6876 23.146ZM103.384 25.628V14.1906H99.9161V11.6879H110.7V14.1906H107.202V25.628H103.384ZM112.016 11.6879H115.397V14.7697C115.397 16.5345 115.27 18.6718 115.018 21.1813H115.076C115.542 20.1886 116.251 18.8234 117.204 17.0861L120.089 11.6879H123.557V25.628H120.206V22.4842C120.206 20.4159 120.293 18.327 120.468 16.2175H120.41C120.04 17.1963 119.38 18.5615 118.428 20.3124L115.542 25.628H112.016V11.6879ZM125.806 11.6879H129.595V16.4036C129.595 17.6998 130.304 18.3477 131.722 18.3477C132.383 18.3477 132.898 18.2512 133.267 18.0581V11.6879H137.056V25.7934H133.296V20.147H133.179C132.286 20.4643 131.372 20.6227 130.44 20.6227C127.35 20.6227 125.806 19.3197 125.806 16.7139V11.6879ZM148.019 17.2515V19.5058H143.559V23.2701H148.601V25.628H139.742V11.6879H148.281V14.0457H143.559V17.2515H148.019ZM159.565 23.146L159.943 25.4209C159.283 25.6418 158.301 25.7521 157 25.7521C154.571 25.7521 152.725 25.1212 151.462 23.8595C150.199 22.5979 149.568 20.9329 149.568 18.8646C149.568 17.6101 149.796 16.4966 150.253 15.5246C150.709 14.5525 151.326 13.7872 152.103 13.229C152.88 12.6704 153.726 12.2532 154.639 11.9775C155.552 11.7018 156.504 11.564 157.495 11.564C158.758 11.564 159.642 11.6879 160.147 11.9362L159.506 14.2112C158.962 14.0319 158.37 13.9425 157.728 13.9425C156.543 13.9425 155.562 14.3353 154.785 15.1213C154.008 15.9072 153.619 17.1067 153.619 18.7199C153.619 20.3056 153.993 21.4742 154.741 22.2257C155.489 22.9771 156.485 23.3527 157.728 23.3527C158.331 23.3527 158.943 23.284 159.565 23.146ZM161.347 11.6879H165.077V17.7478H165.369L168.546 11.6879H172.742L168.254 18.1203C169.187 18.3822 169.881 18.7923 170.338 19.3509C170.795 19.9091 171.178 20.6778 171.489 21.6569C172.092 23.6839 172.528 25.0075 172.801 25.628H169.012C168.817 25.242 168.458 24.1664 167.933 22.4016C167.661 21.4776 167.346 20.7986 166.986 20.3641C166.627 19.93 166.088 19.7129 165.369 19.7129H165.077V25.628H161.347V11.6879ZM173.883 11.6879H177.264V14.7697C177.264 16.5345 177.138 18.6718 176.885 21.1813H176.944C177.41 20.1886 178.119 18.8234 179.071 17.0861L181.957 11.6879H185.425V25.628H182.073V22.4842C182.073 20.4159 182.161 18.327 182.335 16.2175H182.277C181.908 17.1963 181.247 18.5615 180.295 20.3124L177.41 25.628H173.883V11.6879ZM196.417 17.2515V19.5058H191.958V23.2701H197V25.628H188.14V11.6879H196.679V14.0457H191.958V17.2515H196.417Z" fill="white"/>
<path d="M0 0H17.2059L11.8803 5.70619H4.91597V41.5737L0 46.0571V0Z" fill="white"/>
</svg>
