<svg width="95" height="51" viewBox="0 0 95 51" fill="none" xmlns="http://www.w3.org/2000/svg">
<g id="&#208;&#160;&#208;&#181;&#209;&#129;&#209;&#131;&#209;&#128;&#209;&#129; 1 1" clip-path="url(#clip0_240_3175)">
<g id="b">
<g id="c">
<g id="Group">
<g id="Group_2">
<path id="Vector" fill-rule="evenodd" clip-rule="evenodd" d="M7.80034 0.643555V15.4033C10.1279 12.7233 12.9162 11.3739 16.1524 11.3739C17.8189 11.3739 19.3132 11.6795 20.6482 12.2908C21.9917 12.8958 22.9951 13.6734 23.6712 14.6173C24.3537 15.5675 24.8145 16.6112 25.0621 17.761C25.3097 18.9045 25.4346 20.6863 25.4346 23.1002V38.8828H18.2043V24.672C18.2043 21.8527 18.073 20.0647 17.7974 19.3079C17.5218 18.5427 17.0395 17.9439 16.344 17.499C15.6486 17.0478 14.7808 16.8212 13.7344 16.8212C12.5373 16.8212 11.4607 17.1144 10.5262 17.6861C9.57668 18.2641 8.88768 19.129 8.45489 20.285C8.0135 21.441 7.79388 23.1501 7.80034 25.4101L7.79388 38.887H0.570068V0.643555H7.80034Z" fill="#2E2014"/>
<path id="Vector_2" fill-rule="evenodd" clip-rule="evenodd" d="M36.2714 0.643555V15.4033C38.5989 12.7233 41.3873 11.3739 44.6234 11.3739C46.2835 11.3739 47.7843 11.6795 49.1257 12.2908C50.4606 12.8958 51.4661 13.6734 52.1401 14.6173C52.8226 15.5675 53.2834 16.6112 53.531 17.761C53.7786 18.9045 53.9035 20.6863 53.9035 23.1002V38.8828H46.6797V24.672C46.6797 21.8527 46.5419 20.0647 46.2663 19.3079C45.9907 18.5427 45.5084 17.9439 44.8129 17.499C44.1239 17.0478 43.2497 16.8212 42.2033 16.8212C41.0061 16.8212 39.9317 17.1144 38.9951 17.6861C38.052 18.2641 37.363 19.129 36.9238 20.285C36.491 21.441 36.2692 23.1501 36.2692 25.4101V38.887H29.0454V0.643555H36.2692H36.2714Z" fill="#2E2014"/>
</g>
<g id="Group_3">
<path id="Vector_3" fill-rule="evenodd" clip-rule="evenodd" d="M0.591553 50.7408V43.0293H1.55401V46.2H5.32848L5.31986 43.0293H6.28447V50.7408H5.31986V47.1044H1.55401V50.7408H0.591553Z" fill="#2E2014"/>
<path id="Vector_4" fill-rule="evenodd" clip-rule="evenodd" d="M11.3183 48.9409L12.2399 49.0614C12.0956 49.6394 11.8265 50.0781 11.4346 50.3921C11.0427 50.7102 10.5389 50.8703 9.92741 50.8703C9.15658 50.8703 8.54939 50.6187 8.09723 50.1135C7.64938 49.6145 7.42114 48.9034 7.42114 47.999C7.42114 47.0946 7.64938 46.3295 8.10369 45.8118C8.558 45.2941 9.15658 45.0342 9.88004 45.0342C10.6035 45.0342 11.1525 45.2858 11.6004 45.7931C12.0483 46.3045 12.2743 47.0156 12.2743 47.9408C12.2679 47.9928 12.2743 48.0801 12.2679 48.1924H8.34484C8.37929 48.8036 8.54509 49.2756 8.83361 49.602C9.13074 49.9284 9.49462 50.0948 9.93602 50.0948C10.259 50.0948 10.5411 50.0012 10.7757 49.8162C11.004 49.6374 11.1892 49.3442 11.3205 48.945M8.39437 47.4169H11.3334C11.2925 46.9511 11.1827 46.5914 10.9954 46.3586C10.7133 45.9927 10.3408 45.8139 9.8865 45.8139C9.47955 45.8139 9.13505 45.9532 8.85945 46.2463C8.57738 46.5395 8.42666 46.9303 8.39221 47.4169H8.39437Z" fill="#2E2014"/>
<path id="Vector_5" fill-rule="evenodd" clip-rule="evenodd" d="M16.736 50.0511C16.4131 50.3505 16.0966 50.5626 15.7865 50.6832C15.4829 50.81 15.1599 50.8682 14.809 50.8682C14.2233 50.8682 13.7819 50.7143 13.4719 50.417C13.1618 50.1176 13.0111 49.733 13.0046 49.2673C13.0046 48.9949 13.0671 48.7413 13.1834 48.523C13.2996 48.2963 13.459 48.1113 13.6441 47.9782C13.8314 47.8389 14.0511 47.7329 14.2858 47.6664C14.458 47.6123 14.7185 47.5728 15.0781 47.5271C15.8016 47.4335 16.3248 47.3275 16.6693 47.1944C16.6758 47.0676 16.6758 46.9823 16.6758 46.9491C16.6758 46.5644 16.5853 46.2983 16.4217 46.1382C16.1935 45.9261 15.8511 45.818 15.4097 45.818C14.9683 45.818 14.6798 45.8908 14.4795 46.0509C14.2793 46.2047 14.1286 46.4833 14.0381 46.8763L13.164 46.7495C13.2393 46.3565 13.3707 46.0384 13.5558 45.7931C13.7346 45.5477 13.9972 45.3606 14.3396 45.2275C14.6841 45.1007 15.076 45.0342 15.5303 45.0342C15.9846 45.0342 16.3442 45.0882 16.6241 45.2005C16.9061 45.3128 17.1128 45.4521 17.2442 45.6184C17.3755 45.791 17.4724 46.0031 17.5198 46.2692C17.5478 46.4293 17.5693 46.7204 17.5693 47.1403V48.4044C17.5693 49.2818 17.5822 49.8411 17.6253 50.074C17.6597 50.3068 17.7416 50.5251 17.8535 50.7455H16.9234C16.8265 50.5459 16.7726 50.3193 16.736 50.0532M16.6671 47.9387C16.3442 48.078 15.8554 48.1986 15.2138 48.2984C14.8413 48.3504 14.5807 48.419 14.4279 48.4918C14.2836 48.5583 14.1587 48.6643 14.0834 48.7974C14.0015 48.9305 13.952 49.076 13.952 49.2423C13.952 49.4939 14.0489 49.7081 14.2276 49.8744C14.4063 50.0469 14.669 50.128 15.0114 50.128C15.3537 50.128 15.6659 50.0553 15.9329 49.8952C16.1956 49.7288 16.3937 49.5085 16.5186 49.2299C16.6155 49.0178 16.6628 48.7038 16.6628 48.2859V47.9408L16.6671 47.9387Z" fill="#2E2014"/>
<path id="Vector_6" fill-rule="evenodd" clip-rule="evenodd" d="M22.306 50.7408V50.0359C21.9766 50.5869 21.4878 50.8676 20.8397 50.8676C20.4199 50.8676 20.0345 50.7491 19.6835 50.4954C19.3325 50.2501 19.0569 49.9112 18.8718 49.4725C18.6715 49.0338 18.5833 48.5286 18.5833 47.9506C18.5833 47.3726 18.6651 46.8861 18.8373 46.4349C19.016 45.9837 19.2787 45.6365 19.6297 45.3912C19.9742 45.1521 20.3661 45.0315 20.8075 45.0315C21.1175 45.0315 21.3996 45.098 21.6472 45.2436C21.8948 45.3829 22.095 45.57 22.2522 45.8028V43.0293H23.135V50.7408H22.3082M19.4983 47.9485C19.4919 48.6658 19.6361 49.2043 19.9182 49.5577C20.2067 49.9091 20.5383 50.09 20.9237 50.09C21.3091 50.09 21.6472 49.9174 21.9163 49.5848C22.1919 49.2396 22.3297 48.7261 22.3297 48.0296C22.3297 47.2645 22.1855 46.7073 21.9099 46.3476C21.6343 45.9941 21.2898 45.8153 20.885 45.8153C20.4802 45.8153 20.1615 45.9879 19.8924 46.3268C19.6318 46.6719 19.494 47.2104 19.5005 47.9485H19.4983Z" fill="#2E2014"/>
<path id="Vector_7" fill-rule="evenodd" clip-rule="evenodd" d="M24.6335 50.7408V43.0293H25.5917V46.2H29.364V43.0293H30.3286V50.7408H29.364V47.1044H25.5917V50.7408H24.6335Z" fill="#2E2014"/>
<path id="Vector_8" fill-rule="evenodd" clip-rule="evenodd" d="M35.2099 50.7418V49.9184C34.8029 50.5567 34.2453 50.8686 33.5369 50.8686C33.2268 50.8686 32.9383 50.8083 32.6692 50.6752C32.4 50.5567 32.2019 50.3904 32.0706 50.2033C31.9393 50.0099 31.851 49.777 31.795 49.4984C31.7605 49.3134 31.739 49.0202 31.739 48.6148V45.1572H32.6326V48.2551C32.6326 48.7479 32.6541 49.0785 32.6886 49.2531C32.7445 49.5047 32.8608 49.698 33.0395 49.8373C33.2268 49.9829 33.4465 50.0494 33.7134 50.0494C33.9804 50.0494 34.2367 49.9766 34.4714 49.829C34.6996 49.6897 34.8697 49.4839 34.9666 49.2385C35.0635 48.9849 35.1108 48.6273 35.1108 48.1491V45.1572H36.0001V50.7418H35.2077H35.2099Z" fill="#2E2014"/>
<path id="Vector_9" fill-rule="evenodd" clip-rule="evenodd" d="M37.3503 50.7405V45.156H38.1491V45.9481C38.5345 45.3369 39.0987 45.0312 39.8286 45.0312C40.1386 45.0312 40.4336 45.0915 40.6963 45.2101C40.9654 45.3286 41.1635 45.4887 41.2949 45.682C41.4262 45.8816 41.5231 46.1145 41.5705 46.3868C41.6049 46.5594 41.6264 46.865 41.6264 47.3037V50.7405H40.7307V47.3432C40.7307 46.9586 40.6963 46.6654 40.6274 46.4783C40.5585 46.285 40.4336 46.1332 40.2614 46.0188C40.0826 45.9066 39.8695 45.8463 39.6348 45.8463C39.258 45.8463 38.9264 45.9731 38.6508 46.233C38.3752 46.4846 38.2374 46.9711 38.2439 47.6884L38.2374 50.7405H37.3481H37.3503Z" fill="#2E2014"/>
<path id="Vector_10" fill-rule="evenodd" clip-rule="evenodd" d="M44.8839 49.8907L45.0153 50.7286C44.7677 50.7889 44.5394 50.8159 44.3392 50.8159C44.0162 50.8159 43.7686 50.7639 43.5899 50.6496C43.4112 50.5435 43.2885 50.4042 43.2131 50.2234C43.1442 50.0508 43.1097 49.6724 43.1097 49.1069V45.8884H42.4487V45.1565H43.1097V43.7739L43.9968 43.2021L43.9904 45.1565H44.8861V45.8884H43.9904V49.1588C43.9904 49.425 44.0055 49.5975 44.0399 49.6765C44.0679 49.7493 44.1217 49.8158 44.1928 49.8637C44.2681 49.9032 44.365 49.9302 44.5028 49.9302C44.5997 49.9302 44.7311 49.9177 44.8882 49.8907H44.8839Z" fill="#2E2014"/>
<path id="Vector_11" fill-rule="evenodd" clip-rule="evenodd" d="M49.3108 48.9409L50.2259 49.0614C50.0817 49.6394 49.8125 50.0781 49.4207 50.3983C49.0288 50.7102 48.5249 50.8703 47.9199 50.8703C47.1491 50.8703 46.5354 50.6187 46.0876 50.1135C45.6333 49.6145 45.405 48.9034 45.405 47.999C45.405 47.0946 45.6397 46.3295 46.094 45.8118C46.5483 45.2941 47.1405 45.0342 47.8639 45.0342C48.5874 45.0342 49.145 45.2858 49.5929 45.7931C50.0343 46.3045 50.2604 47.0156 50.2604 47.9408C50.2604 47.9928 50.2539 48.0801 50.2539 48.1924H46.3287C46.3632 48.8036 46.529 49.2756 46.8175 49.602C47.1146 49.9284 47.4785 50.0948 47.9199 50.0948C48.2429 50.0948 48.5249 50.0012 48.7596 49.8162C48.9879 49.6374 49.173 49.3442 49.3108 48.945M46.3847 47.4169H49.3173C49.2764 46.9511 49.1666 46.5914 48.9793 46.3586C48.6972 45.9927 48.3247 45.8139 47.8768 45.8139C47.4634 45.8139 47.1189 45.9532 46.8433 46.2463C46.5613 46.5395 46.4106 46.9303 46.3826 47.4169H46.3847Z" fill="#2E2014"/>
<path id="Vector_12" fill-rule="evenodd" clip-rule="evenodd" d="M51.2873 50.7405V45.156H52.0926V46.0001C52.2928 45.6009 52.478 45.341 52.6567 45.2163C52.829 45.0895 53.0227 45.0312 53.2208 45.0312C53.5309 45.0312 53.8345 45.131 54.1424 45.3369L53.8323 46.2143C53.6192 46.075 53.3974 46.0084 53.1778 46.0084C52.984 46.0084 52.8117 46.0687 52.6546 46.1956C52.5038 46.3224 52.3854 46.4887 52.3251 46.7133C52.2218 47.0459 52.1809 47.4181 52.1809 47.8173V50.7426H51.2852L51.2873 50.7405Z" fill="#2E2014"/>
</g>
<path id="Vector_13" fill-rule="evenodd" clip-rule="evenodd" d="M63.136 28.8259C63.136 21.1997 69.5459 15.0039 77.4501 15.0039C85.3543 15.0039 91.7578 21.1997 91.7578 28.8259C91.7578 36.4522 85.3479 42.6417 77.4501 42.6417C69.5524 42.6417 63.136 36.4522 63.136 28.8259Z" fill="white" stroke="white" stroke-width="1.02" stroke-linejoin="bevel"/>
<path id="Vector_14" fill-rule="evenodd" clip-rule="evenodd" d="M94.43 28.3477C94.43 37.6351 86.6356 45.1553 77.024 45.1553C67.4123 45.1553 59.6179 37.6351 59.6179 28.3477C59.6179 19.0602 67.4123 11.54 77.024 11.54C86.6356 11.54 94.43 19.0665 94.43 28.3477Z" fill="#CA2721"/>
<g id="Group_4">
<path id="Vector_15" fill-rule="evenodd" clip-rule="evenodd" d="M69.869 34.8046H66.4885V22.4837H69.6214V24.2322C70.1661 23.4089 70.6398 22.8621 71.0726 22.6043C71.5011 22.3381 71.9877 22.2051 72.5324 22.2051C73.2968 22.2051 74.0396 22.4109 74.7566 22.8226L73.7102 25.6606C73.1374 25.3009 72.6078 25.1283 72.119 25.1283C71.6302 25.1283 71.2513 25.2552 70.9219 25.5005C70.5903 25.7521 70.3297 26.2116 70.1424 26.8644C69.9572 27.5297 69.8668 28.9061 69.8668 30.9998V34.8025L69.869 34.8046Z" fill="white"/>
<path id="Vector_16" fill-rule="evenodd" clip-rule="evenodd" d="M84.4868 34.8053V32.9632C84.0196 33.6139 83.4124 34.1399 82.6545 34.5183C81.8966 34.8967 81.0978 35.0839 80.2516 35.0839C79.4054 35.0839 78.6281 34.9051 77.952 34.5391C77.2695 34.1732 76.7743 33.668 76.4707 33.0027C76.1671 32.3519 76.0164 31.4392 76.0164 30.2769V22.4844H79.3903V28.1417C79.3903 29.8777 79.4528 30.9402 79.5755 31.3269C79.7004 31.7198 79.9265 32.0317 80.2494 32.2583C80.581 32.485 80.9987 32.5972 81.5026 32.5972C82.0818 32.6035 82.5964 32.4434 83.0528 32.1461C83.5136 31.8404 83.8237 31.462 83.9895 31.0088C84.1617 30.5576 84.2435 29.4474 84.2435 27.6843V22.4844H87.624V34.8053H84.4847H84.4868Z" fill="white"/>
</g>
</g>
</g>
</g>
</g>
<defs>
<clipPath id="clip0_240_3175">
<rect width="93.86" height="50.2233" fill="white" transform="translate(0.570068 0.643555)"/>
</clipPath>
</defs>
</svg>
