<svg width="375" height="257" viewBox="0 0 375 257" fill="none" xmlns="http://www.w3.org/2000/svg">
<g clip-path="url(#clip0_240_4189)">
<path d="M235.407 93.3418C233.21 92.3282 230.691 92.2021 229.996 93.0889C229.888 93.2259 229.888 93.2981 229.889 93.6013C229.889 93.9045 229.897 94.3304 229.719 94.9581C229.39 96.127 228.831 96.6604 228.236 97.2443C227.749 97.72 227.233 98.2102 226.71 99.1695C226.374 99.7826 226.166 100.338 226.009 100.785C225.723 101.565 225.473 102.236 224.719 102.401C224.188 102.515 223.793 102.277 223.47 102.096C223.197 101.936 223.018 101.842 222.788 101.856C222.25 101.892 221.648 102.541 221.09 103.709L220.618 104.705L220.279 103.946C220.287 104.459 220.245 104.95 220.095 105.419C219.923 105.967 219.672 106.335 219.479 106.63C219.25 106.977 219.099 107.186 219.1 107.604C219.094 108.377 219.504 109.02 220.317 110.298C220.626 110.783 220.863 111.108 221.057 111.361C221.424 111.859 221.668 112.177 221.784 112.812C221.914 113.506 221.764 113.931 221.642 114.285C221.557 114.53 221.492 114.725 221.514 115.006C221.58 115.923 222.413 116.56 223.218 117.167C224.023 117.775 224.777 118.346 224.656 119.219C224.542 120.027 223.732 120.38 223.022 120.675C222.448 120.92 221.86 121.164 221.781 121.561C221.753 121.72 221.825 121.85 222.192 122.348C222.486 122.76 222.896 123.317 223.393 124.205C224.155 125.563 224.565 126.307 224.574 127.253C224.575 128.09 224.289 128.61 224.052 129.021C223.845 129.389 223.701 129.648 223.745 130.096C223.825 131.041 224.659 132.039 225.442 132.148C225.757 132.192 225.937 132.084 226.403 131.745C226.768 131.479 227.277 131.111 228.052 130.795C229.013 130.392 231.438 129.587 233.083 130.765C234.189 131.561 234.485 132.926 234.774 134.24C234.94 135.012 234.933 135.438 234.927 135.806C234.92 136.146 234.913 136.413 235.05 136.925C235.469 138.543 236.504 139.584 237.057 140.14C238.006 141.094 238.746 141.839 239.808 141.956C240.239 142 241.214 141.727 242.678 141.325C243.058 141.217 243.381 141.123 243.639 141.052C244.708 140.743 245.153 140.613 245.505 141.025C245.972 141.567 245.586 142.216 244.64 143.789C244.447 144.113 244.232 144.474 243.989 144.878C241.805 148.607 241.763 149.415 241.749 149.761C241.686 151.183 242.212 152.563 242.277 152.714C242.486 153.242 242.673 153.531 242.831 153.791C243.04 154.116 243.234 154.412 243.321 154.961C243.661 157.062 241.905 158.914 241.704 159.131L241.683 159.152C241.002 159.837 240.328 160.168 239.783 160.427C239.102 160.751 238.772 160.939 238.586 161.458C238.586 161.458 238.515 161.891 238.379 162.692L238.337 162.952C238.187 163.825 238.087 164.388 238.116 164.503C238.188 164.662 238.325 164.713 238.877 164.837C239.265 164.924 239.753 165.04 240.349 165.279C241.319 165.677 241.922 166.154 242.36 166.509C242.842 166.892 242.985 166.979 243.201 166.936C243.401 166.893 243.48 166.785 243.681 166.438C243.874 166.099 244.146 165.638 244.741 165.314C246.369 164.428 249.119 165.421 250.406 167.35C251.269 168.636 251.515 169.907 251.107 170.91C250.643 172.057 249.509 172.459 248.598 172.783C247.988 173.006 247.415 173.207 247.336 173.532C247.322 173.604 247.258 174.232 249.744 176.184C251.533 177.594 253.537 178.817 255.691 179.802C255.921 179.874 256.158 179.939 256.416 180.012C257.723 180.375 258.441 180.491 259.194 180.615C259.783 180.717 260.4 180.819 261.319 181.036C262.475 181.319 263.171 181.559 263.789 181.776C264.521 182.037 265.16 182.262 266.438 182.48C267.579 182.676 268.139 182.778 268.929 182.75C269.818 182.723 270.306 182.579 270.916 182.385C271.519 182.198 272.2 181.99 273.413 181.825C273.793 181.775 274.109 181.747 274.381 181.718C274.769 181.69 275.171 181.662 275.221 181.568C275.343 181.344 275.026 180.709 274.832 180.34C274.529 179.734 274.213 179.112 274.65 178.673C274.951 178.37 275.317 178.464 275.611 178.544C275.784 178.588 275.999 178.646 276.301 178.675C276.351 178.682 277.456 178.77 278.324 178.273C278.682 178.072 278.783 177.899 278.911 177.654C279.062 177.387 279.248 177.055 279.736 176.752C280.474 176.299 281.177 176.343 281.737 176.373C282.304 176.409 282.613 176.417 282.907 176.15C283.258 175.84 283.351 175.328 283.393 175.14C283.457 174.758 283.385 174.541 283.277 174.216C283.162 173.899 283.025 173.501 283.017 172.917C283.002 172.195 283.195 171.74 283.331 171.401C283.46 171.084 283.474 171.012 283.423 170.875C283.366 170.745 283.301 170.694 282.992 170.556C282.691 170.412 282.274 170.209 281.778 169.753C281.405 169.406 280.428 168.481 280.505 167.29C280.54 166.763 280.762 166.497 280.963 166.251C281.113 166.071 281.249 165.905 281.364 165.573C281.571 165.003 281.52 164.491 281.469 164.036C281.418 163.538 281.36 162.975 281.848 162.658C282.199 162.42 282.537 162.543 282.774 162.623C282.924 162.674 283.068 162.732 283.283 162.747C284.216 162.834 285.342 162.194 285.7 161.357C285.757 161.212 285.764 161.176 285.757 161.01C285.757 160.808 285.756 160.534 285.877 160.022C286.063 159.17 286.305 158.001 287.18 157.454C287.661 157.158 288.063 157.246 288.393 157.318C288.666 157.376 288.924 157.434 289.333 157.341C290.043 157.176 291.327 156.738 291.95 155.576C292.251 155.014 292.279 154.523 292.306 153.772C292.348 152.834 292.189 152.213 292.052 151.614C291.901 151 291.749 150.372 291.82 149.491C291.876 148.784 292.098 148.069 292.412 147.377C292.398 147.362 292.384 147.362 292.369 147.348C291.795 146.957 290.064 145.764 289.257 143.612C289.041 143.034 289.012 142.688 288.975 142.348C288.946 142.016 288.917 141.713 288.694 141.085C288.55 140.68 288.355 140.225 287.204 138.39C286.838 137.805 286.55 137.343 286.298 136.96C285.665 135.963 285.342 135.464 284.939 134.554C283.78 131.903 284.339 131.558 284.576 131.406C284.948 131.176 285.315 131.4 285.509 131.523C285.537 131.552 285.595 131.581 285.645 131.603C285.767 131.379 285.873 130.665 285.571 130.044C285.319 129.531 284.838 129.292 283.804 128.814C283.086 128.481 282.562 128.329 282.095 128.191C281.442 127.995 280.875 127.828 280.163 127.286C279.56 126.823 279.079 126.469 278.87 125.768C278.653 125.046 278.897 124.498 279.111 124.022C279.29 123.625 279.455 123.257 279.397 122.737C279.346 122.297 279.18 122.044 279.001 121.777C278.785 121.444 278.512 121.04 278.633 120.427C278.761 119.806 279.148 119.532 279.564 119.244C279.858 119.035 280.188 118.805 280.553 118.379C281.019 117.838 281.327 117.24 281.484 116.792C281.147 117.001 280.702 117.217 280.15 117.195C278.822 117.157 277.916 115.856 277.521 115.3C276.917 114.433 276.707 113.66 276.469 112.758C275.957 110.83 275.517 109.162 276.369 107.625C276.87 106.717 277.645 106.212 277.946 106.04C278.548 105.694 279.015 105.644 279.467 105.594C279.66 105.573 279.868 105.551 280.105 105.501C281.504 105.193 282.931 104.09 283.496 102.857C283.654 102.525 283.696 102.279 283.76 101.969C283.839 101.558 283.939 101.038 284.325 100.201C284.533 99.7614 284.683 99.5234 284.797 99.3359C284.912 99.1484 284.984 99.0474 285.062 98.7949C285.255 98.1816 285.44 96.8104 284.757 96.0804C284.52 95.8419 284.297 95.7766 283.982 95.6896C283.587 95.5952 283.099 95.4646 282.653 94.9298C282.279 94.4818 282.228 94.0991 282.178 93.7165C282.141 93.4494 282.098 93.1606 281.947 92.7634C281.565 91.7884 280.781 90.7262 280.178 90.7109C279.884 90.7033 279.662 90.9556 279.325 91.3666C278.946 91.8353 278.465 92.4193 277.669 92.3821C276.513 92.33 275.442 90.9354 275.175 89.6718C275.081 89.2025 275.102 88.82 275.116 88.5313C275.123 88.4086 275.137 88.2353 275.115 88.1848C275.065 88.1486 274.656 88.2708 274.506 88.3067C274.039 88.4287 273.458 88.594 273.027 88.1891C272.668 87.8422 272.746 87.402 272.81 87.0772C272.846 86.8824 272.882 86.6875 272.867 86.4421C272.83 85.7707 272.442 85.366 271.946 84.8528C271.393 84.2962 270.775 83.6457 270.644 82.5628C270.593 82.1224 270.643 81.7832 270.686 81.5379C270.7 81.4368 270.721 81.2853 270.714 81.2492C270.635 81.1697 270.477 81.1695 270.14 81.1906C269.867 81.2047 269.523 81.2187 269.157 81.1532C268.838 84.2927 267.979 86.1394 266.53 86.7438C265.878 87.0099 265.361 86.937 264.571 86.8205C263.875 86.7257 262.92 86.5872 261.341 86.585C259.239 86.5894 258.651 86.834 258.271 87.0717C258.256 87.0861 256.593 88.1088 256.573 89.5308C256.566 90 256.739 90.2745 256.962 90.6285C257.207 91.033 257.523 91.5388 257.51 92.3328C257.483 93.6753 256.473 95.3269 255.253 95.3397C254.521 95.3531 254.14 94.7823 253.831 94.3272C253.572 93.937 253.32 93.5685 252.897 93.4597C252.495 93.3581 252.194 93.5598 251.606 93.9921C251.025 94.4172 250.308 94.9359 249.167 95.2303C248.199 95.4816 247.639 95.3797 247.079 95.2779C246.605 95.1906 246.11 95.0961 245.22 95.2393C243.986 95.4253 243.355 95.843 242.789 96.2104C242.194 96.5921 241.642 96.9595 240.68 96.9149C239.431 96.8699 238.77 96.176 238.073 95.446C237.447 94.7883 236.736 94.0438 235.386 93.4212L235.407 93.3418Z" fill="#FFC3B1"/>
<path d="M108.495 208.299C108.467 208.357 108.424 208.444 108.395 208.501C108.488 208.494 108.61 208.487 108.711 208.473C109.22 208.423 109.902 208.359 110.728 208.627C111.51 208.881 112.2 209.373 112.811 210.088C113.343 210.724 113.595 211.367 113.912 212.176C114.142 212.768 114.236 213.136 114.294 213.367C114.359 213.634 114.373 213.678 114.481 213.801C115.07 214.494 116.276 214.409 116.627 214.374C117.575 214.26 117.983 213.993 118.062 213.784C118.105 213.654 118.033 213.481 117.91 213.228C117.774 212.932 117.551 212.491 117.844 212.08C118.145 211.647 118.648 211.706 119.085 211.757C119.459 211.801 119.875 211.845 120.327 211.708C120.685 211.593 120.915 211.406 121.431 210.901C122.492 209.863 123.043 209.178 123.452 208.666C123.975 208.025 124.29 207.635 124.964 207.434C125.653 207.218 126.364 207.313 126.945 207.48C127.095 206.982 127.662 206.99 128.251 207.005C128.746 207.013 129.356 207.036 129.987 206.878C130.783 206.684 131.163 206.317 131.737 205.769C132.324 205.207 133.055 204.5 134.497 203.759C135.193 203.391 135.831 203.14 136.455 202.974C137.538 202.68 138.378 202.688 139.268 202.675C142.476 202.672 142.871 203.113 142.922 203.438C144.113 203.44 144.982 203.578 145.219 204.235C145.407 204.77 145.005 205.173 144.683 205.498C144.375 205.808 144.052 206.132 144.046 206.558C144.039 206.984 144.37 207.36 145.21 208.249C146.224 209.34 146.684 209.831 147.344 209.962C147.997 210.086 148.564 209.834 149.066 209.604C149.597 209.359 150.192 209.093 150.709 209.512C151.205 209.91 151.12 210.559 151.049 211.079C150.978 211.599 150.942 211.952 151.144 212.169C151.251 212.278 151.345 212.299 151.689 212.314C152.07 212.336 152.579 212.359 153.175 212.742C153.728 213.097 153.93 213.501 154.117 213.848C154.268 214.13 154.39 214.368 154.714 214.65C155.224 215.077 155.777 215.186 156.968 215.375C157.966 215.542 158.483 215.5 158.935 215.464C159.387 215.429 159.817 215.4 160.535 215.575C162.208 215.988 163.329 217.029 164.004 217.651C164.752 218.345 165.384 219.154 165.902 220.05C166.735 220.123 167.459 219.987 168.026 219.649C168.384 219.433 168.592 219.195 168.822 218.921C169.072 218.625 169.366 218.286 169.875 217.977C170.65 217.501 171.31 217.459 172.515 217.374L172.889 217.346C175.508 217.169 177.086 217.055 177.574 216.767C179.008 215.932 179.479 214.128 179.636 213.132C179.97 210.902 179.445 210.144 179.1 209.898C178.705 209.616 178.167 209.68 177.643 209.744C177.026 209.815 176.33 209.894 175.92 209.309C175.575 208.817 175.761 208.283 175.926 207.814C176.09 207.346 176.262 206.869 176.11 206.241C176.031 205.902 175.916 205.743 175.779 205.548C175.606 205.317 175.398 205.02 175.354 204.486C175.303 203.829 175.546 203.454 175.948 202.834C176.148 202.531 176.399 202.149 176.707 201.593C177.014 201.038 177.208 200.641 177.351 200.324C177.558 199.884 177.716 199.566 177.988 199.293C178.088 199.192 178.203 199.091 178.347 199.004C179.064 198.529 179.774 198.494 180.542 198.459C181.539 198.41 182.114 198.584 182.616 198.729C183.033 198.845 183.384 198.953 183.966 198.933C184.446 198.912 185.673 198.762 186.706 197.854C187.494 197.162 187.852 196.31 188.016 195.712C188.555 190.862 187.778 189.72 187.268 189.481C187.017 189.358 186.73 189.401 186.256 189.487C185.639 189.602 184.879 189.745 183.91 189.347C182.861 188.912 181.704 187.878 181.473 186.535C181.299 185.568 181.679 184.839 181.979 184.262C182.258 183.721 182.366 183.469 182.243 183.202C181.984 182.624 180.9 182.225 180.168 182.455C179.889 182.549 179.717 182.707 179.537 182.887C179.315 183.111 179.007 183.421 178.512 183.355C177.83 183.26 177.571 182.596 177.34 182.018C177.189 181.621 177.009 181.166 176.772 181.101C176.693 181.079 176.629 181.115 176.356 181.302C176.055 181.504 175.639 181.792 174.986 181.943C173.745 182.223 172.689 181.781 171.763 181.397C170.471 180.861 169.358 180.39 168.976 179.329C168.659 178.448 169.067 177.791 169.497 177.113C169.855 176.536 170.27 175.887 170.434 174.884C170.605 173.831 170.438 172.899 170.294 172.148C170.135 171.296 170.005 170.546 170.621 170.2C171.044 169.948 171.461 170.151 171.734 170.281C171.985 170.404 172.143 170.476 172.337 170.426C172.624 170.354 172.803 170.001 173.089 169.323C173.261 168.933 173.446 168.486 173.733 168.01C174.392 166.885 175.037 166.409 175.61 165.991C176.084 165.645 176.449 165.379 176.786 164.766C177.323 163.763 177.378 162.435 176.953 160.825C176.162 160.16 175.336 159.531 174.489 158.966C173.124 158.055 172.305 157.505 171.091 157.107C170.323 156.853 169.9 156.831 169.534 156.808C169.132 156.779 168.751 156.757 168.155 156.446C166.863 155.751 166.229 154.566 165.172 152.609C164.891 152.096 164.675 151.648 164.495 151.265C164.15 150.557 163.862 149.951 163.632 149.936C163.604 149.936 163.597 149.928 163.432 150.08C163.245 150.253 162.994 150.476 162.55 150.663C161.675 151.023 161.007 150.827 160.404 150.653C159.937 150.515 159.528 150.392 159.019 150.543C158.488 150.687 158.201 151.018 157.893 151.357C157.535 151.761 157.141 152.215 156.423 152.156C155.712 152.105 155.374 151.606 155.101 151.202C154.9 150.898 154.727 150.638 154.404 150.515C153.887 150.327 153.349 150.68 152.503 151.27C151.6 151.904 150.482 152.697 148.96 152.709C147.963 152.715 146.068 152.366 145.255 150.986C144.557 149.808 145.058 148.597 145.53 147.428C145.98 146.31 146.417 145.249 145.977 144.144C145.697 143.444 144.712 142.771 142.694 141.447C141.286 140.521 139.814 139.675 138.32 138.908C137.855 139.78 137.281 140.314 136.621 140.457C135.925 140.608 135.38 140.318 134.898 140.065C134.446 139.826 134.152 139.689 133.8 139.753C133.326 139.853 133.033 140.308 132.51 141.152C131.651 142.536 131.244 144.016 131.296 145.524C131.318 146.095 131.391 146.513 131.47 146.91C131.586 147.531 131.709 148.116 131.523 149.04C131.409 149.617 131.195 150.165 130.923 150.699C130.923 150.699 130.894 150.786 130.865 150.829C131.355 151.999 131.744 153.198 132.004 154.411C132.495 156.649 132.784 158.007 132.047 159.254C131.832 159.615 131.595 159.867 131.402 160.062C131.115 160.35 131.051 160.444 131.051 160.617C131.051 160.877 131.253 161.094 131.54 161.383C131.856 161.701 132.244 162.092 132.102 162.654C131.98 163.152 131.557 163.318 131.105 163.498C130.746 163.641 130.295 163.821 129.721 164.21C129.312 164.491 128.99 164.715 128.968 164.837C128.947 164.989 129.263 165.249 129.522 165.466C129.939 165.813 130.456 166.247 130.414 166.896C130.322 168.145 128.134 168.77 127.201 168.985C126.218 169.208 125.415 169.207 124.826 169.206C124.568 169.205 124.252 169.205 124.109 169.234C124.166 169.378 124.332 169.631 124.475 169.862C124.619 170.093 124.792 170.353 124.986 170.693C125.777 172.037 126.403 173.113 126.541 174.247C126.795 176.319 125.376 178.02 124.445 179.145C123.571 180.198 122.754 181.178 121.377 181.465C120.437 181.659 119.812 181.405 119.245 181.18C118.807 180.999 118.433 180.855 117.902 180.912C116.661 181.033 115.421 182.222 114.419 184.256C114.018 185.064 113.983 185.475 113.82 186.984C113.721 187.965 113.579 189.322 113.266 191.458C112.868 194.215 112.661 194.973 112.26 195.838C112.01 196.379 111.838 196.596 111.494 197.072C111.179 197.49 110.699 198.132 109.825 199.444C108.457 201.485 108.049 202.286 107.713 203.202C107.513 203.736 107.349 204.277 107.22 204.84C108.24 205.404 108.808 206.062 108.902 206.82C108.989 207.441 108.732 207.931 108.545 208.307L108.495 208.299Z" fill="#FFC3B1"/>
<path d="M191.781 82.1583C191.838 81.8552 191.902 81.5305 191.851 81.0468C191.705 79.5885 190.612 77.4937 189.176 77.4051C188.049 77.3385 187.104 78.5066 186.839 78.8744L186.488 79.3575L186.071 78.9383C186.013 78.8805 185.956 78.8226 185.891 78.7576C185.26 79.2476 184.716 79.8099 184.286 80.4589C183.756 81.2522 183.376 81.8219 183.406 82.5293C183.428 83.013 183.615 83.2731 183.852 83.5983C184.111 83.9595 184.435 84.4003 184.45 85.1221C184.465 85.8584 184.15 86.2622 183.842 86.6588C183.584 86.9905 183.319 87.3438 183.112 88.0004C182.69 89.3352 182.958 90.6421 183.051 91.0103C183.196 91.588 183.404 91.9853 183.577 92.332C183.829 92.816 184.066 93.2855 183.888 93.9277C183.624 94.844 182.684 95.4708 181.859 95.679C180.876 95.9302 180.237 95.5612 179.498 95.1488C178.88 94.8014 178.111 94.3745 176.834 94.0696C175.419 93.7428 173.998 93.712 173.274 93.7326C173.101 93.7324 172.936 93.7394 172.786 93.7464C172.987 94.4108 173.089 95.075 173.075 95.7391C173.055 96.7568 172.79 97.4133 172.512 98.1131C172.268 98.7047 172.004 99.3756 171.826 100.422C171.776 100.732 171.776 100.833 171.769 101.057C171.762 101.353 171.749 101.829 171.628 103.107C171.586 103.569 171.558 103.829 171.451 104.817L171.253 106.636C171.14 107.719 171.076 108.26 171.076 108.39C171.027 109.48 171.121 110.094 171.186 110.548C171.259 111.039 171.324 111.436 171.109 111.97C170.48 113.63 168.156 114.55 166.376 114.461C165.501 114.417 164.905 114.134 164.423 113.91C163.921 113.678 163.612 113.526 163.139 113.67C162.766 113.785 162.622 113.958 162.307 114.362C162.063 114.665 161.763 115.054 161.246 115.515C160.451 116.229 159.934 116.401 159.332 116.617C158.801 116.804 158.198 117.005 157.144 117.661C156.456 118.093 155.969 118.468 155.531 118.806C154.714 119.44 154.119 119.894 153.021 119.972C152.827 119.994 152.655 119.979 152.504 119.986C152.174 119.985 152.081 119.993 151.995 120.065C151.837 120.18 151.838 120.469 151.91 121.104C151.961 121.616 152.034 122.252 151.898 122.981C151.492 125.167 149.421 127.164 147.469 127.233C146.888 127.254 146.55 127.102 146.249 126.957C145.983 126.834 145.767 126.733 145.301 126.74C144.777 126.746 144.519 126.89 143.845 127.25C143.443 127.466 142.927 127.74 142.167 128.085C141.399 128.438 140.876 128.632 140.517 128.761C140.295 128.84 140.036 128.97 140.008 128.97C139.843 129.338 140.239 129.865 140.663 130.422C141.238 131.188 141.957 132.141 141.693 133.26C141.514 134.018 140.991 134.414 140.468 134.796C139.952 135.185 139.421 135.588 139.013 136.432C138.798 136.894 138.656 137.399 138.599 137.933C140.179 138.729 141.723 139.634 143.21 140.61C145.315 141.992 146.471 142.751 146.881 143.784C147.479 145.279 146.921 146.635 146.435 147.833C146.02 148.857 145.655 149.745 146.094 150.489C146.598 151.341 147.911 151.711 148.916 151.713C150.122 151.7 151.018 151.073 151.885 150.461C152.76 149.841 153.671 149.2 154.719 149.591C155.344 149.83 155.653 150.285 155.905 150.668C156.149 151.03 156.25 151.16 156.451 151.174C156.652 151.189 156.788 151.067 157.096 150.713C157.433 150.331 157.884 149.819 158.709 149.582C159.498 149.367 160.116 149.541 160.647 149.7C161.171 149.853 161.573 149.969 162.118 149.753C162.405 149.638 162.563 149.494 162.713 149.357C162.928 149.155 163.194 148.917 163.667 148.947C164.471 149.005 164.831 149.742 165.371 150.847C165.558 151.223 165.759 151.656 166.033 152.148C167.033 154.004 167.587 155.023 168.614 155.58C169.009 155.79 169.21 155.804 169.576 155.827C169.956 155.849 170.487 155.878 171.385 156.175C172.727 156.618 173.647 157.225 175.026 158.151C175.917 158.744 176.779 159.395 177.598 160.104C179.615 160.518 181.186 160.325 182.269 159.525C183.058 158.949 183.466 158.134 183.831 157.42C184.267 156.561 184.711 155.681 185.73 155.524C186.419 155.424 186.907 155.728 187.41 156.046C187.92 156.371 188.559 156.769 189.708 157.016C190.562 157.198 191.029 157.307 191.552 157.17C193.059 156.768 194.018 154.604 194.424 152.721C194.631 151.761 194.594 151.176 194.558 150.649C194.521 150.021 194.484 149.436 194.928 148.585C195.429 147.604 196.074 147.201 196.655 146.848C197.179 146.524 197.63 146.243 197.974 145.522C198.332 144.786 198.281 144.23 198.222 143.653C198.157 143.01 198.091 142.281 198.65 141.459C199.961 139.533 203.111 139.516 203.47 139.516C204.252 139.525 204.784 139.67 205.178 139.779C205.667 139.909 205.853 139.953 206.162 139.802C206.872 139.463 207.315 138.526 207.444 137.79C207.529 137.284 207.428 137.01 207.371 136.952C207.356 136.938 207.306 136.93 207.249 136.916C207.119 136.887 206.782 136.807 206.674 136.453C206.364 135.377 209.319 134.226 210.596 133.78C211.306 133.529 212.633 133.076 214.456 132.876C215.503 132.762 216.214 132.785 216.73 132.8C217.384 132.823 217.57 132.823 217.792 132.628C218.208 132.268 218.229 131.698 218.264 131.026C218.292 130.29 218.326 129.46 219 128.898C219.781 128.242 221.059 128.287 222.89 129.033C222.969 128.839 223.062 128.673 223.148 128.514C223.362 128.139 223.534 127.822 223.541 127.251C223.54 126.573 223.216 125.988 222.489 124.709C222.015 123.871 221.634 123.344 221.353 122.961C220.943 122.404 220.649 121.992 220.763 121.386C220.934 120.448 221.859 120.052 222.598 119.743C223.064 119.549 223.587 119.326 223.63 119.08C223.673 118.806 223.098 118.372 222.588 117.989C221.69 117.316 220.569 116.463 220.474 115.084C220.438 114.586 220.552 114.24 220.659 113.958C220.766 113.648 220.838 113.432 220.766 112.999C220.7 112.601 220.557 112.414 220.226 111.98C220.025 111.705 219.766 111.359 219.442 110.86C218.579 109.502 218.061 108.678 218.06 107.596C218.059 106.874 218.345 106.455 218.61 106.059C218.789 105.792 218.968 105.525 219.104 105.114C219.397 104.198 219.267 103.1 218.755 101.865C218.569 101.735 218.382 101.634 218.188 101.554C217.901 101.438 217.714 101.423 217.47 101.409C217.197 101.394 216.86 101.357 216.365 101.191C215.323 100.835 214.691 100.228 214.224 99.8018C214.109 99.6861 213.965 99.556 213.858 99.4764C213.843 99.5486 213.822 99.628 213.808 99.7001C213.736 100.104 213.615 100.718 213.114 101.309C212.404 102.152 211.429 102.368 211.142 102.411C209.613 102.661 208.328 101.757 207.695 100.904C207.501 100.651 206.882 99.7123 206.938 98.4275C206.98 97.5902 207.295 97.1287 207.567 96.7248C207.789 96.4003 207.983 96.1191 208.047 95.5922C208.118 95.0149 207.973 94.6537 207.822 94.2565C207.635 93.7799 207.433 93.2454 207.698 92.5023C207.912 91.9107 208.271 91.5936 208.557 91.3341C208.83 91.1035 208.945 90.9882 208.966 90.7645C208.98 90.5768 208.929 90.4829 208.685 90.1361C208.512 89.9048 208.304 89.6086 208.095 89.1824C207.584 88.164 207.554 87.341 207.532 86.7419C207.51 86.1716 207.488 85.9767 207.287 85.8032C206.813 85.4127 205.736 85.5701 204.969 85.9516C204.359 86.2611 204.087 86.665 203.808 87.0905C203.486 87.5736 203.128 88.1218 202.31 88.3949C201.7 88.6034 201.291 88.509 200.903 88.4074C200.551 88.3275 200.193 88.2404 199.525 88.3189C198.829 88.3974 198.392 88.6061 198.033 88.7644C197.603 88.9659 197.158 89.1674 196.584 88.9356C195.902 88.6532 195.736 88.0394 195.591 87.5051C195.469 87.0501 195.332 86.523 194.893 85.9955C194.426 85.4246 193.923 85.2074 193.435 84.9901C192.846 84.7295 192.229 84.4543 191.854 83.6453C191.581 83.0386 191.659 82.5984 191.745 82.1799L191.781 82.1583Z" fill="#FF9778"/>
<path d="M289.96 48.2879C288.984 48.0989 289.196 45.8038 287.872 43.1168C286.562 40.4731 284.45 38.8244 282.762 37.8043C281.084 38.7837 280.397 39.8655 280.082 40.6879C279.424 42.4483 280.337 43.3807 279.442 45.0613C279.385 45.1767 278.411 46.9511 276.675 47.2952C275.814 47.4672 275.691 47.1134 275.003 47.3001C273.625 47.6591 273.577 49.2254 272.044 50.8258C271.055 51.8639 269.269 53.0957 268.436 52.5893C267.696 52.148 267.73 50.3651 268.423 48.3088C267.857 48.503 266.988 48.7255 265.934 48.7746C264.168 48.8444 263.701 48.3312 262.69 48.6691C261.542 49.0573 261.816 49.8228 260.188 50.9972C259.6 51.4295 258.353 52.3084 256.681 52.2989C255.927 52.2906 255.324 52.1165 254.908 51.9572C254.887 52.4408 254.858 52.8449 254.845 53.177C255.268 53.358 255.858 53.9507 256.936 55.2804C258.072 56.6823 258.647 57.376 259.344 58.5536C259.74 59.2254 260.337 60.2296 260.849 61.6523C261.519 63.5227 261.886 64.5555 261.637 65.9049C261.558 66.3163 261.437 66.6554 261.344 66.9223C261.194 67.3336 261.165 67.4634 261.223 67.5646C261.251 67.6224 261.309 67.6513 261.646 67.76C261.919 67.847 262.3 67.9703 262.817 68.2164C263.729 68.6435 264.274 68.9041 264.476 69.4963C264.685 70.1246 264.349 70.6655 264.112 71.0622C264.069 71.1343 264.005 71.2281 263.962 71.3146C264.034 71.3147 264.12 71.3148 264.184 71.3222C264.565 71.3299 265.074 71.3378 265.685 71.548C266.015 71.6639 267.652 72.2869 267.898 73.5433C268.042 74.2797 267.627 74.7844 267.29 75.1954C266.989 75.5559 266.731 75.8732 266.725 76.3712C266.718 76.7827 267.135 77.4329 267.89 78.5961C268.43 79.4269 268.689 79.8315 268.954 79.969C269.335 80.1644 269.701 80.1433 270.081 80.1221C270.512 80.0939 271.057 80.0657 271.46 80.4994C271.819 80.8897 271.748 81.3082 271.698 81.6474C271.662 81.8711 271.627 82.0948 271.663 82.3908C271.75 83.1272 272.181 83.5754 272.677 84.0885C273.231 84.6451 273.842 85.2884 273.893 86.3495C273.908 86.7105 273.858 87.0063 273.815 87.2228C273.808 87.2734 273.794 87.3311 273.787 87.3816C273.909 87.3746 274.117 87.3099 274.246 87.2812C274.698 87.1591 275.322 86.9795 275.796 87.3844C276.192 87.7242 276.164 88.1861 276.142 88.5542C276.128 88.7996 276.107 89.0811 276.18 89.4132C276.375 90.3302 277.151 91.2841 277.725 91.3138C278.005 91.3214 278.22 91.0763 278.557 90.6653C278.936 90.1966 279.416 89.6126 280.213 89.6353C281.512 89.6732 282.519 91.3492 282.901 92.3387C283.095 92.8514 283.153 93.2269 283.197 93.5301C283.24 93.8622 283.262 94.0138 283.449 94.2306C283.686 94.5124 283.901 94.5705 284.239 94.6504C284.605 94.7447 285.072 94.8536 285.51 95.3234C286.444 96.3208 286.389 97.9521 286.053 99.0416C285.932 99.424 285.817 99.6115 285.681 99.8206C285.574 99.9865 285.445 100.188 285.266 100.571C284.922 101.292 284.851 101.696 284.773 102.093C284.716 102.425 284.645 102.771 284.437 103.226C283.736 104.741 282.051 106.059 280.336 106.44C280.064 106.497 279.82 106.526 279.597 106.547C279.181 106.59 278.887 106.625 278.464 106.863C278.234 106.993 277.654 107.374 277.267 108.067C276.616 109.242 276.969 110.578 277.46 112.427C277.69 113.308 277.856 113.936 278.367 114.651C278.69 115.121 279.381 116.089 280.192 116.112C280.622 116.127 280.966 115.868 281.253 115.651C281.526 115.45 281.949 115.14 282.358 115.451C282.473 115.538 282.61 115.704 282.639 116.007C282.704 116.65 282.232 117.934 281.329 118.986C280.878 119.498 280.462 119.801 280.161 120.017C279.774 120.291 279.681 120.37 279.638 120.572C279.602 120.767 279.66 120.868 279.854 121.164C280.063 121.475 280.343 121.901 280.416 122.594C280.503 123.388 280.245 123.951 280.038 124.406C279.845 124.846 279.745 125.091 279.845 125.438C279.954 125.791 280.219 126.016 280.773 126.428C281.347 126.862 281.757 126.985 282.381 127.166C282.855 127.311 283.444 127.485 284.226 127.84C285.289 128.332 286.058 128.687 286.482 129.547C286.828 130.24 286.886 131.193 286.629 131.857C286.457 132.304 286.192 132.484 286.005 132.556C285.747 132.657 285.51 132.606 285.316 132.526C285.403 132.873 285.569 133.4 285.871 134.108C286.238 134.938 286.519 135.394 287.152 136.376C287.396 136.766 287.691 137.221 288.065 137.814C289.266 139.743 289.482 140.234 289.641 140.71C289.907 141.454 289.936 141.859 289.98 142.22C290.009 142.523 290.031 142.761 290.204 143.223C290.888 145.079 292.433 146.128 292.935 146.475C293.575 146.916 294.278 147.249 295.011 147.481C296.596 147 297.888 147.059 298.829 147.66C299.576 148.137 299.893 148.802 300.166 149.38C300.44 149.943 300.648 150.384 301.194 150.63C301.632 150.825 302.027 150.79 302.443 150.747C302.974 150.69 303.577 150.633 304.108 151.154C304.54 151.573 304.562 152.028 304.577 152.432C304.591 152.721 304.599 153.031 304.772 153.407C305.261 154.49 306.518 155.004 307.624 155.453C308.062 155.634 309.096 156.054 310.51 156.121C311.098 156.151 311.536 156.101 311.916 156.066C312.54 156.001 313.093 155.952 313.682 156.357C314.213 156.718 314.408 157.202 314.552 157.549C314.689 157.874 314.746 157.989 314.904 158.047C315.026 158.098 315.105 158.077 315.442 157.897C315.772 157.724 316.231 157.493 316.92 157.451C317.638 157.409 318.14 157.612 318.542 157.771C318.909 157.923 319.181 158.024 319.569 157.953C319.806 157.903 319.906 157.816 320.092 157.643C320.279 157.47 320.515 157.261 320.91 157.081C321.656 156.75 322.538 156.715 323.515 156.962C323.665 156.724 323.88 156.537 324.131 156.342C324.489 156.054 324.984 155.658 325.564 154.843C325.65 154.727 325.708 154.626 325.75 154.569C326.223 153.848 326.352 153.371 326.523 152.765C326.63 152.383 326.752 151.957 326.973 151.416C327.145 150.998 327.317 150.651 327.481 150.327C327.832 149.627 328.04 149.201 327.946 148.645C327.924 148.523 327.888 148.414 327.888 148.4C327.729 147.894 327.392 147.641 327.104 147.41C326.803 147.179 326.472 146.918 326.479 146.464C326.492 145.901 326.973 145.692 327.568 145.426C327.927 145.267 328.379 145.059 328.945 144.735C329.289 144.533 329.741 144.209 330.644 143.575C331.77 142.775 332.308 142.393 332.723 142.033C332.867 141.903 333.211 141.615 333.691 141.276C333.691 141.276 333.957 141.096 334.215 140.938C334.796 140.585 335.29 140.405 335.728 140.24C336.273 140.038 336.653 139.887 337.033 139.491C337.083 139.44 337.184 139.325 337.291 139.145C337.628 138.604 337.591 138.178 337.562 137.687C337.532 137.283 337.503 136.821 337.711 136.323C338.04 135.558 338.692 135.335 339.259 135.127C339.79 134.94 340.299 134.76 340.729 134.183C340.887 133.967 341.388 133.217 341.286 132.408C341.127 131.109 339.439 130.103 338.433 129.495C337.686 129.047 337.184 128.743 337.434 128.216C337.634 127.784 338.115 127.892 338.367 127.943C338.647 128.009 339.027 128.089 339.371 127.959C339.845 127.772 340.296 127.174 340.475 126.488C340.596 126.034 340.545 125.709 340.452 125.586C340.38 125.499 340.15 125.499 339.791 125.513C339.253 125.534 338.5 125.569 337.824 124.99C337.444 124.665 337.242 124.188 336.846 123.228C336.58 122.57 336.464 122.137 336.363 121.747C336.255 121.336 336.168 121.018 335.945 120.548C335.852 120.353 335.693 120.021 335.549 119.559C335.513 119.436 335.405 119.097 335.333 118.635C334.985 116.527 334.689 114.714 335.447 112.868C335.64 112.384 335.84 112.096 335.969 111.879C336.134 111.627 336.156 111.591 336.141 111.432C336.105 111.049 335.832 110.818 335.386 110.457C334.919 110.088 334.344 109.625 334.279 108.809C334.198 107.82 334.944 106.912 335.596 106.126C335.896 105.765 336.097 105.52 336.427 105.246C336.577 105.124 336.706 105.037 336.835 104.951C337.051 104.807 337.215 104.684 337.409 104.461C337.416 104.454 337.552 104.288 337.674 104.064C337.946 103.588 337.988 103.069 338.038 102.571C338.087 102.058 338.13 101.524 338.423 101.07C338.846 100.399 339.506 100.342 340.03 100.307C340.468 100.271 340.841 100.243 341.206 99.933C341.83 99.4214 341.886 98.4975 341.957 97.617C342.034 96.6426 342.105 95.6322 342.98 95.2147C343.496 94.9556 343.948 95.1078 344.272 95.2165C344.566 95.3107 344.738 95.3687 344.982 95.2824C345.872 94.9805 346.235 93.1981 346.584 91.4734C346.748 90.7012 346.841 90.0012 346.94 89.3661C347.189 87.6268 347.381 86.2629 348.586 85.5571C348.665 85.5067 348.729 85.4707 348.83 85.4275C349.941 84.9599 350.954 85.7336 351.845 86.4278C352.456 86.8978 353.088 87.3895 353.54 87.2819C354.257 87.1096 354.901 85.4936 354.82 84.0715C354.754 82.9815 354.258 82.0785 353.848 81.3489C353.445 80.6265 353.092 79.998 353.544 79.5006C353.902 79.0824 354.39 79.2274 354.749 79.3146C355.123 79.4017 355.388 79.4526 355.61 79.3157C355.761 79.2221 355.818 79.0778 355.94 78.5655C356.018 78.2408 356.118 77.8222 356.311 77.3245C356.561 76.6968 356.926 75.7662 357.628 75.0597C357.879 74.8074 358.166 74.5913 358.503 74.4257C358.611 74.3753 358.725 74.3322 358.84 74.289C359.183 73.2068 359.62 72.4061 359.971 71.8941C360.401 71.2595 360.931 70.6683 363.576 68.2683C365.289 66.7187 365.769 66.3368 365.661 65.8963C365.43 64.9432 362.868 65.2933 362.321 63.9356C362.012 63.1483 362.743 62.6874 362.462 61.8425C362.13 60.8603 360.889 60.707 358.849 59.8813C357.183 59.2005 355.726 58.6138 354.54 57.4934C352.543 55.6283 353.395 54.2219 351.757 53.0214C350.342 52.0017 349.403 52.8161 345.225 52.3195C342.325 51.969 340.847 51.7649 339.668 50.6372C338.842 49.8348 338.417 48.6577 337.574 46.2961C336.688 43.819 336.802 43.1118 335.903 42.1072C335.63 41.7893 334.394 40.3872 332.571 40.428C330.074 40.4679 328.699 43.1512 328.685 43.2089C328.678 43.2161 328.664 43.2017 328.642 43.18C328.398 42.9342 327.111 41.3083 326.042 41.3863C324.994 41.4715 325.061 43.1101 323.548 44.1836C322.1 45.2066 319.703 45.3621 318.69 44.314C317.324 42.9407 318.949 39.9762 317.987 39.4263C317.262 39.0138 316.381 40.6656 314.093 41.3771C311.03 42.3185 307.769 40.8126 307.152 40.523C305.22 39.6325 305.011 38.8598 303.949 38.9883C302.277 39.1954 302.129 41.2379 299.927 42.1949C298.285 42.9073 297.738 42.0403 296.045 42.4711C292.293 43.426 291.417 48.6148 289.939 48.324L289.96 48.2879Z" fill="#FFC3B1"/>
<path d="M39.4363 135.032C40.0695 136.246 40.968 137.337 41.9882 138.133C42.7497 138.725 43.1589 138.834 43.4819 138.871C43.8767 138.907 44.099 138.771 44.5435 138.439C44.9019 138.18 45.3465 137.863 46.0351 137.604C47.6705 137 49.2497 137.262 49.8455 137.4C50.6855 137.596 51.138 137.892 51.5043 138.131C51.8419 138.355 52.0502 138.493 52.5239 138.508C53.0693 138.523 53.3921 138.358 53.7722 138.163C54.2168 137.933 54.726 137.666 55.5299 137.769C56.2548 137.863 56.6213 138.174 56.9374 138.449C57.2032 138.673 57.426 138.868 57.907 138.992C58.5675 139.166 59.0122 139.008 59.5287 138.835C60.0882 138.648 60.7194 138.433 61.5595 138.73C63.1606 139.288 63.8377 141.079 63.9097 141.281C64.1835 142.046 64.17 142.711 64.1635 143.194C64.1638 143.396 64.1498 143.671 64.1929 143.743C64.2072 143.699 64.408 143.599 64.5443 143.534C64.9387 143.325 65.4838 143.037 66.1586 143.197C66.9196 143.386 67.2505 143.992 67.5167 144.491C67.7541 144.917 67.9052 145.184 68.1924 145.257C68.458 145.322 69.0535 145.273 70.143 144.263C70.4154 144.018 70.5658 143.795 70.7091 143.607C70.9096 143.333 71.1174 143.038 71.5837 142.93C72.3083 142.765 72.8687 143.213 73.2782 143.553C73.4291 143.676 73.6734 143.879 73.7595 143.879C73.7738 143.835 73.838 143.554 73.8951 143.337C74.0164 142.811 74.1805 142.096 74.6745 141.224C75.0539 140.553 75.5837 139.63 76.4736 139.573C77.0979 139.538 77.4932 139.95 77.7806 140.253C77.989 140.463 78.1256 140.6 78.2332 140.593C78.3696 140.586 78.5414 140.283 78.6845 140.009C78.9494 139.526 79.2787 138.934 79.9818 138.748C80.5342 138.597 81.209 138.757 81.8483 139.183C82.6384 139.719 83.1921 140.535 83.308 141.315C83.3877 141.871 83.216 142.231 83.0729 142.549C82.9513 142.83 82.8368 143.075 82.8517 143.509C82.8668 144.072 83.1049 145.018 83.6866 145.3C83.8949 145.408 84.0599 145.373 84.3684 145.308C84.72 145.229 85.1935 145.129 85.7823 145.375C86.3783 145.628 86.6229 146.033 86.8242 146.365C86.9825 146.625 87.076 146.777 87.2986 146.886C87.7295 147.103 88.4542 147.039 89.0925 146.729C89.5372 146.513 89.8597 146.203 89.9168 145.944C89.9524 145.778 89.8517 145.619 89.5642 145.243C89.2119 144.773 88.7302 144.145 88.5206 143.069C88.4049 142.448 88.2532 141.675 88.6684 140.954C89.0049 140.355 89.507 140.183 90.0881 139.974C90.4898 139.831 90.9919 139.658 91.6301 139.276C92.2109 138.938 92.7487 138.614 93.2574 138.001C93.587 137.597 93.7588 137.251 93.8875 136.948C94.0736 136.544 94.2668 136.133 94.7976 135.975C95.7159 135.702 96.8509 136.512 97.333 137.443C97.8079 138.354 97.6153 139.256 97.4798 139.912C97.3729 140.41 97.3159 140.728 97.4453 140.872C97.7974 141.255 99.0959 140.86 99.5191 140.738C100.531 140.429 101.448 139.809 102.208 138.944L102.114 138.778L102.631 138.548C104.216 137.835 105.592 136.899 106.718 135.796C107.205 135.306 107.628 134.808 107.993 134.383C108.824 133.388 109.548 132.53 110.832 132.38C111.191 132.338 111.514 132.36 111.794 132.382C112.268 132.411 112.605 132.433 112.964 132.188C113.136 132.073 113.2 131.979 113.458 131.518C113.551 131.366 113.651 131.179 113.787 130.955C114.331 130.046 114.718 129.513 114.976 129.167C115.313 128.712 115.32 128.676 115.305 128.532C115.291 128.359 115.248 128.301 115.003 127.997C114.766 127.716 114.414 127.289 113.975 126.502C113.421 125.512 113.148 125.021 113.219 124.501C113.347 123.621 114.107 123.275 114.846 122.937C115.534 122.62 116.316 122.268 116.831 121.446C117.197 120.847 117.554 119.851 117.445 118.833C117.416 118.53 117.344 118.27 117.286 118.025C117.164 117.541 117.026 117.043 117.27 116.422C117.463 115.925 117.778 115.68 118.008 115.507C118.201 115.355 118.266 115.305 118.294 115.175C118.351 114.944 118.207 114.727 117.97 114.402C117.711 114.041 117.388 113.586 117.531 113.008C117.723 112.179 118.663 111.884 119.409 111.654C119.509 111.625 119.624 111.582 119.739 111.553C119.416 111.401 118.92 111.206 118.461 111.032C117.872 110.8 117.456 110.67 117.132 110.561C116.529 110.372 116.163 110.249 115.811 109.823C115.416 109.339 115.35 108.696 115.212 107.404C115.125 106.552 115.052 105.888 115.137 104.978C115.264 103.65 115.651 102.684 115.929 101.969C116.301 101.046 116.581 100.606 116.774 100.325C116.946 100.065 116.989 99.9931 117.01 99.7405C117.045 99.2858 116.909 99.0763 116.607 98.6139C116.297 98.1443 115.88 97.494 115.498 96.3025C115.34 95.797 115.304 95.5876 115.26 95.27C115.209 94.9306 115.144 94.4614 114.863 93.2555L114.805 93.01C114.588 92.1147 114.459 91.5948 114.881 91.2128C115.355 90.7948 115.951 91.1204 116.475 91.4026C116.913 91.6414 117.409 91.9092 117.724 91.7653C117.946 91.6717 118.161 91.3544 118.254 90.9864C118.354 90.5968 118.303 90.2863 118.217 90.1707C118.145 90.084 118.023 90.0477 117.815 90.0113C117.571 89.9677 117.155 89.8805 117.025 89.4617C116.837 88.8551 117.425 88.5094 118.042 88.1493C118.752 87.7389 119.727 87.1627 120.25 86.1457C120.429 85.8067 120.5 85.518 120.564 85.2366C120.679 84.7748 120.793 84.2985 121.302 83.7867C121.71 83.3759 122.054 83.2608 122.363 83.1674C122.6 83.0884 122.829 83.0165 123.166 82.7643C123.603 82.4401 123.754 82.1732 123.947 81.7909C124.14 81.4086 124.427 80.9037 125.065 80.2911C125.43 79.9379 125.717 79.7506 125.91 79.6137C126.154 79.4552 126.24 79.3976 126.348 79.174C126.627 78.633 126.669 77.7813 126.288 77.3838C126.18 77.2753 126.123 77.2608 125.878 77.2172C125.62 77.1735 125.261 77.1153 124.801 76.8404C124.155 76.4497 123.831 75.9367 123.616 75.6044C123.58 75.5538 123.508 75.4382 123.508 75.4382C123.508 75.4382 122.551 73.654 122.371 73.2567C122.162 72.8017 121.832 72.527 121.508 72.245C121.084 71.8907 120.61 71.4858 120.66 70.7713C120.695 70.1289 121.153 69.7109 121.49 69.4009C121.612 69.2784 121.834 69.0838 121.848 69.0117C121.834 68.9972 121.712 68.9465 121.626 68.9031C121.367 68.7728 120.958 68.5773 120.721 68.1078C120.426 67.5516 120.547 67.1836 121.133 65.3943L121.469 64.3481C121.812 63.2947 121.862 63.1288 122.098 62.862C122.679 62.1771 123.353 62.0192 123.956 61.8757C124.243 61.8039 124.515 61.7465 124.752 61.6241C125.34 61.3218 125.777 60.6222 126.063 59.5543C125.711 59.5321 125.309 59.4738 124.828 59.3649C122.725 58.8928 122.436 58.1129 121.181 58.3493C120.162 58.5356 120.034 59.0985 119.065 59.0755C118.275 59.0455 118.196 58.6628 116.875 58.2712C115.568 57.8797 115.389 58.1753 114.721 57.7774C113.989 57.3289 113.622 56.5993 113.19 55.747C112.636 54.6418 112.808 54.3966 112.391 53.963C111.687 53.2402 110.56 53.2892 109.613 53.3312C108.622 53.3731 107.69 53.6606 105.868 54.2355C104.103 54.7817 104.089 54.8827 103.637 54.8604C102.201 54.7863 101.611 53.746 100.65 54.019C99.8824 54.2417 99.5105 55.1363 99.4389 55.3094C98.738 57.0264 100.462 58.126 100.415 60.7606C100.395 62.0526 99.9589 63.012 99.4223 64.2168C98.8499 65.472 98.2632 66.756 96.987 67.7071C96.2128 68.2835 95.1869 68.5636 93.1424 69.131C90.8324 69.7631 90.0716 69.7187 89.3909 70.519C88.8033 71.2111 89.1339 71.5292 88.5615 72.8277C88.3612 73.2894 87.1447 75.9007 85.0569 76.2804C83.8946 76.4954 83.3411 75.8666 82.9397 76.2414C82.266 76.8757 83.8185 78.6391 84.1597 81.5197C84.3194 82.8192 83.9556 84.4717 83.2353 87.7695C82.3794 91.6662 82.0921 91.4925 82.0583 93.0011C82.0115 95.5491 82.8304 96.1566 82.4461 98.4948C82.3394 99.1803 81.9122 101.735 80.5205 102.137C79.4229 102.446 78.9259 101.067 77.3688 101.202C76.0628 101.301 75.8775 102.326 73.9047 102.821C73.4527 102.929 72.7496 103.101 71.8668 103.006C70.2446 102.831 70.0641 101.986 68.4346 101.702C67.7455 101.571 67.0351 101.664 65.6144 101.835C64.2439 101.999 63.5622 102.078 62.8808 102.344C60.815 103.121 61.1253 104.384 59.2246 105.183C57.6969 105.809 55.8523 105.684 55.1489 105.639C53.8714 105.551 53.4405 105.305 52.9314 105.629C51.9634 106.256 51.6217 108.334 52.4701 109.447C53.5485 110.863 55.8148 109.798 56.8288 111.323C57.3178 112.059 57.2617 113.027 57.2057 114.023C57.1354 115.12 57.1004 115.762 56.6488 116.159C55.7743 116.951 54.4666 115.809 52.5726 116.254C50.8221 116.656 49.7907 118.141 49.6116 118.394C47.9355 120.788 49.41 123.165 47.9976 124.209C46.8935 125.031 45.9299 123.6 43.7851 124.341C41.9416 124.981 41.6923 126.388 39.669 126.717C38.5784 126.889 38.1545 126.564 37.7747 126.946C37.015 127.695 38.3735 129.263 38.2406 131.782C38.2196 132.194 38.1485 132.67 38.0415 133.168C38.6452 133.761 39.1412 134.39 39.4794 135.047L39.4363 135.032Z" fill="#FF9778"/>
<path d="M128.995 62.836C128.219 62.2719 129.057 60.8655 128.159 59.9475C127.842 59.6295 127.519 59.5785 127.053 59.5706C126.696 61.0716 126.08 62.0524 125.162 62.5131C124.818 62.6859 124.474 62.772 124.144 62.8437C123.634 62.9658 123.189 63.0806 122.817 63.4988C122.717 63.6142 122.695 63.6791 122.381 64.6459L122.045 65.6921C121.595 67.0702 121.48 67.4453 121.567 67.6043C121.66 67.7704 121.804 67.8428 122.026 67.9658C122.292 68.1033 122.701 68.2988 122.803 68.8042C122.918 69.4107 122.488 69.8143 122.137 70.1387C121.893 70.3693 121.65 70.5856 121.635 70.8165C121.629 70.997 121.758 71.1271 122.132 71.4452C122.498 71.7561 122.965 72.1537 123.26 72.811C123.469 73.266 124.433 75.0286 124.433 75.0286C124.62 75.332 124.843 75.6716 125.281 75.9393C125.568 76.1129 125.776 76.1493 125.999 76.1857C126.286 76.2294 126.638 76.2949 126.983 76.6562C127.709 77.4296 127.646 78.7649 127.209 79.6233C126.973 80.0777 126.715 80.2506 126.435 80.4451C126.249 80.5748 126.027 80.726 125.726 81.0144C125.21 81.5045 124.995 81.894 124.809 82.2547C124.587 82.6658 124.358 83.0986 123.741 83.5597C123.275 83.9128 122.924 84.0205 122.651 84.1068C122.393 84.193 122.228 84.2433 121.991 84.4812C121.676 84.7984 121.612 85.0654 121.512 85.4551C121.44 85.7581 121.348 86.1406 121.111 86.5806C120.453 87.8645 119.291 88.5414 118.517 88.9879C118.474 89.0167 118.416 89.0455 118.373 89.0743C118.582 89.154 118.811 89.2842 118.991 89.5227C119.293 89.9273 119.366 90.5626 119.194 91.2121C119.016 91.8975 118.6 92.4456 118.091 92.6686C117.324 93.0068 116.541 92.5799 115.959 92.2687C115.859 92.2108 115.722 92.1456 115.607 92.0877C115.643 92.2683 115.694 92.5065 115.759 92.7448L115.817 92.9903C116.12 94.2467 116.185 94.7593 116.236 95.0987C116.279 95.3874 116.301 95.539 116.431 95.9579C116.777 97.0122 117.136 97.5757 117.424 98.0237C117.755 98.5438 118.057 98.9918 117.986 99.8002C117.944 100.32 117.786 100.551 117.586 100.853C117.407 101.12 117.17 101.488 116.841 102.325C116.584 102.974 116.226 103.869 116.113 105.052C116.035 105.854 116.101 106.438 116.181 107.254C116.297 108.323 116.355 108.9 116.556 109.146C116.707 109.327 116.829 109.377 117.397 109.558C117.734 109.667 118.172 109.805 118.782 110.044C120.305 110.638 121.001 110.906 120.988 111.585C120.974 112.205 120.314 112.406 119.676 112.601C119.252 112.737 118.542 112.96 118.471 113.22C118.442 113.35 118.593 113.559 118.751 113.776C119.018 114.159 119.399 114.686 119.242 115.379C119.127 115.87 118.826 116.115 118.597 116.288C118.411 116.432 118.274 116.54 118.181 116.778C118.067 117.066 118.11 117.283 118.233 117.738C118.305 118.012 118.384 118.323 118.421 118.705C118.595 120.308 117.879 121.606 117.657 121.96C116.977 123.049 116.009 123.488 115.234 123.848C114.546 124.164 114.23 124.337 114.188 124.626C114.159 124.799 114.476 125.348 114.821 125.984C115.217 126.684 115.518 127.046 115.741 127.313C116.007 127.638 116.245 127.92 116.281 128.433C116.318 128.974 116.103 129.263 115.752 129.746C115.508 130.077 115.136 130.582 114.613 131.455C114.484 131.671 114.377 131.852 114.298 132.003C114.012 132.508 113.868 132.753 113.496 133.013C112.843 133.452 112.233 133.415 111.688 133.371C111.422 133.349 111.171 133.341 110.913 133.37C110.03 133.477 109.514 134.097 108.726 135.02C108.353 135.467 107.923 135.957 107.393 136.505C106.304 137.572 105.006 138.487 103.529 139.221C104.701 141.107 105.189 141.021 105.203 141.021C105.311 140.999 105.447 140.747 105.569 140.538C105.805 140.126 106.127 139.571 106.801 139.413C107.404 139.27 107.835 139.573 108.295 139.877C108.482 140.007 108.697 140.152 108.977 140.304C109.624 140.666 110.908 140.863 113.256 141.234C115.294 141.554 115.718 141.519 115.854 141.468C116.356 141.281 116.686 140.964 116.994 140.654C117.395 140.251 117.854 139.804 118.607 139.841C119.282 139.871 119.728 140.275 120.46 140.955C121.373 141.801 122.314 142.661 122.366 143.895C122.403 144.841 121.866 145.569 120.878 146.882C120.441 147.466 120.097 147.826 119.86 148.093C119.516 148.468 119.359 148.627 119.223 149.038C118.951 149.846 119.017 150.82 119.347 151.023C119.556 151.146 120.001 151.002 120.237 150.88C120.574 150.7 120.746 150.426 120.896 150.159C121.09 149.849 121.319 149.459 121.828 149.424C122.309 149.389 122.59 149.714 122.82 150.003C122.942 150.155 123.093 150.335 123.315 150.53C124.135 151.268 125.089 151.478 125.656 151.602C126.188 151.718 126.884 151.871 127.723 151.677C128.893 151.411 129.631 150.683 130.004 150.208C130.24 149.768 130.419 149.313 130.511 148.844C130.654 148.122 130.574 147.696 130.459 147.104C130.372 146.686 130.285 146.209 130.263 145.552C130.203 143.834 130.667 142.167 131.627 140.609C131.92 140.126 132.2 139.672 132.536 139.333C132.823 139.045 133.146 138.836 133.562 138.75C134.294 138.592 134.875 138.903 135.342 139.156C135.773 139.388 136.068 139.526 136.383 139.454C136.929 139.339 137.337 138.639 137.601 138.055C137.643 137.305 137.808 136.605 138.115 135.963C138.631 134.895 139.319 134.376 139.871 133.951C140.365 133.584 140.616 133.375 140.709 132.992C140.866 132.343 140.356 131.671 139.86 131.013C139.306 130.283 138.688 129.46 139.06 128.58C139.26 128.118 139.583 127.996 140.164 127.773C140.508 127.643 141.003 127.463 141.742 127.125C142.473 126.794 142.968 126.528 143.363 126.319C144.08 125.93 144.51 125.7 145.271 125.686C145.974 125.673 146.369 125.854 146.671 125.999C146.915 126.114 147.08 126.194 147.41 126.18C148.881 126.132 150.565 124.467 150.886 122.756C150.993 122.186 150.935 121.652 150.891 121.175C150.811 120.475 150.746 119.76 151.341 119.249C151.728 118.932 152.129 118.932 152.51 118.94C152.639 118.94 152.783 118.94 152.948 118.933C153.737 118.877 154.153 118.56 154.906 117.976C155.336 117.645 155.866 117.241 156.598 116.78C157.745 116.06 158.433 115.83 158.986 115.636C159.538 115.442 159.911 115.312 160.549 114.743C160.986 114.346 161.251 114.007 161.481 113.719C161.832 113.265 162.14 112.883 162.828 112.681C163.661 112.437 164.249 112.712 164.817 112.98C165.262 113.183 165.722 113.4 166.403 113.437C167.81 113.511 169.689 112.778 170.14 111.602C170.254 111.313 170.218 111.132 170.16 110.699C170.088 110.208 169.979 109.537 170.035 108.339C170.042 108.202 170.099 107.639 170.219 106.52L170.41 104.694C170.517 103.72 170.538 103.453 170.588 102.998C170.701 101.757 170.714 101.295 170.721 101.013C170.728 100.746 170.735 100.623 170.799 100.241C170.991 99.079 171.285 98.3503 171.549 97.7083C171.814 97.0518 172.028 96.5324 172.042 95.7095C172.055 94.9732 171.903 94.2151 171.594 93.4712L171.327 92.8284L172.009 92.7644C172.31 92.7359 172.727 92.7076 173.229 92.6939C173.99 92.6805 175.504 92.7042 177.033 93.06C178.454 93.394 179.331 93.8861 179.97 94.2406C180.71 94.6531 181.025 94.8123 181.585 94.6687C182.123 94.5323 182.754 94.129 182.89 93.6311C182.961 93.3858 182.882 93.2196 182.659 92.779C182.465 92.4106 182.227 91.9411 182.054 91.2335C181.917 90.6775 181.642 89.219 182.128 87.675C182.385 86.838 182.758 86.3621 183.023 86.0088C183.295 85.6627 183.424 85.4896 183.424 85.1142C183.416 84.7172 183.258 84.486 183.02 84.1753C182.747 83.7996 182.402 83.3371 182.38 82.5359C182.342 81.4892 182.872 80.6959 183.431 79.8593C183.717 79.4266 184.054 79.0157 184.42 78.648C184.642 78.4246 184.885 78.2084 185.136 78.0138C184.626 77.5295 184.109 77.0524 183.584 76.5969C183.096 76.1776 182.657 75.8088 182.269 75.4907C180.782 74.2543 179.963 73.5747 180.177 72.651C180.277 72.1892 180.585 72.0091 180.887 71.8219C181.08 71.6994 181.324 71.5554 181.618 71.2743C182.643 70.3445 183.179 69.0099 183.014 68.757C182.92 68.6198 182.059 68.7774 181.686 68.8346C180.603 69.028 179.247 69.2643 178.356 68.3681C177.558 67.5657 177.484 66.1508 177.756 65.1695C177.941 64.5201 178.242 64.1596 178.515 63.8424C178.751 63.5612 178.937 63.3449 179.045 62.9336C179.109 62.6955 179.073 62.515 178.921 61.8291C178.849 61.5114 178.762 61.0926 178.654 60.5511C178.263 58.4572 178.003 57.0854 177.45 56.8175C177.105 56.6583 176.718 56.8165 176.13 57.1045C175.513 57.3924 174.825 57.7234 174.114 57.3688C173.489 57.0575 173.129 56.3496 173.006 55.2162C172.181 55.3378 171.42 55.38 170.537 55.1406C169.302 54.7924 167.385 53.7865 167.289 52.4365C167.223 51.3898 168.3 51.1891 169.237 48.9889C169.602 48.1304 170.124 46.8823 169.599 46.1959C169.441 45.9935 169.168 45.7911 167.287 45.7307C165.486 45.6633 163.742 45.7836 163.305 45.8191C161.288 45.9535 161.087 46.0398 160.707 45.8155C159.651 45.1716 159.986 43.7934 158.852 43.2C158.413 42.9756 157.947 42.9822 157 43.0097C155.708 43.0513 155.35 43.3828 154.682 43.1004C154.136 42.8687 153.841 42.3991 153.575 41.9873C153.036 41.142 152.941 40.2973 152.919 39.8425C152.482 40.4555 151.845 41.3569 151.078 42.4458C150.075 43.8592 149.574 44.5803 149.409 44.8616C148.572 46.3547 148.551 46.9971 147.563 48.3961C146.689 49.6508 146.294 49.7297 146.086 49.7078C145.376 49.6274 145.302 48.3713 144.692 48.3055C143.96 48.2179 142.922 49.9416 142.565 51.7457C142.187 53.6724 142.891 54.1065 142.571 56.221C142.422 57.2242 142.116 59.2665 140.725 59.9431C139.864 60.3606 138.938 60.0923 137.768 59.7514C135.679 59.1494 135.254 58.2177 133.689 58.2588C133.517 58.2586 132.118 58.2927 131.832 58.9997C131.56 59.6779 132.608 60.2568 132.488 61.1445C132.31 62.393 129.886 63.4869 128.973 62.8143L128.995 62.836Z" fill="#E85022"/>
<path d="M174.579 56.4809C174.83 56.604 175.175 56.4601 175.713 56.2082C176.337 55.9131 177.104 55.546 177.901 55.9297C178.928 56.4147 179.188 57.8299 179.673 60.393C179.774 60.9273 179.861 61.3317 179.926 61.6421C180.084 62.3786 180.171 62.7396 180.035 63.2375C179.864 63.8725 179.556 64.2258 179.284 64.543C179.047 64.8242 178.854 65.0477 178.732 65.4734C178.532 66.1805 178.591 67.1912 179.073 67.6755C179.59 68.1959 180.616 68.0168 181.513 67.852C182.489 67.6801 183.414 67.5154 183.867 68.2306C184.507 69.2349 183.304 71.0955 182.308 72.0398C181.935 72.3857 181.634 72.573 181.412 72.7098C181.326 72.7674 181.189 72.8467 181.175 72.8755C181.104 73.2075 181.944 73.9088 182.922 74.7186C183.317 75.0439 183.762 75.4199 184.251 75.8393C184.976 76.4682 185.695 77.1333 186.378 77.8055C186.937 77.1855 187.962 76.2991 189.225 76.373C191.306 76.5058 192.673 79.1063 192.855 80.9327C192.913 81.568 192.835 81.9938 192.778 82.3402C192.707 82.701 192.671 82.8814 192.822 83.192C193.024 83.6254 193.318 83.7774 193.878 84.0236C194.417 84.2625 195.092 84.5522 195.717 85.3254C196.293 86.0336 196.473 86.7196 196.61 87.2178C196.747 87.7449 196.812 87.8966 196.998 87.969C197.149 88.0342 197.25 87.991 197.644 87.8111C198.039 87.6312 198.577 87.3793 199.43 87.2866C200.277 87.1867 200.794 87.303 201.167 87.4045C201.505 87.4844 201.677 87.5279 202.007 87.4129C202.502 87.2476 202.702 86.9302 202.982 86.5047C203.29 86.036 203.676 85.4446 204.53 85.0199C205.57 84.4944 207.077 84.2655 207.953 84.9885C208.521 85.4585 208.536 86.0793 208.565 86.6712C208.58 87.2342 208.61 87.8695 209.013 88.693C209.193 89.0469 209.365 89.2925 209.524 89.5093C209.797 89.885 210.056 90.2463 209.999 90.8381C209.935 91.4805 209.555 91.8048 209.254 92.0786C209.018 92.2877 208.803 92.475 208.681 92.8141C208.538 93.2037 208.639 93.4493 208.798 93.8537C208.97 94.3015 209.186 94.8504 209.08 95.6804C208.981 96.4454 208.694 96.878 208.429 97.2602C208.193 97.6136 207.999 97.8804 207.978 98.4362C207.93 99.3962 208.426 100.111 208.526 100.242C209.03 100.921 209.985 101.521 211.004 101.349C211.14 101.328 211.85 101.192 212.359 100.593C212.689 100.204 212.767 99.8071 212.831 99.4535C212.91 99.071 212.995 98.5947 213.49 98.4005C214.071 98.1775 214.509 98.5896 214.933 99.0016C215.35 99.3919 215.867 99.8835 216.7 100.173C217.074 100.304 217.303 100.319 217.555 100.341C217.835 100.363 218.143 100.385 218.574 100.559C219.385 100.884 220.068 101.499 220.615 102.38C221.245 101.371 221.933 100.852 222.708 100.81C223.253 100.782 223.641 101.013 223.957 101.187C224.23 101.346 224.352 101.411 224.489 101.375C224.682 101.339 224.79 101.072 225.04 100.401C225.211 99.9252 225.433 99.3264 225.813 98.6412C226.407 97.552 227.023 96.961 227.518 96.478C228.077 95.9446 228.478 95.5554 228.728 94.6535C228.864 94.1556 228.863 93.8524 228.863 93.5781C228.855 93.2244 228.862 92.8563 229.184 92.4309C230.295 90.9815 233.431 91.2818 235.815 92.3822C237.331 93.0845 238.15 93.9374 238.811 94.6312C239.458 95.3106 239.889 95.7588 240.722 95.7888C241.36 95.8113 241.712 95.588 242.242 95.2423C242.859 94.8389 243.626 94.3419 245.076 94.1274C246.13 93.9628 246.733 94.0791 247.272 94.1737C247.774 94.261 248.169 94.3409 248.915 94.1398C249.869 93.8885 250.479 93.449 251.016 93.0672C251.662 92.6061 252.271 92.1666 253.14 92.3772C253.944 92.5804 254.361 93.2017 254.677 93.6641C254.936 94.0543 255.073 94.2349 255.238 94.2279C255.69 94.2213 256.478 93.2407 256.491 92.2158C256.505 91.7249 256.325 91.4432 256.102 91.0747C255.857 90.6846 255.548 90.1861 255.561 89.421C255.587 87.4432 257.652 86.1612 257.746 86.1108C258.384 85.7291 259.202 85.4848 261.34 85.4878C262.991 85.49 263.989 85.6285 264.714 85.7378C265.431 85.8399 265.754 85.8908 266.149 85.7253C267.246 85.2721 267.947 83.5118 268.187 80.6393C267.828 80.3356 267.512 79.8732 267.037 79.1363C266.145 77.7491 265.699 77.0556 265.698 76.3337C265.704 75.4748 266.141 74.9484 266.492 74.523C266.815 74.1265 266.937 73.9606 266.886 73.7224C266.778 73.1375 265.83 72.6598 265.341 72.5003C264.882 72.3409 264.487 72.3331 264.15 72.3254C263.712 72.3176 263.224 72.3025 262.979 71.8402C262.713 71.3418 263.014 70.8658 263.229 70.5052C263.386 70.2455 263.551 69.9787 263.501 69.7982C263.443 69.6248 262.998 69.4077 262.38 69.1181C261.921 68.9009 261.59 68.7994 261.332 68.7124C260.937 68.5892 260.592 68.4732 260.355 68.0903C260.031 67.5629 260.203 67.0579 260.374 66.5673C260.46 66.322 260.56 66.0334 260.624 65.6942C260.831 64.619 260.514 63.7379 259.88 61.9902C259.398 60.6542 258.858 59.7367 258.462 59.0649C257.801 57.9523 257.247 57.2658 256.14 55.9073C255.414 55.0184 254.997 54.5703 254.753 54.339C254.703 54.8081 254.653 54.8441 254.581 54.9162L254.445 55.0532L253.835 55.0451L253.741 54.6336C253.741 54.6336 253.662 54.1498 253.79 53.7169C253.818 53.255 253.86 52.5043 253.909 51.3711C251.647 49.9604 251.093 48.9708 251.192 48.2635C251.377 47.08 253.372 46.6929 253.42 45.2854C253.434 44.7369 253.089 44.26 252.391 43.3279C251.349 41.9189 250.875 41.9904 250.17 40.9067C249.976 40.596 248.797 38.7898 249.52 37.6431C249.792 37.2104 250.258 37.0017 250.631 36.9012C250.258 36.482 249.769 35.8605 249.33 35.0298C248.884 34.1919 248.373 33.2167 248.393 32.0546C248.427 31.0513 248.829 31.1818 249.594 28.9813C249.988 27.8774 250.101 27.2135 250.702 25.814C251.096 24.8978 251.304 24.5877 251.633 24.3283C252.336 23.7662 252.796 24.0989 253.757 23.6816C255.184 23.0555 255.333 21.8214 256.072 21.9162C256.833 22.0039 256.849 23.3754 257.646 23.4992C258.134 23.5721 258.363 23.096 259.962 21.5463C261.201 20.3281 261.653 20.0472 261.624 19.4985C261.58 18.8055 260.819 18.6168 260.883 18.0033C260.946 17.3466 261.836 17.3478 262.172 16.5181C262.501 15.7246 262.091 14.7351 261.71 14.1932C261.192 13.4562 260.683 13.5061 260.222 12.697C260.006 12.3069 259.949 11.9748 259.854 11.39C259.399 8.55255 259.47 8.04737 259.197 7.94594C258.486 7.66345 257.392 10.8596 255.598 10.8283C254.478 10.8123 254.003 9.58458 252.913 9.79963C252.181 9.94299 252.182 10.5204 251.335 11.0101C250.317 11.5862 249.24 11.3682 247.446 11.0048C245.436 10.5978 244.431 10.3943 244.013 9.59971C243.395 8.40062 244.584 6.87198 244.102 6.53206C243.715 6.25723 243.063 7.31743 241.7 7.45992C240.487 7.58096 240.314 6.83003 238.735 6.71237C237.206 6.58756 236.762 7.2366 235.864 6.79505C235.153 6.44037 234.844 5.73977 234.57 5.11862C233.98 3.78965 234.064 2.50491 234.185 1.76159C232.565 2.84211 231.374 2.91264 230.584 2.78163C228.89 2.505 228.386 1.17615 226.599 1.19535C225.458 1.201 225.293 1.74214 224.188 1.56738C223.111 1.39266 222.838 0.814837 221.776 0.813377C220.95 0.819461 220.936 1.16592 220.111 1.18644C218.784 1.20627 218.431 0.303502 217.613 0.533363C216.73 0.770354 216.883 1.8894 215.857 2.29943C214.989 2.6375 214.55 1.98002 213.819 2.29662C213.008 2.63476 213.117 3.60939 212.338 5.46342C211.4 7.67814 210.676 7.61218 210.584 8.90413C210.492 10.1816 211.104 11.5323 211.981 12.3564C212.843 13.1516 213.302 12.8202 214.021 13.6585C214.927 14.7136 214.562 15.6876 215.409 16.1796C215.941 16.4835 216.17 16.1517 217.268 16.3626C217.498 16.4062 219.271 16.7768 219.394 17.5782C219.474 18.0908 218.785 18.2198 218.291 19.2513C217.762 20.3333 218.2 20.8464 217.735 21.4882C217.226 22.1877 216.408 21.9556 214.865 22.3216C213.667 22.6015 211.83 23.0465 210.978 24.3662C210.061 25.7942 210.968 27.2247 209.778 28.3635C209.197 28.933 208.838 28.7159 208.581 29.2064C207.986 30.2811 209.667 31.3517 209.606 33.5821C209.564 34.7514 209.084 34.9745 209.329 35.9132C209.625 37.0469 210.464 37.1564 210.53 38.0587C210.603 39.0261 209.708 40.1437 208.689 40.4743C207.419 40.884 206.299 39.973 205.998 40.3768C205.704 40.7734 206.832 41.5762 206.74 42.7959C206.663 43.8713 205.681 44.9455 204.798 44.9371C203.887 44.9286 203.448 43.7514 203.039 43.9169C202.594 44.0895 203.027 45.5482 202.857 47.829C202.745 49.4601 202.681 50.3624 202.037 51.0833C201.248 51.9484 200.587 51.4855 198.608 52.4789C196.966 53.2923 197.06 53.7905 195.919 54.056C194.534 54.379 194.246 53.6712 192.589 53.8638C190.759 54.0706 190.631 54.9944 189.346 54.8843C188.083 54.7671 188.017 53.8503 185.92 52.9235C185.36 52.6773 184.369 52.2428 183.142 52.1762C182.381 52.1318 181.693 52.2319 178.888 53.2891C175.868 54.4327 175.381 54.793 174.025 55.0437C174.119 56.0761 174.421 56.3797 174.586 56.4593L174.579 56.4809Z" fill="#FF9778"/>
<path d="M55.1403 252.712C55.8793 252.547 56.4751 252.627 57.0924 252.714C58.6069 252.926 58.7941 253.388 59.9355 253.628C61.9814 254.057 63.8102 253.128 64.3122 252.869C65.3521 252.329 66.0903 251.63 66.3985 251.334C67.6599 250.109 67.7092 249.38 68.5486 249.172C69.431 248.949 69.8266 249.635 70.9747 249.521C71.5272 249.457 71.9862 249.241 72.3519 248.989C72.3514 248.672 72.3367 248.354 72.3003 248.029C72.2641 247.762 72.0914 247.459 71.9116 247.133C71.5807 246.556 71.1778 245.833 71.435 244.982C71.6922 244.101 72.4806 243.352 73.4347 243.057C74.3098 242.784 74.9561 243.045 75.5233 243.284C75.9542 243.458 76.3563 243.617 76.9017 243.603C78.4159 243.555 79.7057 242.142 80.0278 241.485C79.6116 241.499 78.9801 241.527 78.2332 241.18C77.6372 240.898 76.6173 240.29 76.5443 239.351C76.4857 238.499 77.217 237.995 77.9269 237.527C78.6009 237.08 79.2892 236.619 79.4102 235.876C79.4743 235.522 79.3878 235.234 79.3012 234.93C79.1859 234.526 79.0416 234.02 79.407 233.523C79.7723 233.025 80.289 233.012 80.7411 232.991C81.1214 232.969 81.5161 232.948 81.9966 232.725C82.6134 232.423 82.9501 231.969 83.5661 231.118C84.0819 230.411 84.2822 229.92 84.4467 229.524C84.647 229.047 84.8186 228.629 85.3708 228.291C86.0376 227.866 86.6405 227.924 87.1286 227.983C87.5736 228.027 87.832 228.041 88.1331 227.84C88.4199 227.652 88.4699 227.457 88.5911 226.859C88.6909 226.397 88.8264 225.754 89.1985 224.932C89.6708 223.893 90.2439 223.201 90.6667 222.704C91.1539 222.112 91.3258 221.882 91.2536 221.607C91.2176 221.47 91.1673 221.434 90.9303 221.282C90.6645 221.101 90.2982 220.862 89.9529 220.299C89.212 219.064 89.4182 217.656 89.6031 216.415C89.717 215.665 89.9097 214.936 90.1887 214.25C90.5749 213.298 90.9683 212.324 91.6277 211.661C91.9287 211.358 92.2944 211.121 92.732 210.984C93.8797 210.625 95.1004 211.103 95.3373 211.197C95.5887 211.306 95.761 211.407 95.9262 211.501C96.7019 211.964 97.0829 212.434 97.3849 212.809C97.5933 213.062 97.7658 213.265 98.0172 213.417C98.7857 213.887 99.9481 213.701 100.335 213.254C100.443 213.131 100.442 213.045 100.428 212.756C100.413 212.453 100.391 212.027 100.634 211.507C100.977 210.743 101.551 210.484 102.053 210.239C102.491 210.03 102.921 209.829 103.337 209.31C103.616 208.956 103.695 208.718 103.802 208.365C103.916 208.004 104.059 207.556 104.453 206.9C104.897 206.15 105.47 205.472 106.144 204.896C106.294 204.21 106.486 203.539 106.722 202.897C107.144 201.779 107.667 200.848 108.942 198.93C109.83 197.603 110.317 196.954 110.639 196.514C110.976 196.06 111.098 195.909 111.305 195.454C111.663 194.689 111.849 193.997 112.226 191.363C112.531 189.248 112.673 187.906 112.772 186.924C112.928 185.394 112.992 184.824 113.471 183.85C114.638 181.491 116.157 180.108 117.758 179.944C118.525 179.865 119.085 180.083 119.581 180.278C120.091 180.488 120.493 180.648 121.131 180.511C122.164 180.296 122.802 179.525 123.619 178.544C124.493 177.491 125.682 176.049 125.494 174.418C125.377 173.494 124.831 172.555 124.075 171.262C123.888 170.944 123.73 170.684 123.586 170.467C123.155 169.788 122.867 169.34 123.132 168.813C123.418 168.236 124.05 168.237 124.789 168.231C125.363 168.232 126.074 168.225 126.942 168.032C128.312 167.723 129.345 167.162 129.366 166.866C129.373 166.743 129.035 166.461 128.841 166.295C128.396 165.919 127.835 165.456 127.935 164.734C128.013 164.164 128.429 163.876 129.124 163.408C129.791 162.954 130.315 162.745 130.709 162.594C130.874 162.53 131.068 162.45 131.125 162.407C131.075 162.429 130.91 162.262 130.802 162.154C130.471 161.822 130.026 161.373 130.018 160.673C130.01 160.06 130.346 159.706 130.655 159.396C130.827 159.223 131.013 159.036 131.156 158.776C131.693 157.875 131.462 156.806 131 154.683C130.783 153.658 130.445 152.654 130.056 151.658C129.547 152.083 128.858 152.501 127.976 152.709C126.914 152.953 126.045 152.771 125.471 152.64C124.839 152.495 123.676 152.248 122.663 151.33C122.397 151.091 122.211 150.875 122.074 150.694C122.024 150.643 121.966 150.571 121.93 150.52C121.887 150.578 121.83 150.665 121.794 150.73C121.601 151.054 121.329 151.501 120.755 151.804C120.576 151.897 119.629 152.387 118.868 151.938C117.877 151.359 117.989 149.67 118.296 148.754C118.497 148.134 118.776 147.838 119.149 147.434C119.392 147.175 119.693 146.843 120.102 146.302C121.033 145.062 121.413 144.536 121.39 143.98C121.353 143.164 120.649 142.514 119.823 141.755C119.176 141.162 118.903 140.916 118.609 140.908C118.307 140.893 118.114 141.074 117.748 141.441C117.397 141.794 116.953 142.227 116.235 142.486C115.898 142.608 115.482 142.665 113.135 142.294C110.594 141.901 109.323 141.704 108.519 141.255C108.217 141.082 107.973 140.923 107.758 140.778C107.348 140.496 107.226 140.431 107.061 140.467C106.839 140.517 106.695 140.748 106.481 141.108C106.266 141.483 105.994 141.959 105.463 142.074C104.667 142.253 103.826 141.567 102.769 139.898C101.923 140.777 100.926 141.418 99.8288 141.756C99.011 142 97.5046 142.46 96.7212 141.614C96.2181 141.065 96.3678 140.365 96.5033 139.737C96.6317 139.146 96.7601 138.54 96.4579 137.962C96.1341 137.333 95.4302 136.899 95.1002 137C95.0213 137.021 94.9783 137.122 94.8281 137.433C94.6778 137.757 94.4703 138.197 94.0619 138.695C93.4385 139.452 92.7645 139.855 92.1693 140.208C91.4451 140.633 90.8712 140.834 90.448 140.985C89.9172 141.172 89.7235 141.251 89.5732 141.504C89.3512 141.9 89.4452 142.398 89.5392 142.926C89.6982 143.763 90.0649 144.247 90.3884 144.674C90.7192 145.107 91.0571 145.562 90.9359 146.205C90.8147 146.789 90.3203 147.33 89.5672 147.697C88.8357 148.057 87.7452 148.286 86.8834 147.852C86.395 147.606 86.1721 147.237 85.9851 146.949C85.8197 146.681 85.7118 146.501 85.4174 146.377C85.123 146.254 84.9077 146.297 84.6064 146.369C84.2405 146.448 83.7957 146.548 83.2571 146.281C82.3379 145.817 81.8913 144.604 81.854 143.601C81.8387 142.922 82.0176 142.511 82.1679 142.186C82.2823 141.927 82.3539 141.768 82.3177 141.515C82.2524 141.017 81.8569 140.461 81.3038 140.092C80.9231 139.839 80.5211 139.723 80.2628 139.795C79.9759 139.866 79.7898 140.213 79.5893 140.573C79.3316 141.049 79.0023 141.641 78.3062 141.676C77.7249 141.711 77.344 141.314 77.0637 141.017C76.8338 140.786 76.69 140.641 76.5393 140.648C76.1949 140.662 75.8155 141.348 75.5649 141.788C75.1496 142.523 75.0069 143.129 74.8928 143.62C74.7644 144.183 74.6359 144.717 74.0907 144.904C73.5097 145.098 73.0355 144.707 72.6476 144.404C72.2884 144.115 72.0369 143.934 71.8145 143.984C71.7356 144.005 71.7141 144.027 71.535 144.265C71.3917 144.467 71.1912 144.741 70.8328 145.073C69.7433 146.082 68.7823 146.499 67.971 146.303C67.2244 146.129 66.8935 145.522 66.6273 145.038C66.3899 144.597 66.2244 144.33 65.9157 144.25C65.6142 144.178 65.3274 144.336 65.0118 144.494C64.6461 144.689 64.1441 144.948 63.6413 144.658C63.1242 144.34 63.1306 143.784 63.1442 143.236C63.158 142.788 63.1644 142.276 62.9555 141.691C62.9411 141.676 62.4009 140.167 61.2234 139.761C60.7136 139.58 60.3477 139.702 59.8456 139.875C59.2933 140.054 58.6046 140.284 57.657 140.052C56.9463 139.871 56.5726 139.553 56.2709 139.292C55.9978 139.061 55.8254 138.902 55.4019 138.851C54.9066 138.785 54.627 138.936 54.2397 139.138C53.8238 139.354 53.3002 139.62 52.4892 139.598C51.7357 139.575 51.3334 139.314 50.9455 139.054C50.6151 138.837 50.2847 138.62 49.6099 138.46C49.1002 138.337 47.7579 138.111 46.3878 138.622C45.8355 138.83 45.4699 139.097 45.1401 139.328C44.6669 139.673 44.1794 140.019 43.3898 139.946C42.7439 139.887 42.1335 139.605 41.3648 139.005C40.2368 138.115 39.2376 136.909 38.5469 135.594C38.3167 135.16 38.0147 134.727 37.6481 134.329C37.3334 135.109 36.8606 135.772 36.2079 135.995C34.5652 136.534 33.0474 133.926 31.7635 134.495C30.6518 134.991 31.5302 137.042 30.0478 139.386C29.9404 139.552 28.2288 142.199 25.7028 142.354C24.1313 142.46 23.6061 141.5 22.2718 141.888C21.7266 142.046 20.9664 142.449 19.7778 144.396C18.6464 146.257 18.1462 147.844 17.6103 149.569C15.6097 156.048 15.5168 156.358 15.001 157.036C13.5611 158.932 12.642 158.599 11.3244 160.734C10.7229 161.715 9.69895 163.381 9.88112 165.409C10.0925 167.842 11.8013 168.379 11.625 170.652C11.519 171.886 11.0023 171.915 10.7893 173.589C10.7041 174.282 10.5196 175.797 11.2107 177.357C11.9305 178.975 13.2522 179.872 14.2723 180.581C15.673 181.529 16.1608 181.414 17.1956 182.397C17.4687 182.657 18.2807 183.474 18.8566 184.774C19.4181 186.016 19.477 187.114 19.5588 189.243C19.6701 191.892 19.391 192.462 19.9879 193.437C20.1678 193.734 20.8221 194.723 22.0714 195.115C22.3442 195.202 23.0981 195.441 23.9518 195.19C25.2215 194.809 25.5716 193.647 26.0311 193.792C26.4403 193.93 26.2408 194.94 26.5869 196.168C26.8681 197.157 27.2488 197.381 28.6076 199.181C30.8076 202.085 30.7942 202.807 31.8784 203.162C32.6179 203.402 32.6102 203.062 34.5838 203.101C36.6436 203.14 37.6914 203.156 38.4028 203.872C39.1718 204.645 38.7638 205.46 39.7985 206.385C40.0428 206.602 40.6392 207.144 41.2562 207.015C41.866 206.894 41.8078 206.273 42.5749 205.689C43.0696 205.322 43.7368 205.214 45.0714 205C46.4059 204.785 46.442 204.922 47.0159 204.721C47.8336 204.433 48.1129 204.022 49.1022 203.186C50.6864 201.838 51.4892 201.161 52.0134 201.371C52.6094 201.624 52.6256 203.01 52.6437 205.782C52.654 208.056 52.4756 208.814 53.0651 209.551C53.7912 210.454 54.6087 209.993 55.2915 210.81C55.8666 211.489 55.7817 212.399 55.0839 216.469C54.5856 219.428 54.4144 220.236 54.9606 220.8C55.1403 220.995 55.2479 220.988 57.5241 221.85C58.8309 222.342 58.8956 222.378 58.9818 222.48C59.8514 223.398 58.7838 224.659 59.5467 226.248C60.0793 227.361 60.955 227.506 60.8697 228.141C60.7845 228.805 59.78 228.934 58.5824 229.604C56.6032 230.712 55.063 232.782 54.5562 234.766C54.1136 236.527 54.8388 236.766 54.2164 238.187C53.5224 239.782 52.396 239.989 51.9964 241.678C51.8965 242.111 51.6967 242.977 52.0711 243.844C52.6038 245.086 53.7016 244.878 54.227 246.012C54.7381 247.132 54.2304 248.51 53.8872 249.433C53.5725 250.284 53.3788 250.306 53.0572 251.251C52.9928 251.431 52.2566 253.588 52.7737 253.907C53.1544 254.131 53.684 253.121 55.1333 252.791L55.1403 252.712Z" fill="#FFC3B1"/>
<path d="M189.05 195.684C189.323 196.089 189.632 196.356 189.955 196.45C190.249 196.53 190.45 196.458 190.802 196.322C191.132 196.192 191.533 196.034 192.079 196.064C192.954 196.123 193.414 196.628 193.81 197.084C194.126 197.445 194.435 197.785 194.973 197.952C195.318 198.053 195.469 198.017 196.222 197.809C196.695 197.68 197.334 197.5 198.331 197.292C201.294 196.668 202.062 196.893 202.458 197.218C203.09 197.739 203.148 198.49 203.199 199.089C203.228 199.435 203.25 199.789 203.394 199.862C203.538 199.934 203.839 199.761 204.162 199.581C204.714 199.271 205.474 198.854 206.414 199.079C206.981 199.217 207.341 199.52 207.607 199.745C207.872 199.969 207.951 200.019 208.073 199.998C208.21 199.976 208.296 199.876 208.468 199.601C208.661 199.306 208.926 198.895 209.464 198.715C210.676 198.305 212.256 199.376 213.026 200.611C213.601 201.536 213.639 202.409 213.675 203.052C213.697 203.405 213.705 203.745 213.813 203.81C213.87 203.853 214.473 204.143 216.961 202.118C217.8 201.39 218.71 200.763 219.678 200.252C220.761 199.683 221.414 199.345 222.318 199.288C223.366 199.232 223.969 199.608 224.5 199.941C224.931 200.202 225.298 200.44 225.929 200.484C226.827 200.551 227.45 200.154 228.06 199.787C228.741 199.362 229.444 198.93 230.37 199.256C231.059 199.503 231.512 200.261 232.512 201.915C232.901 202.566 233.167 203.064 233.368 203.454C233.742 204.162 233.886 204.437 234.289 204.683C234.992 205.117 235.933 205.197 236.334 204.866C236.492 204.736 236.513 204.599 236.556 204.094C236.584 203.776 236.605 203.379 236.719 202.903C237.04 201.611 237.965 200.638 239.821 198.699C241.311 197.142 242.057 196.363 242.889 196.119C243.212 196.026 243.499 195.939 246.965 196.24L247.374 196.277C248.889 196.416 249.255 196.438 249.52 196.215C249.649 196.114 249.671 196.063 249.821 195.522C249.913 195.197 250.042 194.765 250.271 194.13C250.442 193.639 250.593 193.257 250.707 192.968C250.764 192.824 250.821 192.68 250.864 192.564C250.771 192.586 250.685 192.614 250.592 192.636C250.047 192.794 249.214 193.024 248.338 192.676C247.469 192.321 246.779 191.497 246.57 190.566C246.368 189.642 246.697 188.892 246.811 188.646C247.505 187.038 249.141 186.39 249.93 186.074C251.192 185.57 252.089 185.521 252.821 185.478C253.532 185.443 253.962 185.415 254.428 184.99C255.331 184.139 255.308 182.818 255.3 182.667C255.241 181.295 254.278 180.457 253.991 180.225L253.107 179.538C251.7 178.757 250.364 177.874 249.128 176.905C246.419 174.772 246.203 173.848 246.346 173.213C246.538 172.34 247.413 172.038 248.252 171.729C249.049 171.448 249.859 171.153 250.16 170.432C250.439 169.761 250.222 168.837 249.561 167.84C248.554 166.337 246.407 165.489 245.216 166.137C244.879 166.317 244.729 166.584 244.55 166.88C244.335 167.255 244.063 167.717 243.417 167.86C242.7 168.018 242.233 167.635 241.73 167.23C241.321 166.904 240.81 166.492 239.97 166.152C239.446 165.942 239.03 165.84 238.656 165.753C238.046 165.615 237.479 165.477 237.198 164.863C237.033 164.495 237.068 164.3 237.346 162.705L237.389 162.445C237.546 161.546 237.629 161.077 237.638 161.038C237.974 160.107 238.67 159.769 239.344 159.438C239.875 159.179 240.384 158.941 240.993 158.343C241.058 158.278 242.591 156.692 242.331 155.061C242.28 154.721 242.179 154.562 241.992 154.273C241.813 153.992 241.59 153.638 241.345 153.016C241.237 152.735 240.675 151.233 240.752 149.637C240.773 149.139 240.822 148.223 243.127 144.285C243.363 143.874 243.585 143.506 243.786 143.189C244.115 142.64 244.437 142.114 244.595 141.782C244.415 141.832 244.186 141.89 243.942 141.962C243.677 142.041 243.354 142.134 242.959 142.242C241.094 142.759 240.319 142.96 239.716 142.901C238.288 142.762 237.347 141.801 236.348 140.796C235.766 140.211 234.565 139.004 234.075 137.112C233.909 136.469 233.908 136.094 233.915 135.726C233.922 135.386 233.921 135.04 233.784 134.383C233.524 133.199 233.293 132.087 232.503 131.523C231.246 130.619 229.087 131.402 228.455 131.661C227.795 131.935 227.38 132.237 227.021 132.497C226.534 132.857 226.068 133.196 225.328 133.086C224.058 132.904 222.886 131.538 222.762 130.102C222.762 130.058 222.762 130.03 222.762 129.986C221.254 129.349 220.177 129.203 219.704 129.607C219.36 129.895 219.361 130.4 219.326 130.999C219.298 131.75 219.264 132.695 218.504 133.33C217.973 133.791 217.457 133.776 216.746 133.753C216.258 133.738 215.591 133.715 214.615 133.815C212.9 134.008 211.652 134.439 210.977 134.669C209.657 135.129 208.539 135.691 208.001 136.058C208.03 136.087 208.073 136.116 208.101 136.145C208.454 136.499 208.591 137.113 208.47 137.885C208.306 138.903 207.676 140.158 206.629 140.662C205.977 140.971 205.474 140.84 204.95 140.703C204.562 140.601 204.132 140.485 203.478 140.477C203.364 140.477 200.536 140.458 199.505 141.973C199.154 142.485 199.19 142.911 199.248 143.488C199.307 144.124 199.387 144.91 198.893 145.913C198.413 146.887 197.768 147.29 197.202 147.643C196.671 147.974 196.219 148.255 195.84 148.984C195.532 149.583 195.554 149.936 195.584 150.514C195.62 151.07 195.657 151.77 195.422 152.86C195.201 153.92 194.28 157.42 191.826 158.081C191.073 158.289 190.448 158.151 189.501 157.947C188.18 157.657 187.426 157.187 186.88 156.839C186.413 156.543 186.183 156.413 185.882 156.456C185.408 156.527 185.143 156.996 184.728 157.804C184.334 158.576 183.848 159.542 182.866 160.27C181.668 161.156 180.054 161.45 178.058 161.144C178.376 162.747 178.242 164.111 177.648 165.214C177.218 166.022 176.695 166.404 176.186 166.772C175.67 167.146 175.139 167.535 174.588 168.48C174.337 168.906 174.158 169.317 174.008 169.685C173.679 170.449 173.364 171.185 172.561 171.372C172.015 171.501 171.577 171.291 171.283 171.154C171.247 171.132 171.204 171.117 171.154 171.096C171.161 171.291 171.226 171.644 171.27 171.919C171.407 172.706 171.617 173.781 171.403 175.008C171.211 176.214 170.717 176.985 170.323 177.613C169.922 178.247 169.757 178.543 169.894 178.94C170.117 179.583 171.001 179.952 172.114 180.409C172.939 180.749 173.794 181.104 174.727 180.903C175.193 180.795 175.473 180.601 175.745 180.414C176.082 180.176 176.462 179.924 177.008 180.069C177.74 180.272 178.021 181.001 178.251 181.594C178.338 181.825 178.511 182.244 178.611 182.287C178.618 182.28 178.719 182.179 178.79 182.107C179.012 181.883 179.313 181.581 179.83 181.423C181.057 181.042 182.658 181.672 183.133 182.726C183.464 183.478 183.135 184.112 182.834 184.675C182.569 185.187 182.319 185.656 182.427 186.284C182.601 187.237 183.492 188.003 184.253 188.322C184.935 188.605 185.466 188.504 186.026 188.404C186.549 188.311 187.087 188.203 187.662 188.478C189.026 189.13 189.446 191.411 188.999 195.605L189.05 195.684Z" fill="#FFC3B1"/>
<path d="M149.295 74.3636V86H147.886V75.8409H147.818L144.977 77.7273V76.2955L147.886 74.3636H149.295Z" fill="white"/>
<path d="M228.136 67.1591C227.386 67.1591 226.718 67.0303 226.131 66.7727C225.547 66.5152 225.083 66.1572 224.739 65.6989C224.398 65.2367 224.212 64.7008 224.182 64.0909H225.614C225.644 64.4659 225.773 64.7898 226 65.0625C226.227 65.3314 226.525 65.5398 226.892 65.6875C227.259 65.8352 227.667 65.9091 228.114 65.9091C228.614 65.9091 229.057 65.822 229.443 65.6477C229.83 65.4735 230.133 65.2311 230.352 64.9205C230.572 64.6098 230.682 64.25 230.682 63.8409C230.682 63.4129 230.576 63.036 230.364 62.7102C230.152 62.3807 229.841 62.1231 229.432 61.9375C229.023 61.7519 228.523 61.6591 227.932 61.6591H227V60.4091H227.932C228.394 60.4091 228.799 60.3258 229.148 60.1591C229.5 59.9924 229.775 59.7576 229.972 59.4545C230.172 59.1515 230.273 58.7955 230.273 58.3864C230.273 57.9924 230.186 57.6496 230.011 57.358C229.837 57.0663 229.591 56.839 229.273 56.6761C228.958 56.5133 228.587 56.4318 228.159 56.4318C227.758 56.4318 227.379 56.5057 227.023 56.6534C226.67 56.7973 226.383 57.0076 226.159 57.2841C225.936 57.5568 225.814 57.8864 225.795 58.2727H224.432C224.455 57.6629 224.638 57.1288 224.983 56.6705C225.328 56.2083 225.778 55.8485 226.335 55.5909C226.896 55.3333 227.511 55.2045 228.182 55.2045C228.902 55.2045 229.519 55.3504 230.034 55.642C230.549 55.9299 230.945 56.3106 231.222 56.7841C231.498 57.2576 231.636 57.7689 231.636 58.3182C231.636 58.9735 231.464 59.5322 231.119 59.9943C230.778 60.4564 230.314 60.7765 229.727 60.9545V61.0455C230.462 61.1667 231.036 61.4792 231.449 61.983C231.862 62.483 232.068 63.1023 232.068 63.8409C232.068 64.4735 231.896 65.0417 231.551 65.5455C231.21 66.0455 230.744 66.4394 230.153 66.7273C229.563 67.0152 228.89 67.1591 228.136 67.1591Z" fill="white"/>
<path d="M88.2045 126V124.977L92.0455 120.773C92.4962 120.28 92.8674 119.852 93.1591 119.489C93.4508 119.121 93.6667 118.777 93.8068 118.455C93.9508 118.129 94.0227 117.788 94.0227 117.432C94.0227 117.023 93.9242 116.669 93.7273 116.369C93.5341 116.07 93.2689 115.839 92.9318 115.676C92.5947 115.513 92.2159 115.432 91.7955 115.432C91.3485 115.432 90.9583 115.525 90.625 115.71C90.2955 115.892 90.0398 116.148 89.858 116.477C89.6799 116.807 89.5909 117.193 89.5909 117.636H88.25C88.25 116.955 88.4072 116.356 88.7216 115.841C89.036 115.326 89.464 114.924 90.0057 114.636C90.5511 114.348 91.1629 114.205 91.8409 114.205C92.5227 114.205 93.1269 114.348 93.6534 114.636C94.1799 114.924 94.5928 115.312 94.892 115.801C95.1913 116.29 95.3409 116.833 95.3409 117.432C95.3409 117.86 95.2633 118.278 95.108 118.688C94.9564 119.093 94.6913 119.545 94.3125 120.045C93.9375 120.542 93.4167 121.148 92.75 121.864L90.1364 124.659V124.75H95.5455V126H88.2045Z" fill="white"/>
<path d="M178.932 127.614V126.455L184.045 118.364H184.886V120.159H184.318L180.455 126.273V126.364H187.341V127.614H178.932ZM184.409 130V127.261V126.722V118.364H185.75V130H184.409Z" fill="white"/>
</g>
<defs>
<clipPath id="clip0_240_4189">
<rect width="254.988" height="373.974" fill="white" transform="translate(374.077) rotate(89.7852)"/>
</clipPath>
</defs>
</svg>
