<svg width="17" height="17" viewBox="0 0 17 17" fill="none" xmlns="http://www.w3.org/2000/svg">
<g id="2">
<path id="Union" fill-rule="evenodd" clip-rule="evenodd" d="M16.1426 16.3244C16.338 16.5195 16.6546 16.5193 16.8497 16.3238C17.0448 16.1284 17.0445 15.8118 16.8491 15.6167L9.21353 7.99359L16.3536 0.853566C16.5488 0.658305 16.5488 0.341722 16.3536 0.14646C16.1583 -0.0488025 15.8417 -0.0488023 15.6464 0.14646L8.50584 7.28706L1.35327 0.146158C1.15785 -0.0489445 0.841268 -0.0486862 0.646165 0.146735C0.451063 0.342157 0.451321 0.658739 0.646743 0.853842L7.79873 7.99417L0.146447 15.6465C-0.0488155 15.8417 -0.0488155 16.1583 0.146447 16.3536C0.341709 16.5488 0.658291 16.5488 0.853553 16.3536L8.50642 8.7007L16.1426 16.3244Z" fill="#8C8C8C"/>
</g>
</svg>
