<svg width="48" height="62" viewBox="0 0 48 62" fill="none" xmlns="http://www.w3.org/2000/svg">
<path d="M23.8984 29.5461C27.8377 29.5461 31.0311 26.3777 31.0311 22.4693C31.0311 18.561 27.8377 15.3926 23.8984 15.3926C19.9591 15.3926 16.7657 18.561 16.7657 22.4693C16.7657 26.3777 19.9591 29.5461 23.8984 29.5461Z" fill="#E85022"/>
<path d="M23.8946 0C10.6991 0 0 10.6151 0 23.7071C0 34.6761 17.2968 54.8449 22.468 60.5063C23.1813 61.3909 24.4295 61.3909 25.3211 60.5063C30.314 54.8449 47.6109 34.6761 47.6109 23.7071C47.6109 10.6151 36.9118 0 23.8946 0ZM23.8946 34.1454C17.4751 34.1454 12.1256 28.8378 12.1256 22.4687C12.1256 16.0996 17.4751 10.7921 23.8946 10.7921C30.314 10.7921 35.6636 16.0996 35.6636 22.4687C35.6636 29.0147 30.314 34.1454 23.8946 34.1454Z" fill="#E85022"/>
</svg>
