<svg width="16" height="20" viewBox="0 0 16 20" fill="none" xmlns="http://www.w3.org/2000/svg">
<g id="Frame" clip-path="url(#clip0_240_3772)">
<g id="Group">
<path id="Vector" d="M7.85166 9.65357C9.13872 9.65357 10.1821 8.61839 10.1821 7.34144C10.1821 6.06448 9.13872 5.0293 7.85166 5.0293C6.5646 5.0293 5.52124 6.06448 5.52124 7.34144C5.52124 8.61839 6.5646 9.65357 7.85166 9.65357Z" fill="#E85022"/>
<path id="Vector_2" d="M7.85061 0C3.53933 0 0.0437012 3.46821 0.0437012 7.74567C0.0437012 11.3295 5.69497 17.9191 7.38453 19.7688C7.61757 20.0578 8.02539 20.0578 8.31669 19.7688C9.94799 17.9191 15.5993 11.3295 15.5993 7.74567C15.5993 3.46821 12.1036 0 7.85061 0ZM7.85061 11.1561C5.75323 11.1561 4.00542 9.42197 4.00542 7.34104C4.00542 5.26012 5.75323 3.52601 7.85061 3.52601C9.94799 3.52601 11.6958 5.26012 11.6958 7.34104C11.6958 9.47977 9.94799 11.1561 7.85061 11.1561Z" fill="#E85022"/>
</g>
</g>
<defs>
<clipPath id="clip0_240_3772">
<rect width="15.5556" height="20" fill="white" transform="translate(0.0437012)"/>
</clipPath>
</defs>
</svg>
