<svg width="135" height="30" viewBox="0 0 135 30" fill="none" xmlns="http://www.w3.org/2000/svg">
<path d="M1.139 29.5464V17.9854C2.08179 17.8344 3.15816 17.7589 4.36811 17.7589C6.37923 17.7589 7.81717 18.0609 8.68138 18.6644C9.59279 19.2563 10.0485 20.1153 10.0485 21.2412C10.0485 22.4252 9.60056 23.3654 8.70497 24.0618C8.23344 24.4332 7.64417 24.7146 6.93714 24.9063C6.23011 25.0977 5.53085 25.1934 4.83937 25.1934C4.57223 25.1934 4.36811 25.1877 4.2265 25.1761V29.5464H1.139ZM4.2265 19.6917V23.3307C4.33673 23.3421 4.50946 23.348 4.74523 23.348C5.48364 23.348 6.04154 23.1737 6.41866 22.8257C6.79578 22.4773 6.98434 22.0131 6.98434 21.4329C6.98434 20.8872 6.81939 20.4463 6.48921 20.1096C6.1593 19.7729 5.65664 19.6046 4.98073 19.6046C4.6822 19.6046 4.43088 19.6336 4.2265 19.6917ZM18.0422 22.4947V24.3927H14.4359V27.5614H18.5134V29.5464H11.3482V17.8113H18.2543V19.796H14.4359V22.4947H18.0422ZM20.0727 17.8113H23.113V27.5614H25.6823V17.8113H28.7229V27.5614H31.2919V17.8113H34.3324V29.5464H20.0727V17.8113ZM43.1745 22.4947V24.3927H39.5685V27.5614H43.646V29.5464H36.4808V17.8113H43.3867V19.796H39.5685V22.4947H43.1745ZM45.2051 17.8113H48.2928V22.5123H51.5219V17.8113H54.6094V29.5464H51.5219V24.6363H48.2928V29.5464H45.2051V17.8113ZM56.7813 17.8113H59.5156V20.4055C59.5156 21.8912 59.4134 23.6904 59.209 25.8029H59.2562C59.6333 24.9673 60.2068 23.818 60.9769 22.3555L63.3104 17.8113H66.1152V29.5464H63.4045V26.8998C63.4045 25.1587 63.4753 23.4001 63.6167 21.6243H63.5695C63.271 22.4483 62.7367 23.5975 61.9669 25.0718L59.6333 29.5464H56.7813V17.8113ZM70.3376 29.5464H67.085C67.3207 29.14 67.517 28.7221 67.6742 28.2929C67.7528 28.0721 67.8589 27.6688 67.9925 27.0827C68.126 26.4965 68.2871 25.9943 68.4756 25.5765C68.6642 25.1587 68.9314 24.8163 69.2771 24.5494C69.5912 24.3173 69.9683 24.143 70.4085 24.027V23.9923C69.5598 23.8066 68.8919 23.4728 68.4049 22.9912C67.9178 22.5092 67.6742 21.9085 67.6742 21.1891C67.6742 20.0746 68.1691 19.2215 69.1591 18.6296C70.1333 18.0492 71.4768 17.7589 73.1896 17.7589C74.3838 17.7589 75.5073 17.8344 76.5601 17.9854V29.5464H73.4724V24.8627H73.1424C72.5768 24.8627 72.1446 25.002 71.8461 25.2806C71.6417 25.4779 71.4768 25.7653 71.3512 26.1425C71.2255 26.5196 71.1116 26.9724 71.0094 27.5005C70.9072 28.0285 70.8325 28.368 70.7856 28.519C70.6753 28.9021 70.5262 29.2445 70.3376 29.5464ZM73.4724 23.0868V19.5872C73.3152 19.5525 73.1111 19.5348 72.8597 19.5348C72.1838 19.5348 71.6734 19.7031 71.3276 20.0398C70.9819 20.3765 70.8089 20.7886 70.8089 21.2759C70.8089 21.8331 71.0094 22.2771 71.4101 22.6081C71.8109 22.9388 72.349 23.1042 73.0247 23.1042C73.2132 23.1042 73.3624 23.0985 73.4724 23.0868ZM2.47837 0.839453H11.0465V12.5748H7.84854V2.82436H5.43203V5.92354C5.43203 7.53705 5.28133 8.85439 4.98047 9.87604C4.67934 10.8974 4.05687 11.6693 3.11303 12.1916C2.44568 12.5747 1.70519 12.7661 0.891562 12.7661L0.20813 10.8336C0.647496 10.7524 1.01372 10.6189 1.30655 10.4332C1.76225 10.0965 2.07143 9.60318 2.23405 8.95321C2.39693 8.30324 2.47837 7.36303 2.47837 6.1326V0.839453ZM17.934 0.700195C18.8778 0.700195 19.6956 0.8716 20.3873 1.21396C21.0788 1.55633 21.6079 2.02062 21.9739 2.60679C22.3401 3.19296 22.6047 3.80818 22.7673 4.45244C22.9302 5.09671 23.0114 5.77856 23.0114 6.4983C23.0114 8.62225 22.5354 10.1893 21.5835 11.1993C20.6314 12.209 19.3335 12.714 17.6899 12.714C16.5018 12.714 15.505 12.4266 14.6994 11.8521C13.8941 11.2776 13.3243 10.5522 12.9907 9.67579C12.6572 8.79939 12.4904 7.79826 12.4904 6.67236C12.4904 4.96599 12.9622 3.54412 13.9063 2.40654C14.8501 1.26896 16.1926 0.700195 17.934 0.700195ZM17.7875 2.68511C17.1528 2.68511 16.6647 3.03912 16.3228 3.74719C15.9812 4.45526 15.8103 5.44192 15.8103 6.70711C15.8103 9.38843 16.4774 10.7291 17.8118 10.7291C19.0651 10.7291 19.6915 9.35365 19.6915 6.60255C19.6915 3.99099 19.0568 2.68511 17.7875 2.68511ZM24.4552 0.839453H32.0228V2.82436H27.6532V12.5748H24.4552V0.839453ZM33.1492 0.839453H35.981V3.43387C35.981 4.91952 35.8751 6.71879 35.6635 8.83133H35.7125C36.1029 7.99565 36.6971 6.8464 37.4944 5.38383L39.9111 0.839453H42.816V12.5748H40.0087V9.92816C40.0087 8.18704 40.0821 6.42852 40.2283 4.65264H40.1796C39.8704 5.47665 39.3172 6.62591 38.5196 8.09988L36.1029 12.5748H33.1492V0.839453ZM52.6572 10.4853L52.9746 12.4004C52.4212 12.5864 51.5995 12.6793 50.5091 12.6793C48.4749 12.6793 46.9288 12.1481 45.8708 11.086C44.8131 10.0239 44.2843 8.62224 44.2843 6.88112C44.2843 5.82498 44.4755 4.88762 44.858 4.06932C45.2403 3.25102 45.757 2.60676 46.408 2.13679C47.059 1.66656 47.7668 1.3154 48.5317 1.08327C49.2966 0.851134 50.0941 0.7352 50.9241 0.7352C51.9818 0.7352 52.7223 0.839467 53.1453 1.04852L52.6084 2.96367C52.1527 2.81272 51.6563 2.73749 51.1194 2.73749C50.1265 2.73749 49.3049 3.06817 48.6539 3.72982C48.0029 4.39146 47.6773 5.40119 47.6773 6.75923C47.6773 8.09419 47.9907 9.07794 48.6173 9.71054C49.2437 10.3431 50.0778 10.6593 51.1194 10.6593C51.6239 10.6593 52.1364 10.6015 52.6572 10.4853ZM56.591 12.5748V2.9463H53.6861V0.839453H62.7183V2.9463H59.7887V12.5748H56.591ZM63.8203 0.839453H66.6521V3.43387C66.6521 4.91952 66.5462 6.71879 66.3346 8.83133H66.3833C66.7739 7.99565 67.3679 6.8464 68.1655 5.38383L70.582 0.839453H73.4869V12.5748H70.6798V9.92816C70.6798 8.18704 70.7529 6.42852 70.8994 4.65264H70.8507C70.5415 5.47665 69.988 6.62591 69.1907 8.09988L66.774 12.5748H63.8203V0.839453ZM75.3701 0.839453H78.5437V4.80933C78.5437 5.90048 79.1377 6.44592 80.3256 6.44592C80.8791 6.44592 81.3101 6.36473 81.6196 6.2021V0.839453H84.7929V12.714H81.6439V7.96063H81.5462C80.7976 8.22777 80.0328 8.36107 79.2516 8.36107C76.6641 8.36107 75.3701 7.26424 75.3701 5.07052V0.839453ZM93.975 5.52309V7.42087H90.2401V10.5898H94.4631V12.5748H87.0424V0.839453H94.1947V2.82436H90.2401V5.52309H93.975ZM103.645 10.4853L103.963 12.4004C103.409 12.5864 102.588 12.6793 101.497 12.6793C99.4629 12.6793 97.9168 12.1481 96.8592 11.086C95.8015 10.0239 95.2723 8.62224 95.2723 6.88112C95.2723 5.82498 95.4638 4.88762 95.8461 4.06932C96.2286 3.25102 96.7453 2.60676 97.3963 2.13679C98.0471 1.66656 98.7551 1.3154 99.52 1.08327C100.285 0.851134 101.082 0.7352 101.912 0.7352C102.97 0.7352 103.711 0.839467 104.134 1.04852L103.596 2.96367C103.141 2.81272 102.645 2.73749 102.107 2.73749C101.115 2.73749 100.293 3.06817 99.6419 3.72982C98.9911 4.39146 98.6656 5.40119 98.6656 6.75923C98.6656 8.09419 98.9787 9.07794 99.6053 9.71054C100.232 10.3431 101.066 10.6593 102.107 10.6593C102.612 10.6593 103.125 10.6015 103.645 10.4853ZM105.138 0.839453H108.263V5.94091H108.507L111.168 0.839453H114.683L110.924 6.25448C111.704 6.47494 112.287 6.8202 112.669 7.29043C113.051 7.7604 113.373 8.40751 113.633 9.23177C114.138 10.9381 114.504 12.0524 114.732 12.5748H111.558C111.395 12.2498 111.094 11.3443 110.655 9.85866C110.427 9.08082 110.163 8.50915 109.861 8.14345C109.561 7.778 109.109 7.59518 108.507 7.59518H108.263V12.5748H105.138V0.839453ZM115.638 0.839453H118.47V3.43387C118.47 4.91952 118.364 6.71879 118.153 8.83133H118.202C118.592 7.99565 119.186 6.8464 119.983 5.38383L122.4 0.839453H125.305V12.5748H122.498V9.92816C122.498 8.18704 122.571 6.42852 122.717 4.65264H122.669C122.36 5.47665 121.806 6.62591 121.009 8.09988L118.592 12.5748H115.638V0.839453ZM134.512 5.52309V7.42087H130.777V10.5898H135V12.5748H127.579V0.839453H134.731V2.82436H130.777V5.52309H134.512Z" fill="#434344"/>
</svg>
