<svg width="139" height="178" viewBox="0 0 139 178" fill="none" xmlns="http://www.w3.org/2000/svg">
<path fill-rule="evenodd" clip-rule="evenodd" d="M0 68.9863C0 30.8894 31.236 0 69.7603 0C107.764 0 139 30.8894 139 68.9863C139 100.905 88.5019 159.595 73.9251 176.069C71.3221 178.644 67.6779 178.644 65.5955 176.069C50.4981 159.595 0 100.905 0 68.9863ZM35.4007 65.3825C35.4007 83.9161 51.0187 99.3608 69.7603 99.3608C88.5019 99.3608 104.12 84.4309 104.12 65.3825C104.12 46.8489 88.5019 31.4042 69.7603 31.4042C51.0187 31.4042 35.4007 46.8489 35.4007 65.3825ZM90.5943 65.3848C90.5943 76.7579 81.2711 85.9777 69.7703 85.9777C58.2695 85.9777 48.9463 76.7579 48.9463 65.3848C48.9463 54.0116 58.2695 44.7919 69.7703 44.7919C81.2711 44.7919 90.5943 54.0116 90.5943 65.3848Z" fill="#E85022"/>
</svg>
