<svg width="68" height="68" viewBox="0 0 68 68" fill="none" xmlns="http://www.w3.org/2000/svg">
<g clip-path="url(#clip0)">
<path d="M60.4684 64.262C55.3185 67.169 46.4835 68 34.262 68C22.0405 68 13.2055 67.169 8.05563 64.262C4.96465 62.5214 3.40002 60.1482 3.40002 58.4469C3.40002 57.4779 3.91554 56.9239 5.0635 56.9239H63.4594C64.6085 56.9239 65.1229 57.4779 65.1229 58.4469C65.124 60.1482 63.5594 62.5214 60.4684 64.262ZM63.4594 19.1657H5.0635C3.91554 19.1657 3.40002 18.5724 3.40002 17.5047C3.40002 11.1748 12.9281 0 34.262 0C55.3982 0 65.124 11.1748 65.124 17.5047C65.124 18.5724 64.6085 19.1657 63.4594 19.1657Z" fill="#FF8732"/>
<path d="M15.8391 45.2746C15.6606 44.9976 15.6414 44.8193 15.6414 44.7408C15.6414 44.5232 15.7605 44.3651 15.9975 44.1475C16.5524 43.6328 17.9193 42.3475 18.6718 41.1811C19.2458 40.2906 19.4839 39.4797 19.4839 38.8079C19.4839 37.0875 17.9193 35.7417 16.2154 35.7417C15.1259 35.7417 14.096 36.3552 13.4029 37.4823C12.4718 38.9852 11.3621 40.7257 10.65 41.4188C10.4714 41.5971 10.3725 41.6364 10.2344 41.6364C9.99626 41.6364 9.89741 41.4782 9.89741 41.2214V39.2431C9.89741 37.3051 8.74839 35.7417 6.66825 35.7417C4.56897 35.7417 3.43909 37.304 3.43909 39.2431V51.4272C3.43909 53.3652 4.56791 54.9286 6.66825 54.9286C8.74839 54.9286 9.89741 53.3663 9.89741 51.4272V48.6189C9.89741 48.3812 9.99626 48.2039 10.2344 48.2039C10.5511 48.2039 10.6308 48.5202 10.7095 48.6784C11.1655 49.7662 12.492 52.08 13.7207 53.4448C14.553 54.3544 15.583 54.9286 16.6725 54.9286C18.5145 54.9286 20.06 53.326 20.06 51.6055C20.06 50.5378 19.604 49.7461 18.7324 48.7972C17.6227 47.5884 16.3153 46.0059 15.8391 45.2746Z" fill="#D62300"/>
<path d="M40.5417 34.6135C43.6518 34.6135 45.6129 32.6351 45.6129 29.7483C45.6129 27.909 44.5032 26.6428 42.2849 26.6428H41.6514C40.4822 26.6428 39.5713 27.1968 39.5713 28.4428C39.5713 29.5509 40.5417 30.0847 41.2751 30.0847C41.6514 30.0847 41.8895 30.2036 41.8895 30.4806C41.8895 30.8362 41.4739 31.0739 40.9977 31.0739C39.5117 31.0739 38.502 30.0253 38.502 28.0671C38.502 25.8914 39.8891 25.1007 40.9584 25.1007C42.2658 25.1007 42.4837 25.7736 43.3946 25.7736C44.4448 25.7736 45.158 24.9033 45.158 23.9937C45.158 23.3208 44.8604 22.8071 44.4054 22.4505C43.5732 21.8371 42.405 21.3828 40.6618 21.3828C37.591 21.3828 34.6 23.4004 34.6 28.0682C34.5989 32.5364 37.59 34.6135 40.5417 34.6135Z" fill="#D62300"/>
<path d="M5.7172 34.4946H8.51056C11.1455 34.4946 12.7495 32.7338 12.7495 30.539C12.7495 28.7782 11.6993 27.9674 11.4623 27.77C11.3634 27.6904 11.2646 27.6118 11.2646 27.5322C11.2646 27.4335 11.3241 27.3943 11.423 27.2754C11.7992 26.8402 12.1755 26.1482 12.1755 25.1389C12.1755 22.7657 10.5705 21.4996 8.07476 21.4996H5.7172C4.15257 21.4996 3.40002 22.4102 3.40002 23.636V32.3581C3.40002 33.585 4.15257 34.4946 5.7172 34.4946ZM6.88641 24.9022C6.88641 24.6454 7.04479 24.4469 7.38173 24.4469H7.63896C8.49036 24.4469 8.74865 25.0402 8.74865 25.5549C8.74865 26.0294 8.49142 26.7023 7.63896 26.7023H7.38173C7.04479 26.7023 6.88641 26.5048 6.88641 26.2469V24.9022ZM6.88641 29.5307C6.88641 29.2739 7.04479 29.0754 7.38173 29.0754H7.73781C8.68913 29.0754 8.96549 29.708 8.96549 30.2822C8.96549 30.7969 8.68807 31.5282 7.73781 31.5282H7.38173C7.04479 31.5282 6.88641 31.3308 6.88641 31.0729V29.5307Z" fill="#D62300"/>
<path d="M57.4384 34.5933C58.7065 34.5933 59.3995 33.6435 59.3995 32.4569V30.3607C59.3995 30.1039 59.5185 29.985 59.7162 29.985C59.9543 29.985 60.033 30.123 60.0723 30.3607C60.2509 31.369 60.726 32.7339 61.2607 33.4269C61.9345 34.3174 62.5681 34.5944 63.2016 34.5944C64.2315 34.5944 65.1233 33.7835 65.1233 32.7742C65.1233 32.1013 64.8459 31.6067 64.4898 31.1525C63.8159 30.3024 63.4003 29.7483 63.1431 29.0563C63.0836 28.8982 63.1229 28.7592 63.3015 28.6212C63.9158 28.1468 64.6291 27.0982 64.6291 25.4372C64.6291 22.925 62.5489 21.5007 60.033 21.5007H57.7945C56.2298 21.5007 55.4773 22.4102 55.4773 23.6371V32.459C55.4773 33.6445 56.1703 34.5933 57.4384 34.5933ZM59.1816 25.2387C59.1816 24.9819 59.34 24.7834 59.6769 24.7834H59.9543C60.7866 24.7834 61.0438 25.3767 61.0438 25.8914C61.0438 26.386 60.7866 27.0387 59.9543 27.0387H59.6769C59.34 27.0387 59.1816 26.8413 59.1816 26.5834V25.2387Z" fill="#D62300"/>
<path d="M24.8719 35.7405C22.6536 35.7405 21.4451 37.4015 21.4451 39.4785V51.1883C21.4451 53.2653 22.6536 54.9263 24.8719 54.9263C27.0903 54.9263 28.2988 53.2653 28.2988 51.1883V39.4785C28.2988 37.4025 27.0913 35.7405 24.8719 35.7405Z" fill="#D62300"/>
<path d="M60.0923 43.3557H59.1218C57.3786 43.3557 56.0319 44.1666 56.0319 45.9465C56.0319 47.5682 57.4977 48.3398 58.5872 48.3398C59.1218 48.3398 59.4981 48.4979 59.4981 48.9129C59.4981 49.4276 58.8646 49.763 58.1907 49.763C55.9522 49.763 54.4269 48.24 54.4269 45.4115C54.4269 42.2668 56.507 41.1195 58.111 41.1195C60.0721 41.1195 60.3888 42.1087 61.7557 42.1087C63.3406 42.1087 64.4098 40.8234 64.4098 39.5179C64.4098 38.5489 63.974 37.7975 63.281 37.2827C62.0725 36.3923 60.2506 35.7396 57.6752 35.7396C53.06 35.7396 48.5627 38.6466 48.5627 45.4115C48.5627 51.8793 53.0589 54.9052 57.4966 54.9052C62.1511 54.9052 65.1029 52.0375 65.1029 47.8441C65.1039 45.195 63.4405 43.3557 60.0923 43.3557Z" fill="#D62300"/>
<path d="M52.6049 34.4945C53.7145 34.4945 54.5861 33.8418 54.5861 32.6552C54.5861 31.4878 53.7145 30.835 52.6049 30.835H50.8223C50.4854 30.835 50.327 30.6376 50.327 30.3797V30.004C50.327 29.7472 50.4854 29.5487 50.8223 29.5487H52.1893C53.1406 29.5487 53.8931 28.9756 53.8931 27.9662C53.8931 26.958 53.1406 26.3838 52.1893 26.3838H50.8223C50.4854 26.3838 50.327 26.1864 50.327 25.9285V25.6122C50.327 25.3553 50.4854 25.1569 50.8223 25.1569H52.6049C53.7145 25.1569 54.5861 24.5041 54.5861 23.3176C54.5861 22.1501 53.7145 21.4974 52.6049 21.4974H48.8612C47.2966 21.4974 46.5441 22.4069 46.5441 23.6338V32.3559C46.5441 33.5818 47.2966 34.4924 48.8612 34.4924H52.6049V34.4945Z" fill="#D62300"/>
<path d="M18.5728 34.5932C21.7817 34.5932 23.4856 32.6743 23.4856 30.2619V23.5967C23.4856 22.4101 22.7926 21.4602 21.5245 21.4602C20.2565 21.4602 19.5634 22.4101 19.5634 23.5967V30.0443C19.5634 30.5187 19.286 31.0728 18.5728 31.0728C17.8596 31.0728 17.6215 30.5187 17.6215 30.0443V23.5967C17.6215 22.4101 16.9082 21.4602 15.6402 21.4602C14.3721 21.4602 13.6791 22.4101 13.6791 23.5967V30.2619C13.6801 32.6754 15.3638 34.5932 18.5728 34.5932Z" fill="#D62300"/>
<path d="M32.4798 34.5933C33.5098 34.5933 34.4016 33.7824 34.4016 32.7731C34.4016 32.1002 34.1242 31.6056 33.7681 31.1514C33.1941 30.4 32.6786 29.7472 32.4214 29.0552C32.3619 28.8971 32.4012 28.7581 32.5798 28.6201C33.1941 28.1457 33.9074 27.0971 33.9074 25.4361C33.9074 22.9239 31.8272 21.4996 29.3113 21.4996H27.0717C25.5071 21.4996 24.7545 22.4091 24.7545 23.636V32.4579C24.7545 33.6445 25.4475 34.5944 26.7156 34.5944C27.9837 34.5944 28.6767 33.6445 28.6767 32.4579V30.3618C28.6767 30.1049 28.7958 29.986 28.9935 29.986C29.2316 29.986 29.3102 30.124 29.3495 30.3618C29.5281 31.37 30.0032 32.7349 30.5379 33.428C31.2118 34.3163 31.8453 34.5933 32.4798 34.5933ZM29.2305 27.0376H28.9531C28.6161 27.0376 28.4577 26.8402 28.4577 26.5823V25.2387C28.4577 24.9818 28.6161 24.7834 28.9531 24.7834H29.2305C30.0628 24.7834 30.32 25.3766 30.32 25.8914C30.32 26.3849 30.0628 27.0376 29.2305 27.0376Z" fill="#D62300"/>
<path d="M43.8685 35.7405C41.8276 35.7405 40.719 37.2635 40.719 39.1824V43.4543C40.719 43.8098 40.6 43.969 40.3821 43.969C40.2237 43.969 40.1046 43.8703 39.9665 43.5933L37.2135 38.2527C36.1633 36.2149 35.0738 35.7405 33.826 35.7405C31.7458 35.7405 30.5968 37.3028 30.5968 39.2609V51.4854C30.5968 53.4043 31.7065 54.9274 33.7462 54.9274C35.7871 54.9274 36.8957 53.4043 36.8957 51.4854V47.2136C36.8957 46.858 37.0147 46.6988 37.2326 46.6988C37.391 46.6988 37.51 46.7975 37.6482 47.0745L40.4012 52.4152C41.4514 54.4529 42.5802 54.9274 43.7887 54.9274C45.8689 54.9274 47.0179 53.3651 47.0179 51.4069V39.1824C47.0179 37.2635 45.9093 35.7405 43.8685 35.7405Z" fill="#D62300"/>
<path d="M62.9 55.3764C62.9 54.8447 63.3124 54.4 63.8779 54.4C64.4434 54.4 64.8558 54.8447 64.8558 55.3764C64.8558 55.9474 64.4434 56.3592 63.8779 56.3592C63.3124 56.3603 62.9 55.9411 62.9 55.3764ZM64.6432 55.3764C64.6432 54.8851 64.2574 54.5996 63.8779 54.5996C63.4984 54.5996 63.1126 54.8851 63.1126 55.3764C63.1126 55.888 63.4984 56.1597 63.8779 56.1597C64.2574 56.1597 64.6432 55.888 64.6432 55.3764ZM63.5388 55.7957V54.9657C63.5388 54.9126 63.5856 54.8596 63.6388 54.8596H63.9183C64.1373 54.8596 64.2903 54.9922 64.2903 55.1716C64.2903 55.3244 64.2042 55.4571 64.0044 55.49L64.2234 55.7362C64.2436 55.7564 64.2563 55.7829 64.2563 55.802C64.2563 55.8615 64.2159 55.9018 64.1564 55.9018C64.116 55.9018 64.0894 55.8816 64.0703 55.8551L63.778 55.5102H63.745V55.7957C63.745 55.8487 63.6983 55.8954 63.6388 55.8954C63.5856 55.8944 63.5388 55.8487 63.5388 55.7957ZM63.8917 55.3234C64.0118 55.3234 64.0777 55.2639 64.0777 55.1843C64.0777 55.0984 64.0182 55.0517 63.9119 55.0517H63.7461V55.3244H63.8917V55.3234Z" fill="#D62300"/>
</g>
<defs>
<clipPath id="clip0">
<rect width="68" height="68" fill="white"/>
</clipPath>
</defs>
</svg>
