<svg xmlns="http://www.w3.org/2000/svg" width="130" height="80" fill="none"><g clip-path="url(#a)"><path fill="#E30613" d="M72.977 79.062C55.874 82.077 6.205 76.336.51 44.039-3.005 24.103 23.99 8.877 59.498 2.615c35.507-6.261 66.084-1.184 69.597 18.752 5.697 32.295-39.016 54.677-56.118 57.695Z"/><path fill="#fff" d="M44.628 38.21c5.141-2.91 9.78-15.74 1.016-14.995-7.529.641-9.326 13.577-8.734 16.762-.492.213-1.015.39-1.51.446-.236 1.505.813 2.346 1.99 2.477 1.305 5.749 4.856 12.305 10.172 10.385 6.228-2.252 5.033-14.767-2.934-15.075Zm.398-10.4c2.859-3.369 3.38-.954 3.261.198-.351 3.456-3.42 8.412-6.94 9.68.01-2.755 1.489-7.296 3.679-9.878Zm1.577 23.933c-2.867-1.135-6.367-10.256-3.529-11.479 2.416-1.044 6.334 6.062 3.529 11.48Zm63.389-25.848c-.205.618-.497 1.228-.925 1.72-.529-1.112-1.89-1.928-3.175-1.892-6.107.17-7.71 6.595-7.177 11.905.095 2.523-.61 4.275-1.815 5.267-2.485-1.677-3.767-5.646-5.426-6.528 1.672-1.882 2.905-4.057 3.095-5.631.385-3.195-2.871-5.29-4.805-3.575 1.06 4-.367 8.77-3.984 10.829-.485-3.057-.298-5.48.023-7.662.32-2.182-2.095-4.495-4.554-3.051-.39 1.38-.251 7.128.23 11.254-.105 2.759-.825 5.438-2.953 6.146-2.985-2.57-2.054-9.272-2.882-12.71-.762-3.157-4.918-5.234-6.698-2.495 1.828 6.018 1.39 13.636-.895 16.81-1.612-.53-1.774-2.164-1.99-3.936-.233-1.915-3.517-2.795-4.635-.636.892 2.903-.28 5.464-2.531 6.51-1.085-1.212-2.108-3-2.372-5.082 2.277-.48 5.444-4.633 5.626-7.971.318-5.85-6.16-6.647-8.86-1.775-1.284 2.316-1.748 5.557-1.23 8.2.782 3.993 3.826 9.08 8.359 8.285 1.218-.213 3.005-1.851 4.062-3.467 1.135 1.205 2.553 2.082 4.34 1.905 1.903-.19 2.898-4.277 3.26-8.784 1.648 4.477 4.379 7.772 6.938 7.28 1.474-.285 2.615-1.819 3.408-3.5 1.133 2.84 3.438 3.168 4.52 2.15-.538-1.371-.861-3.42-1.043-5.59a9.569 9.569 0 0 0 2.784-1.143c1.27 2.41 5.236 6.536 7.995 6.477 1.885-.044 2.956-1.659 3.5-3.433 1.031 1.902 2.398 3.172 3.872 3.13 2.21-.064 3.772-2.515 4.741-5.064.231 3.113 2.9 5.95 5.8 4.547-2.344-3.46-2.944-9.547-1.264-13.736.6-1.5-.18-5.467-3.339-4.754Zm-52.543 8.14c.977-2.348 2.81-1.468 2.595.652-.326 3.22-1.739 5.541-3.652 6.505-.243-2.736.357-5.466 1.057-7.156Zm50.879-2.784c.139 4.549-1.723 9.86-3.802 11.031-1.58-2.867-1.97-7.923-.708-11.33 1.472-3.97 4.428-2.475 4.51.3Zm-74.83-.987c-.503-2.085-3.16-4.082-6.99-2.059 1.466 4.777 2.654 11.385 2.54 17.67C18.057 41.981 17.26 31.981 17.26 31.981s-4.118.556-3.882 3.8c.615 8.482 11.995 12.133 15.51 13.064-.361 3.99-1.336 7.7-3.228 10.523 1.013 1.639 4.118 1.728 5.39-1.03 3.807-8.254 4.584-19.195 2.449-28.075Z"/></g><defs><clipPath id="a"><path fill="#fff" d="M0 0h129.744v80H0z"/></clipPath></defs></svg>