<svg width="195" height="211" viewBox="0 0 195 211" fill="none" xmlns="http://www.w3.org/2000/svg">
<path d="M1.21767 115.455C1.7359 115.709 2.44574 115.412 3.55478 114.893C4.84126 114.284 6.42351 113.528 8.06701 114.319C10.1843 115.319 10.7209 118.236 11.7195 123.521C11.9281 124.623 12.1068 125.456 12.2408 126.097C12.5684 127.615 12.747 128.359 12.4673 129.386C12.1139 130.695 11.4787 131.423 10.9173 132.078C10.4298 132.657 10.0309 133.118 9.78056 133.996C9.36823 135.454 9.48944 137.538 10.4822 138.536C11.549 139.609 13.6644 139.24 15.5135 138.9C17.5254 138.546 19.4337 138.206 20.3679 139.681C21.6876 141.751 19.207 145.588 17.1529 147.534C16.3844 148.248 15.7635 148.634 15.3052 148.916C15.1278 149.035 14.8469 149.198 14.8174 149.258C14.6703 149.942 16.4035 151.388 18.4181 153.058C19.2328 153.728 20.1513 154.504 21.1586 155.368C22.6548 156.665 24.1364 158.036 25.544 159.422C26.6964 158.144 28.8098 156.316 31.4142 156.469C35.7056 156.742 38.5242 162.104 38.8993 165.87C39.0194 167.18 38.8579 168.058 38.7405 168.772C38.5935 169.516 38.52 169.888 38.8316 170.528C39.2471 171.422 39.8542 171.735 41.0091 172.243C42.1195 172.735 43.5112 173.332 44.8006 174.927C45.9863 176.387 46.3582 177.801 46.6408 178.829C46.9234 179.915 47.0569 180.228 47.4419 180.377C47.7528 180.512 47.9598 180.423 48.7731 180.052C49.5864 179.681 50.6955 179.161 52.456 178.97C54.2017 178.764 55.2674 179.004 56.0371 179.213C56.7328 179.378 57.088 179.468 57.7684 179.231C58.7889 178.89 59.2023 178.236 59.7781 177.358C60.4131 176.392 61.2105 175.173 62.9701 174.297C65.1141 173.213 68.2208 172.741 70.028 174.232C71.1983 175.201 71.2296 176.481 71.2904 177.701C71.3216 178.862 71.3826 180.172 72.2135 181.87C72.5844 182.6 72.9402 183.106 73.2663 183.553C73.8297 184.328 74.3633 185.073 74.2466 186.293C74.1153 187.617 73.332 188.286 72.7113 188.851C72.2236 189.282 71.7802 189.668 71.5296 190.367C71.2348 191.17 71.4426 191.677 71.7692 192.51C72.1256 193.434 72.5711 194.565 72.3515 196.277C72.1464 197.854 71.5558 198.746 71.0094 199.534C70.5221 200.263 70.1233 200.813 70.0805 201.959C69.9796 203.938 71.0026 205.413 71.2101 205.681C72.2478 207.081 74.2174 208.319 76.318 207.965C76.5991 207.921 78.0636 207.64 79.1125 206.406C79.792 205.603 79.9537 204.785 80.0859 204.056C80.2476 203.267 80.4238 202.285 81.4442 201.885C82.6421 201.425 83.5459 202.275 84.42 203.124C85.2793 203.929 86.346 204.943 88.0633 205.54C88.8331 205.809 89.3066 205.84 89.8246 205.885C90.4017 205.93 91.038 205.976 91.9263 206.334C93.5992 207.006 95.0066 208.273 96.1336 210.091C97.4329 208.009 98.852 206.939 100.45 206.852C101.574 206.794 102.374 207.271 103.026 207.63C103.588 207.958 103.84 208.092 104.121 208.018C104.52 207.944 104.742 207.394 105.258 206.01C105.611 205.029 106.068 203.794 106.851 202.381C108.076 200.136 109.347 198.917 110.366 197.921C111.519 196.821 112.346 196.019 112.862 194.159C113.142 193.133 113.141 192.508 113.14 191.942C113.124 191.213 113.138 190.454 113.803 189.577C116.092 186.589 122.559 187.208 127.475 189.477C130.599 190.924 132.288 192.683 133.651 194.114C134.985 195.514 135.874 196.438 137.59 196.5C138.907 196.547 139.632 196.086 140.726 195.373C141.997 194.542 143.579 193.517 146.567 193.075C148.742 192.735 149.985 192.975 151.095 193.17C152.131 193.35 152.945 193.515 154.483 193.1C156.451 192.582 157.707 191.676 158.816 190.889C160.146 189.938 161.403 189.032 163.194 189.466C164.852 189.885 165.711 191.166 166.364 192.12C166.898 192.924 167.179 193.296 167.52 193.282C168.452 193.268 170.077 191.247 170.103 189.133C170.132 188.121 169.761 187.54 169.301 186.781C168.797 185.976 168.159 184.949 168.187 183.371C168.24 179.293 172.498 176.65 172.69 176.546C174.006 175.759 175.692 175.255 180.102 175.261C183.505 175.266 185.562 175.552 187.057 175.777C188.537 175.987 189.203 176.092 190.016 175.751C192.279 174.817 193.724 171.187 194.219 165.265C193.478 164.639 192.826 163.685 191.847 162.166C190.009 159.306 189.089 157.876 189.087 156.388C189.1 154.617 190.001 153.531 190.725 152.654C191.389 151.837 191.641 151.495 191.536 151.004C191.313 149.798 189.358 148.813 188.352 148.484C187.404 148.155 186.59 148.139 185.895 148.123C184.992 148.107 183.986 148.076 183.482 147.123C182.933 146.095 183.553 145.114 183.996 144.37C184.321 143.835 184.66 143.285 184.556 142.913C184.437 142.555 183.519 142.108 182.246 141.51C181.298 141.063 180.617 140.853 180.084 140.674C179.27 140.42 178.56 140.181 178.07 139.391C177.403 138.304 177.757 137.263 178.11 136.251C178.287 135.745 178.494 135.15 178.626 134.451C179.052 132.234 178.398 130.418 177.091 126.814C176.096 124.06 174.984 122.168 174.168 120.783C172.804 118.489 171.663 117.073 169.38 114.272C167.883 112.44 167.024 111.516 166.52 111.039C166.418 112.006 166.314 112.08 166.167 112.229L165.886 112.511L164.628 112.495L164.435 111.646C164.435 111.646 164.27 110.649 164.536 109.756C164.593 108.804 164.68 107.256 164.78 104.92C160.116 102.011 158.973 99.9707 159.179 98.5125C159.56 96.0723 163.672 95.2742 163.772 92.3723C163.8 91.2412 163.089 90.258 161.651 88.3361C159.501 85.431 158.525 85.5785 157.072 83.3441C156.671 82.7036 154.24 78.9796 155.731 76.6153C156.292 75.7231 157.253 75.2929 158.022 75.0856C157.252 74.2213 156.244 72.94 155.339 71.2272C154.419 69.4996 153.366 67.489 153.407 65.0929C153.478 63.0243 154.307 63.2934 155.884 58.7563C156.695 56.4804 156.93 55.1115 158.169 52.2259C158.98 50.3369 159.408 49.6976 160.088 49.1628C161.537 48.0039 162.485 48.6898 164.466 47.8293C167.409 46.5386 167.716 43.9941 169.241 44.1896C170.809 44.3704 170.843 47.1981 172.485 47.4534C173.492 47.6036 173.964 46.622 177.259 43.4268C179.816 40.9151 180.747 40.3359 180.686 39.2048C180.596 37.7759 179.027 37.3868 179.158 36.122C179.29 34.7678 181.124 34.7703 181.817 33.0598C182.496 31.4236 181.65 29.3836 180.864 28.2663C179.797 26.7468 178.746 26.8495 177.797 25.1813C177.352 24.3771 177.233 23.6923 177.039 22.4865C176.098 16.6363 176.245 15.5948 175.682 15.3856C174.217 14.8032 171.962 21.3931 168.263 21.3285C165.954 21.2955 164.974 18.7642 162.726 19.2075C161.217 19.5031 161.218 20.6937 159.474 21.7034C157.374 22.8911 155.154 22.4416 151.454 21.6924C147.31 20.8532 145.238 20.4336 144.377 18.7954C143.101 16.3231 145.553 13.1713 144.561 12.4705C143.761 11.9038 142.418 14.0897 139.607 14.3835C137.106 14.6331 136.749 13.0848 133.494 12.8422C130.342 12.5849 129.426 13.9231 127.575 13.0127C126.109 12.2814 125.471 10.8369 124.907 9.55625C123.69 6.81617 123.864 4.16729 124.114 2.63472C120.772 4.86253 118.316 5.00795 116.688 4.73783C113.196 4.16748 112.156 1.42765 108.472 1.46723C106.119 1.47888 105.78 2.5946 103.501 2.23429C101.281 1.87405 100.717 0.682695 98.5274 0.679685C96.8258 0.69223 96.7972 1.40657 95.0956 1.44888C92.3583 1.48976 91.6307 -0.371576 89.9446 0.102353C88.1252 0.590981 88.4391 2.89822 86.3243 3.74363C84.5349 4.44066 83.6304 3.08507 82.1221 3.73783C80.451 4.43502 80.6757 6.4445 79.068 10.2671C77.1359 14.8335 75.6412 14.6975 75.4525 17.3612C75.2637 19.9952 76.5252 22.78 78.3327 24.4791C80.1105 26.1186 81.0566 25.4353 82.5386 27.1638C84.4059 29.3392 83.654 31.3473 85.4014 32.3617C86.4972 32.9883 86.9698 32.3044 89.2343 32.7391C89.7079 32.829 93.3637 33.5931 93.6175 35.2454C93.7817 36.3023 92.3615 36.5682 91.3435 38.695C90.2515 40.9259 91.1556 41.9839 90.1956 43.3071C89.147 44.7493 87.4595 44.2707 84.2793 45.0254C81.809 45.6024 78.0223 46.5199 76.2652 49.241C74.3752 52.1852 76.2436 55.1345 73.7906 57.4826C72.5936 58.6567 71.8532 58.2092 71.3219 59.2205C70.0968 61.4364 73.5622 63.6437 73.4352 68.2423C73.3497 70.6532 72.359 71.1132 72.8647 73.0487C73.4746 75.3861 75.2061 75.6117 75.3418 77.4722C75.4925 79.4667 73.646 81.771 71.5458 82.4527C68.9279 83.2974 66.6171 81.419 65.9968 82.2516C65.3912 83.0693 67.7165 84.7245 67.5276 87.2394C67.3678 89.4567 65.3437 91.6714 63.5237 91.6541C61.6445 91.6366 60.7386 89.2095 59.8957 89.5506C58.9788 89.9065 59.8706 92.9141 59.5219 97.6165C59.2897 100.98 59.1591 102.84 57.8294 104.326C56.2042 106.11 54.8416 105.156 50.7605 107.204C47.3743 108.881 47.5681 109.908 45.2162 110.455C42.3613 111.121 41.7675 109.662 38.35 110.059C34.5774 110.486 34.3137 112.39 31.6648 112.163C29.0602 111.922 28.9245 110.031 24.6013 108.12C23.4464 107.613 21.4032 106.717 18.8728 106.58C17.3043 106.488 15.8841 106.695 10.1015 108.874C3.87535 111.232 2.87021 111.975 0.074341 112.492C0.269589 114.62 0.891897 115.246 1.23244 115.411L1.21767 115.455Z" fill="#FF9778"/>
</svg>
