<svg width="185" height="195" viewBox="0 0 185 195" fill="none" xmlns="http://www.w3.org/2000/svg">
<path d="M4.58006 169.412C5.88556 171.914 7.73824 174.164 9.84159 175.804C11.4117 177.026 12.2554 177.251 12.9213 177.326C13.7353 177.401 14.1936 177.119 15.1101 176.436C15.8492 175.901 16.7657 175.248 18.1854 174.714C21.5574 173.468 24.8133 174.009 26.0419 174.293C27.7736 174.697 28.7066 175.309 29.4619 175.801C30.158 176.263 30.5875 176.547 31.5641 176.578C32.6887 176.609 33.3541 176.268 34.1378 175.867C35.0545 175.392 36.1044 174.843 37.7619 175.053C39.2566 175.249 40.0121 175.89 40.6639 176.456C41.212 176.918 41.6713 177.321 42.663 177.575C44.0248 177.934 44.9417 177.608 46.0066 177.252C47.1602 176.867 48.4617 176.422 50.1938 177.035C53.495 178.185 54.8909 181.878 55.0394 182.295C55.6038 183.873 55.5761 185.243 55.5626 186.24C55.5632 186.656 55.5344 187.222 55.6234 187.371C55.6528 187.282 56.0669 187.074 56.3478 186.94C57.161 186.51 58.2848 185.916 59.6762 186.245C61.2451 186.635 61.9275 187.886 62.4763 188.913C62.9658 189.792 63.2773 190.343 63.8694 190.493C64.417 190.627 65.645 190.525 67.8912 188.444C68.4528 187.939 68.7629 187.478 69.0584 187.092C69.4719 186.527 69.9002 185.917 70.8617 185.695C72.3557 185.355 73.5111 186.279 74.3554 186.98C74.6665 187.233 75.1701 187.651 75.3477 187.651C75.3772 187.562 75.5095 186.982 75.6273 186.535C75.8774 185.449 76.2157 183.976 77.2343 182.177C78.0166 180.794 79.1089 178.89 80.9436 178.774C82.2308 178.701 83.0458 179.551 83.6385 180.176C84.0682 180.609 84.3497 180.892 84.5716 180.877C84.8528 180.863 85.207 180.238 85.5022 179.673C86.0483 178.677 86.7273 177.457 88.1769 177.072C89.3158 176.761 90.7071 177.091 92.0252 177.97C93.6543 179.074 94.796 180.757 95.0349 182.365C95.1992 183.511 94.8451 184.255 94.5501 184.909C94.2993 185.489 94.0632 185.995 94.0941 186.888C94.1252 188.049 94.6162 189.999 95.8155 190.581C96.2449 190.805 96.5851 190.731 97.2212 190.598C97.946 190.435 98.9223 190.228 100.136 190.736C101.365 191.259 101.869 192.093 102.285 192.778C102.611 193.314 102.804 193.627 103.263 193.851C104.151 194.299 105.645 194.167 106.961 193.529C107.878 193.083 108.543 192.444 108.661 191.909C108.734 191.566 108.527 191.239 107.934 190.464C107.207 189.496 106.214 188.199 105.782 185.981C105.544 184.701 105.231 183.108 106.087 181.621C106.781 180.387 107.816 180.031 109.014 179.601C109.842 179.305 110.877 178.949 112.193 178.162C113.391 177.464 114.5 176.796 115.549 175.532C116.228 174.7 116.582 173.986 116.848 173.361C117.231 172.528 117.63 171.681 118.724 171.355C120.617 170.792 122.958 172.462 123.952 174.383C124.931 176.26 124.534 178.119 124.254 179.473C124.034 180.5 123.916 181.155 124.183 181.453C124.909 182.242 127.586 181.427 128.459 181.176C130.544 180.539 132.437 179.261 134.003 177.477L133.81 177.135L134.875 176.66C138.143 175.191 140.981 173.26 143.301 170.987C144.306 169.976 145.177 168.95 145.931 168.073C147.644 166.022 149.136 164.253 151.785 163.944C152.524 163.856 153.19 163.901 153.767 163.947C154.744 164.007 155.44 164.053 156.179 163.548C156.534 163.31 156.666 163.117 157.198 162.165C157.39 161.853 157.596 161.466 157.877 161.005C158.999 159.132 159.796 158.031 160.328 157.318C161.022 156.381 161.037 156.307 161.007 156.009C160.977 155.652 160.888 155.533 160.384 154.907C159.895 154.326 159.169 153.447 158.264 151.823C157.122 149.783 156.558 148.77 156.705 147.699C156.969 145.883 158.536 145.171 160.059 144.474C161.479 143.821 163.091 143.094 164.154 141.399C164.907 140.164 165.644 138.112 165.419 136.013C165.359 135.388 165.21 134.852 165.091 134.346C164.838 133.348 164.556 132.321 165.057 131.042C165.455 130.015 166.105 129.51 166.578 129.154C166.978 128.842 167.111 128.738 167.169 128.47C167.287 127.994 166.991 127.547 166.501 126.876C165.968 126.132 165.301 125.193 165.595 124.003C165.992 122.292 167.93 121.684 169.468 121.21C169.675 121.151 169.911 121.062 170.148 121.003C169.482 120.689 168.46 120.286 167.513 119.928C166.299 119.45 165.44 119.181 164.774 118.956C163.531 118.568 162.776 118.314 162.05 117.435C161.234 116.436 161.099 115.112 160.815 112.447C160.635 110.691 160.485 109.321 160.66 107.446C160.923 104.708 161.719 102.715 162.294 101.243C163.061 99.3387 163.637 98.4316 164.035 97.8518C164.39 97.3165 164.478 97.1678 164.522 96.647C164.595 95.7094 164.313 95.2774 163.69 94.3241C163.053 93.3558 162.193 92.0152 161.405 89.5585C161.078 88.5162 161.003 88.0845 160.914 87.4296C160.809 86.73 160.675 85.7624 160.094 83.2762L159.975 82.7701C159.529 80.924 159.261 79.8521 160.133 79.0645C161.108 78.2026 162.337 78.874 163.418 79.4559C164.322 79.9483 165.343 80.5003 165.994 80.2036C166.453 80.0107 166.896 79.3565 167.087 78.5978C167.293 77.7944 167.188 77.1543 167.011 76.9159C166.862 76.7371 166.611 76.6624 166.182 76.5874C165.678 76.4974 164.82 76.3176 164.552 75.454C164.166 74.2034 165.378 73.4907 166.65 72.7483C168.114 71.902 170.124 70.7141 171.202 68.6171C171.571 67.9181 171.718 67.323 171.85 66.7428C172.085 65.7906 172.321 64.8087 173.37 63.7535C174.212 62.9063 174.922 62.6692 175.558 62.4766C176.046 62.3135 176.52 62.1654 177.214 61.6454C178.116 60.9769 178.426 60.4267 178.824 59.6385C179.223 58.8502 179.813 57.8093 181.129 56.546C181.882 55.8178 182.474 55.4317 182.873 55.1495C183.375 54.8227 183.553 54.7039 183.774 54.2429C184.35 53.1275 184.436 51.3714 183.651 50.5518C183.428 50.3282 183.31 50.2983 182.807 50.2083C182.274 50.1183 181.534 49.9982 180.586 49.4314C179.253 48.6259 178.586 47.5683 178.141 46.8831C178.067 46.7788 177.919 46.5405 177.919 46.5405C177.919 46.5405 175.946 42.8617 175.575 42.0426C175.144 41.1044 174.463 40.538 173.796 39.9567C172.922 39.2262 171.945 38.3914 172.046 36.9182C172.119 35.5937 173.064 34.7318 173.759 34.0928C174.01 33.8401 174.468 33.439 174.498 33.2902C174.468 33.2604 174.216 33.1558 174.039 33.0663C173.506 32.7977 172.662 32.3947 172.172 31.4266C171.564 30.2798 171.814 29.5212 173.023 25.8319L173.715 23.6749C174.422 21.503 174.526 21.1609 175.013 20.6109C176.21 19.1987 177.6 18.8731 178.843 18.5772C179.434 18.4292 179.996 18.3109 180.484 18.0585C181.697 17.4351 182.598 15.9928 183.186 13.7909C182.461 13.7453 181.632 13.6251 180.641 13.4005C176.304 12.4271 175.71 10.819 173.121 11.3066C171.021 11.6906 170.756 12.8511 168.758 12.8037C167.131 12.7419 166.967 11.953 164.243 11.1455C161.549 10.3382 161.18 10.9478 159.803 10.1274C158.292 9.20259 157.535 7.6984 156.645 5.94102C155.503 3.6624 155.857 3.15689 154.998 2.26275C153.546 0.772486 151.223 0.873485 149.27 0.960096C147.228 1.04659 145.305 1.63924 141.548 2.82469C137.91 3.95077 137.881 4.15911 136.948 4.11318C133.989 3.96028 132.773 1.8155 130.791 2.37832C129.208 2.83751 128.441 4.68187 128.294 5.03886C126.848 8.57895 130.403 10.846 130.306 16.2781C130.266 18.942 129.366 20.9201 128.259 23.404C127.079 25.992 125.869 28.6394 123.238 30.6003C121.642 31.7888 119.527 32.3663 115.311 33.5363C110.549 34.8394 108.98 34.7479 107.577 36.398C106.365 37.825 107.047 38.4808 105.867 41.1581C105.454 42.11 102.945 47.4941 98.6407 48.2769C96.2442 48.7201 95.1031 47.4238 94.2755 48.1965C92.8864 49.5043 96.0875 53.1401 96.791 59.0792C97.1201 61.7586 96.3702 65.1657 94.8849 71.9651C93.1202 79.9993 92.5279 79.6413 92.4581 82.7516C92.3617 88.0051 94.0502 89.2576 93.2578 94.0785C93.0377 95.492 92.1571 100.759 89.2876 101.589C87.0246 102.226 85.9998 99.3816 82.7893 99.66C80.0966 99.8646 79.7147 101.977 75.647 102.999C74.7151 103.221 73.2655 103.576 71.4453 103.38C68.1007 103.018 67.7285 101.276 64.3689 100.691C62.948 100.421 61.4834 100.613 58.5541 100.966C55.7284 101.304 54.3229 101.466 52.918 102.015C48.6587 103.616 49.2986 106.222 45.3797 107.868C42.2298 109.159 38.4266 108.901 36.9764 108.809C34.3424 108.627 33.4539 108.12 32.4042 108.788C30.4084 110.08 29.704 114.366 31.4532 116.66C33.6766 119.58 38.3494 117.384 40.44 120.527C41.4482 122.046 41.3326 124.04 41.217 126.094C41.0721 128.356 40.9999 129.68 40.0688 130.498C38.2658 132.132 35.5697 129.777 31.6646 130.695C28.0553 131.523 25.9288 134.586 25.5596 135.106C22.1038 140.043 25.1438 144.943 22.2318 147.097C19.9554 148.791 17.9687 145.841 13.5465 147.368C9.74557 148.687 9.23158 151.589 5.05985 152.268C2.81124 152.622 1.93735 151.951 1.1542 152.738C-0.412151 154.284 2.38882 157.518 2.11474 162.711C2.0715 163.559 1.9249 164.542 1.70434 165.568C2.94892 166.79 3.97159 168.086 4.66887 169.442L4.58006 169.412Z" fill="#FF9778"/>
</svg>
