<svg width="252" height="248" viewBox="0 0 252 248" fill="none" xmlns="http://www.w3.org/2000/svg">
<path d="M93.9588 245.044C95.4824 244.704 96.7107 244.869 97.9835 245.05C101.106 245.486 101.492 246.439 103.846 246.933C108.064 247.817 111.834 245.902 112.869 245.368C115.013 244.255 116.536 242.813 117.171 242.204C119.772 239.677 119.873 238.174 121.604 237.745C123.423 237.286 124.239 238.701 126.606 238.466C127.745 238.334 128.692 237.889 129.446 237.369C129.445 236.714 129.414 236.059 129.339 235.389C129.265 234.839 128.909 234.213 128.538 233.543C127.856 232.351 127.025 230.862 127.555 229.106C128.085 227.291 129.711 225.746 131.678 225.138C133.483 224.575 134.815 225.113 135.985 225.606C136.873 225.964 137.702 226.293 138.826 226.264C141.948 226.164 144.608 223.251 145.272 221.898C144.414 221.926 143.112 221.984 141.572 221.267C140.343 220.685 138.24 219.432 138.089 217.497C137.969 215.741 139.477 214.701 140.94 213.736C142.33 212.815 143.749 211.865 143.998 210.332C144.131 209.603 143.952 209.007 143.774 208.382C143.536 207.548 143.239 206.506 143.992 205.48C144.745 204.454 145.81 204.426 146.742 204.383C147.527 204.339 148.34 204.296 149.331 203.836C150.603 203.212 151.297 202.276 152.567 200.521C153.631 199.064 154.043 198.053 154.383 197.235C154.796 196.253 155.15 195.39 156.288 194.692C157.663 193.816 158.906 193.937 159.912 194.057C160.83 194.148 161.363 194.178 161.983 193.763C162.575 193.376 162.678 192.975 162.928 191.74C163.134 190.788 163.413 189.463 164.18 187.768C165.154 185.626 166.335 184.199 167.207 183.173C168.212 181.954 168.566 181.478 168.417 180.913C168.343 180.63 168.239 180.555 167.751 180.242C167.203 179.869 166.447 179.377 165.735 178.215C164.208 175.668 164.633 172.767 165.014 170.207C165.249 168.66 165.646 167.157 166.222 165.744C167.018 163.781 167.829 161.773 169.188 160.405C169.809 159.781 170.563 159.291 171.465 159.01C173.832 158.269 176.349 159.254 176.837 159.449C177.355 159.673 177.711 159.881 178.051 160.075C179.651 161.03 180.436 161.999 181.059 162.773C181.488 163.295 181.844 163.712 182.362 164.025C183.947 164.995 186.344 164.611 187.141 163.689C187.363 163.437 187.363 163.258 187.332 162.663C187.302 162.038 187.256 161.16 187.758 160.089C188.466 158.512 189.649 157.978 190.684 157.473C191.586 157.043 192.473 156.628 193.33 155.557C193.906 154.829 194.068 154.338 194.289 153.609C194.525 152.865 194.82 151.943 195.632 150.589C196.547 149.043 197.729 147.646 199.118 146.457C199.427 145.044 199.824 143.66 200.311 142.336C201.181 140.03 202.258 138.112 204.887 134.157C206.718 131.421 207.722 130.083 208.387 129.176C209.081 128.239 209.332 127.927 209.76 126.99C210.498 125.414 210.88 123.985 211.657 118.554C212.288 114.194 212.58 111.427 212.784 109.403C213.105 106.248 213.237 105.073 214.226 103.065C216.631 98.2016 219.764 95.3484 223.063 95.0106C224.646 94.8491 225.801 95.2972 226.822 95.7004C227.874 96.1334 228.703 96.462 230.019 96.181C232.149 95.7374 233.464 94.1468 235.148 92.1251C236.95 89.9547 239.402 86.9815 239.013 83.6175C238.774 81.7122 237.647 79.7759 236.089 77.1097C235.704 76.4544 235.378 75.9182 235.081 75.4713C234.191 74.0711 233.598 73.1475 234.144 72.0619C234.734 70.8721 236.037 70.8738 237.561 70.861C238.744 70.8627 240.209 70.8498 241.999 70.4504C244.824 69.8144 246.953 68.6565 246.997 68.0463C247.012 67.7933 246.315 67.2119 245.915 66.8691C244.997 66.0939 243.841 65.1399 244.047 63.6519C244.208 62.4764 245.065 61.8822 246.499 60.9168C247.874 59.9811 248.953 59.551 249.767 59.2396C250.107 59.1061 250.506 58.9429 250.625 58.8538C250.521 58.8983 250.18 58.5555 249.958 58.332C249.276 57.6464 248.358 56.7224 248.341 55.2788C248.324 54.0138 249.019 53.2854 249.654 52.6464C250.009 52.2897 250.393 51.9033 250.688 51.3679C251.796 49.5091 251.319 47.3058 250.366 42.929C249.919 40.815 249.221 38.7454 248.419 36.6904C247.37 37.5671 245.951 38.4283 244.131 38.8574C241.942 39.3604 240.151 38.9859 238.967 38.7164C237.664 38.4169 235.267 37.9077 233.178 36.0147C232.63 35.5228 232.244 35.0758 231.963 34.7033C231.859 34.599 231.74 34.45 231.666 34.3457C231.578 34.4647 231.46 34.6431 231.386 34.7769C230.987 35.4461 230.426 36.3681 229.243 36.9915C228.874 37.1845 226.922 38.1938 225.352 37.2689C223.309 36.0755 223.541 32.5933 224.174 30.7041C224.587 29.4247 225.163 28.8153 225.931 27.9829C226.434 27.4478 227.054 26.7641 227.896 25.649C229.816 23.0919 230.599 22.0065 230.553 20.8605C230.477 19.1786 229.025 17.8372 227.321 16.2722C225.988 15.05 225.425 14.5432 224.818 14.5275C224.197 14.4968 223.798 14.8684 223.044 15.6263C222.32 16.3546 221.404 17.2463 219.925 17.7801C219.23 18.0321 218.372 18.15 213.532 17.3843C208.293 16.5734 205.673 16.168 204.015 15.243C203.393 14.885 202.889 14.5568 202.445 14.2586C201.601 13.677 201.349 13.5427 201.009 13.6167C200.551 13.7202 200.255 14.196 199.812 14.9396C199.369 15.7129 198.809 16.6944 197.714 16.931C196.072 17.3008 194.339 15.8846 192.159 12.4437C190.416 14.257 188.361 15.5787 186.098 16.275C184.411 16.7787 181.305 17.727 179.69 15.9835C178.653 14.851 178.962 13.4078 179.241 12.1134C179.506 10.8933 179.77 9.64355 179.147 8.45208C178.48 7.15637 177.028 6.26144 176.348 6.46886C176.185 6.51329 176.097 6.72151 175.787 7.36104C175.477 8.03033 175.049 8.93756 174.207 9.9633C172.922 11.5242 171.532 12.3558 170.305 13.0833C168.812 13.9593 167.629 14.3745 166.756 14.6858C165.662 15.0712 165.262 15.2344 164.952 15.7549C164.495 16.5728 164.689 17.5999 164.882 18.6866C165.21 20.4135 165.966 21.4117 166.633 22.2907C167.315 23.1846 168.012 24.1232 167.762 25.4474C167.512 26.6525 166.493 27.7673 164.94 28.5242C163.432 29.2662 161.183 29.7394 159.407 28.844C158.4 28.3366 157.94 27.577 157.555 26.9811C157.213 26.43 156.991 26.0576 156.384 25.8038C155.777 25.55 155.333 25.6386 154.712 25.7866C153.958 25.9493 153.04 26.1564 151.93 25.6042C150.035 24.6491 149.114 22.1475 149.037 20.0787C149.006 18.6797 149.374 17.8319 149.684 17.1626C149.92 16.6272 150.068 16.2999 149.993 15.7789C149.859 14.7518 149.043 13.6047 147.903 12.8441C147.118 12.3222 146.289 12.083 145.756 12.2311C145.165 12.3791 144.781 13.0929 144.368 13.8364C143.836 14.818 143.157 16.0374 141.722 16.1099C140.524 16.1826 139.738 15.363 139.161 14.752C138.686 14.2751 138.39 13.9771 138.079 13.9915C137.369 14.0203 136.587 15.4331 136.07 16.3403C135.214 17.8571 134.92 19.1068 134.684 20.1185C134.42 21.279 134.155 22.38 133.031 22.7654C131.833 23.1656 130.855 22.3605 130.055 21.7344C129.315 21.1381 128.796 20.7653 128.338 20.8688C128.175 20.9132 128.131 20.9578 127.761 21.4485C127.466 21.8648 127.052 22.4297 126.314 23.1133C124.067 25.1938 122.086 26.0543 120.413 25.6502C118.874 25.2909 118.191 24.0398 117.643 23.0419C117.153 22.1334 116.812 21.5823 116.176 21.4177C115.554 21.268 114.962 21.5946 114.312 21.9211C113.558 22.3219 112.523 22.8562 111.486 22.2595C110.42 21.6032 110.433 20.4572 110.461 19.3262C110.49 18.4035 110.503 17.3468 110.072 16.1408C110.043 16.1109 108.929 12.999 106.501 12.1622C105.45 11.7887 104.695 12.0407 103.66 12.3964C102.521 12.7669 101.101 13.2412 99.1477 12.7623C97.6823 12.3882 96.9119 11.7323 96.2897 11.1957C95.7268 10.7186 95.3712 10.3907 94.4981 10.2854C93.4769 10.15 92.9003 10.4618 92.1019 10.8774C91.2443 11.3227 90.1649 11.8719 88.4928 11.8249C86.9391 11.7781 86.1097 11.2412 85.3099 10.7044C84.6287 10.2569 83.9475 9.80951 82.5561 9.48018C81.5052 9.22573 78.7376 8.76052 75.9129 9.81331C74.7741 10.2433 74.0202 10.793 73.3402 11.2683C72.3646 11.9813 71.3594 12.6943 69.7316 12.5433C68.3997 12.4224 67.1412 11.8402 65.5563 10.6028C63.2307 8.76904 61.1706 6.28079 59.7464 3.57019C59.2717 2.67657 58.649 1.78276 57.8933 0.96317C57.2444 2.56961 56.2697 3.93747 54.9238 4.39699C51.5369 5.50853 48.4075 0.131566 45.7605 1.30366C43.4684 2.32742 45.2793 6.5566 42.223 11.3893C42.0015 11.7313 38.4725 17.1883 33.2645 17.5086C30.0243 17.7274 28.9415 15.7465 26.1904 16.5464C25.0663 16.8723 23.499 17.7035 21.0482 21.7185C18.7155 25.555 17.6843 28.8278 16.5793 32.3833C12.4544 45.7422 12.2629 46.3819 11.1994 47.7794C8.23061 51.6895 6.33569 51.0023 3.61909 55.4038C2.37891 57.4262 0.267673 60.8612 0.643272 65.0437C1.07919 70.0598 4.60231 71.1659 4.23876 75.8535C4.02027 78.3981 2.95498 78.4562 2.51577 81.9084C2.34015 83.3369 1.9597 86.4617 3.38455 89.6783C4.86875 93.0141 7.59381 94.8633 9.69692 96.3247C12.5849 98.2783 13.5908 98.0415 15.7243 100.069C16.2873 100.605 17.9616 102.289 19.149 104.97C20.3066 107.531 20.428 109.793 20.5967 114.184C20.8261 119.646 20.2507 120.821 21.4815 122.832C21.8523 123.443 23.2015 125.484 25.7772 126.291C26.3397 126.47 27.8941 126.963 29.6542 126.445C32.2721 125.66 32.9939 123.265 33.9413 123.564C34.7851 123.847 34.3736 125.93 35.0873 128.462C35.6671 130.501 36.452 130.964 39.2536 134.673C43.7895 140.662 43.7619 142.151 45.9972 142.883C47.522 143.376 47.5062 142.677 51.5754 142.757C55.8221 142.837 57.9825 142.87 59.4494 144.345C61.0348 145.94 60.1937 147.62 62.327 149.528C62.8307 149.975 64.0603 151.093 65.3325 150.827C66.5898 150.576 66.4697 149.296 68.0513 148.092C69.0713 147.335 70.447 147.113 73.1986 146.671C75.9502 146.228 76.0246 146.511 77.2078 146.096C78.8938 145.503 79.4697 144.655 81.5093 142.932C84.7756 140.153 86.4309 138.756 87.5117 139.19C88.7405 139.712 88.774 142.57 88.8113 148.285C88.8325 152.973 88.4647 154.535 89.6801 156.055C91.1771 157.917 92.8626 156.967 94.2706 158.651C95.4562 160.051 95.2812 161.926 93.8425 170.318C92.815 176.418 92.4622 178.085 93.5883 179.247C93.9587 179.65 94.1807 179.635 98.8736 181.413C101.568 182.428 101.701 182.503 101.879 182.711C103.672 184.604 101.471 187.205 103.044 190.482C104.142 192.775 105.947 193.075 105.772 194.385C105.596 195.754 103.525 196.019 101.056 197.399C96.9749 199.686 93.7994 203.953 92.7544 208.044C91.8419 211.674 93.3371 212.167 92.0538 215.098C90.623 218.385 88.3005 218.813 87.4766 222.294C87.2706 223.187 86.8588 224.973 87.6306 226.76C88.729 229.321 90.9923 228.892 92.0757 231.23C93.1294 233.539 92.0827 236.38 91.375 238.284C90.7263 240.039 90.3269 240.083 89.6637 242.032C89.5311 242.404 88.013 246.852 89.0793 247.508C89.8641 247.97 90.9562 245.888 93.9442 245.208L93.9588 245.044Z" fill="#FFC3B1"/>
</svg>
